<svg width="354" height="238" viewBox="0 0 354 238" fill="none" xmlns="http://www.w3.org/2000/svg">
<path d="M137.999 30.7387C139.616 33.1323 142.53 31.9346 143.807 31.2747C145.455 30.424 156.897 23.3206 151.619 13.8888C149.353 9.84165 144.846 9.74142 141.83 10.7968C139.807 11.5042 139.666 13.0625 138.215 13.0625C136.669 13.0625 136.013 11.0058 133.588 10.3528C131.09 9.67974 126.299 10.458 124.379 13.8888C119.101 23.3206 130.544 30.424 132.191 31.2747C133.467 31.9346 136.382 33.1323 137.999 30.7387Z" stroke="#3C8F7C" stroke-miterlimit="10" stroke-linecap="round" stroke-linejoin="round"/>
<path d="M126.673 15.0105C127.387 13.7357 128.845 12.9892 130.302 12.6953" stroke="#3C8F7C" stroke-miterlimit="10" stroke-linecap="round" stroke-linejoin="round"/>
<path d="M130.242 26.9253C127.619 24.7203 124.553 21.045 125.961 16.6387" stroke="#3C8F7C" stroke-miterlimit="10" stroke-linecap="round" stroke-linejoin="round"/>
<path d="M136.657 12.3344L137.586 8.8623H138.914L139.844 12.1548" stroke="#3C8F7C" stroke-miterlimit="10" stroke-linecap="round" stroke-linejoin="round"/>
<path d="M139.428 10.1315C139.428 10.1315 146.08 7.01406 143.872 1C137.627 2.88662 138.918 8.86213 138.918 8.86213L139.428 10.1315Z" stroke="#3C8F7C" stroke-miterlimit="10" stroke-linecap="round" stroke-linejoin="round"/>
<path d="M45.5801 16.7393C45.5801 14.9731 47.1121 13.541 49.0016 13.541C50.8911 13.541 52.4231 14.9731 52.4231 16.7393C52.4231 18.5056 50.8911 19.9377 49.0016 19.9377C47.1121 19.9377 45.5801 18.5056 45.5801 16.7393Z" fill="#F8FBFB"/>
<path d="M48.999 20.4787C46.7939 20.4787 44.999 18.8019 44.999 16.7396C44.999 14.6783 46.7928 13.0005 48.999 13.0005C51.2052 13.0005 52.999 14.6773 52.999 16.7396C52.999 18.8009 51.2041 20.4787 48.999 20.4787ZM48.999 14.082C47.4318 14.082 46.156 15.2746 46.156 16.7396C46.156 18.2046 47.4318 19.3972 48.999 19.3972C50.5663 19.3972 51.842 18.2046 51.842 16.7396C51.842 15.2746 50.5674 14.082 48.999 14.082Z" fill="#3C8F7C"/>
<path d="M88.0142 85.1016C87.7262 85.1016 87.4912 84.8848 87.4882 84.6146L87.3262 69.4964C87.3232 69.2253 87.5562 69.0028 87.8472 69C88.1272 69.0103 88.3752 69.215 88.3782 69.487L88.5402 84.6053C88.5432 84.8763 88.3102 85.0988 88.0192 85.1016C88.0172 85.1016 88.0162 85.1016 88.0142 85.1016Z" fill="#3C8F7C"/>
<path d="M81.2311 85.1014C81.2291 85.1014 81.2271 85.1014 81.2251 85.1014C80.9351 85.0986 80.7021 84.8762 80.7051 84.6041L80.7961 76.7903C80.7991 76.5211 81.0341 76.3042 81.3221 76.3042C81.3241 76.3042 81.3261 76.3042 81.3281 76.3042C81.6181 76.307 81.8511 76.5295 81.8481 76.8015L81.7571 84.6154C81.7541 84.8846 81.5191 85.1014 81.2311 85.1014Z" fill="#3C8F7C"/>
<path d="M94.2505 85.1015C93.9745 85.1015 93.7435 84.9005 93.7265 84.6397C93.5495 81.9241 93.4855 79.1684 93.5355 76.4491C93.5405 76.1771 93.7775 75.978 94.0705 75.9658C94.3605 75.9705 94.5925 76.1939 94.5875 76.4659C94.5375 79.1609 94.6015 81.8905 94.7765 84.5808C94.7945 84.8519 94.5735 85.0846 94.2835 85.1015C94.2725 85.1005 94.2615 85.1015 94.2505 85.1015Z" fill="#3C8F7C"/>
<path d="M74.7223 85.1017C74.4393 85.1017 74.2063 84.8914 74.1973 84.6259L73.9993 78.6807C73.9903 78.4096 74.2183 78.1825 74.5083 78.1741C74.7953 78.1591 75.0413 78.3788 75.0503 78.6499L75.2483 84.5951C75.2573 84.8662 75.0293 85.0933 74.7393 85.1017C74.7343 85.1017 74.7283 85.1017 74.7223 85.1017Z" fill="#3C8F7C"/>
<path d="M277.532 101.011C281.176 100.118 278.815 109.628 279.866 114.034C280.916 118.441 275.548 117.483 270.765 117.483C265.98 117.483 267.029 114.865 261.779 118.465C256.528 122.065 244.976 119.664 241.242 116.283C237.507 112.902 243.382 110.354 243.382 110.354C243.382 110.354 260 107.292 266.472 96.4536C266.705 96.0622 268.686 95.1473 267.404 98.0204C266.123 100.894 266.798 103.742 272.269 102.852C275.041 102.401 273.855 101.913 277.532 101.011Z" stroke="#3C8F7C" stroke-miterlimit="10" stroke-linecap="round" stroke-linejoin="round"/>
<path d="M240.583 112.438C240.583 112.438 246.912 117.414 256.831 114.802C266.75 112.19 271.08 110.754 279.774 113.601" stroke="#3C8F7C" stroke-miterlimit="10" stroke-linecap="round" stroke-linejoin="round"/>
<path d="M260.176 103.162C260.176 103.162 261.997 102.256 263.885 102.33C265.629 102.399 267.655 103.636 269.123 104.941C270.589 106.247 273.72 106.291 275.338 105.855C277.262 105.339 279.59 106.385 279.586 108.993" stroke="#3C8F7C" stroke-miterlimit="10" stroke-linecap="round" stroke-linejoin="round"/>
<path d="M260.431 103.049L264.098 106.247" stroke="#3C8F7C" stroke-miterlimit="10" stroke-linecap="round" stroke-linejoin="round"/>
<path d="M257.775 104.771L261.079 107.684" stroke="#3C8F7C" stroke-miterlimit="10" stroke-linecap="round" stroke-linejoin="round"/>
<path d="M255.119 106.248L258.369 109.283" stroke="#3C8F7C" stroke-miterlimit="10" stroke-linecap="round" stroke-linejoin="round"/>
<path d="M251.983 107.684L255.119 110.883" stroke="#3C8F7C" stroke-miterlimit="10" stroke-linecap="round" stroke-linejoin="round"/>
<path d="M6.69554 109.927L5.42136 105.608C5.17666 104.779 5.67403 103.938 6.53512 103.727L11.3219 102.558C12.182 102.348 13.0766 102.85 13.3213 103.679L18.0785 119.802C18.3232 120.632 17.8251 121.474 16.965 121.684L12.1782 122.853C11.3171 123.063 10.4232 122.561 10.1785 121.731L8.77011 116.958" stroke="#3C8F7C" stroke-miterlimit="10" stroke-linecap="round" stroke-linejoin="round"/>
<path d="M9.72047 120.88L6.44653 121.681C5.58989 121.89 4.69796 121.389 4.45406 120.56L1.13817 109.294C0.894541 108.466 1.39121 107.624 2.24785 107.414L5.52179 106.614" stroke="#3C8F7C" stroke-miterlimit="10" stroke-linecap="round" stroke-linejoin="round"/>
<path d="M35.1981 102.856L33.9239 98.5375C33.6792 97.7081 32.7836 97.2069 31.9235 97.4169L27.1367 98.5859C26.2765 98.796 25.7772 99.6379 26.0219 100.467L30.7791 116.59C31.0238 117.42 31.9197 117.922 32.7798 117.712L37.5666 116.543C38.4267 116.333 38.9257 115.49 38.681 114.661L37.2726 109.887" stroke="#3C8F7C" stroke-miterlimit="10" stroke-linecap="round" stroke-linejoin="round"/>
<path d="M38.5756 113.656L41.8477 112.855C42.7053 112.645 43.2032 111.804 42.9593 110.976L39.6434 99.709C39.3997 98.8812 38.5066 98.3793 37.649 98.5892L34.377 99.3896" stroke="#3C8F7C" stroke-miterlimit="10" stroke-linecap="round" stroke-linejoin="round"/>
<path d="M15.0854 109.157L27.5806 106.04" stroke="#3C8F7C" stroke-miterlimit="10" stroke-linecap="round" stroke-linejoin="round"/>
<path d="M16.2729 113.342L28.7681 110.225" stroke="#3C8F7C" stroke-miterlimit="10" stroke-linecap="round" stroke-linejoin="round"/>
<path d="M227.761 37.1016C227.759 37.1016 227.756 37.1016 227.756 37.1016C227.466 37.0988 227.233 36.8763 227.235 36.6053L227.397 21.487C227.4 21.2178 227.635 21 227.923 21C227.925 21 227.928 21 227.928 21C228.218 21.0028 228.451 21.2253 228.448 21.4964L228.286 36.6146C228.284 36.8848 228.049 37.1016 227.761 37.1016Z" fill="#3C8F7C"/>
<path d="M234.543 37.1014C234.255 37.1014 234.021 36.8846 234.017 36.6154L233.926 28.8015C233.923 28.5295 234.156 28.307 234.446 28.3042C234.448 28.3042 234.45 28.3042 234.452 28.3042C234.74 28.3042 234.974 28.5211 234.978 28.7903L235.069 36.6041C235.072 36.8762 234.839 37.0977 234.549 37.1014C234.547 37.1014 234.545 37.1014 234.543 37.1014Z" fill="#3C8F7C"/>
<path d="M221.525 37.1014C221.514 37.1014 221.503 37.1014 221.493 37.1005C221.203 37.0836 220.982 36.8509 221 36.5798C221.175 33.8895 221.238 31.159 221.189 28.4649C221.184 28.1939 221.415 27.9695 221.706 27.9648C221.985 27.9705 222.236 28.1761 222.241 28.4481C222.291 31.1674 222.227 33.9231 222.05 36.6387C222.032 36.9004 221.801 37.1014 221.525 37.1014Z" fill="#3C8F7C"/>
<path d="M336.761 204.102C336.759 204.102 336.756 204.102 336.756 204.102C336.466 204.099 336.233 203.876 336.235 203.605L336.397 188.487C336.4 188.218 336.635 188 336.923 188C336.925 188 336.928 188 336.928 188C337.218 188.003 337.451 188.225 337.448 188.496L337.286 203.615C337.284 203.885 337.049 204.102 336.761 204.102Z" fill="#3C8F7C"/>
<path d="M343.543 204.101C343.255 204.101 343.021 203.885 343.017 203.615L342.926 195.802C342.923 195.529 343.156 195.307 343.446 195.304C343.448 195.304 343.45 195.304 343.452 195.304C343.74 195.304 343.974 195.521 343.978 195.79L344.069 203.604C344.072 203.876 343.839 204.098 343.549 204.101C343.547 204.101 343.545 204.101 343.543 204.101Z" fill="#3C8F7C"/>
<path d="M330.525 204.101C330.514 204.101 330.503 204.101 330.493 204.1C330.203 204.084 329.982 203.851 330 203.58C330.175 200.889 330.238 198.159 330.189 195.465C330.184 195.194 330.415 194.97 330.706 194.965C330.985 194.97 331.236 195.176 331.241 195.448C331.291 198.167 331.227 200.923 331.05 203.639C331.032 203.9 330.801 204.101 330.525 204.101Z" fill="#3C8F7C"/>
<path d="M280.156 43.139C281.266 40.045 287.366 34.3013 294.891 30.788C302.415 27.2743 311.568 34.8399 314.086 35.4675C316.604 36.0942 315.999 33.9149 315.758 33.3185C313.331 27.2832 302.172 17.8187 291.419 22.058C277.708 27.4626 277.246 40.7844 277.458 41.5246C277.669 42.2648 275.999 46.3029 275.999 46.3029L279.193 47.8087C279.193 47.8087 281.634 44.7574 279.175 40.645" stroke="#3C8F7C" stroke-miterlimit="10" stroke-linecap="round" stroke-linejoin="round"/>
<path d="M307.979 27.6861C306.434 26.4643 304.643 25.3711 302.703 24.5913C302.592 24.5476 302.483 24.504 302.371 24.4613C298.863 23.1277 295.519 23.069 292.425 24.2886C290.026 25.2353 288.09 26.4518 286.528 27.7983M285.282 28.9779C283.685 30.6381 282.572 32.423 281.796 34.1024" stroke="#3C8F7C" stroke-miterlimit="10" stroke-linecap="round" stroke-linejoin="round"/>
<path d="M346.58 10.7389C346.58 8.97263 348.112 7.54053 350.002 7.54053C351.891 7.54053 353.423 8.97263 353.423 10.7389C353.423 12.5051 351.891 13.9372 350.002 13.9372C348.112 13.9372 346.58 12.5051 346.58 10.7389Z" fill="#F8FBFB"/>
<path d="M349.999 14.4782C347.794 14.4782 345.999 12.8014 345.999 10.7391C345.999 8.67781 347.793 7 349.999 7C352.205 7 353.999 8.67678 353.999 10.7391C353.999 12.8004 352.204 14.4782 349.999 14.4782ZM349.999 8.08152C348.432 8.08152 347.156 9.27409 347.156 10.7391C347.156 12.2041 348.432 13.3967 349.999 13.3967C351.566 13.3967 352.842 12.2041 352.842 10.7391C352.842 9.27409 351.567 8.08152 349.999 8.08152Z" fill="#3C8F7C"/>
<path d="M329.014 97.1016C328.726 97.1016 328.491 96.8848 328.488 96.6146L328.326 81.4964C328.323 81.2253 328.556 81.0028 328.847 81C329.127 81.0103 329.375 81.215 329.378 81.487L329.54 96.6053C329.543 96.8763 329.31 97.0988 329.019 97.1016C329.017 97.1016 329.016 97.1016 329.014 97.1016Z" fill="#3C8F7C"/>
<path d="M322.231 97.1014C322.229 97.1014 322.227 97.1014 322.225 97.1014C321.935 97.0986 321.702 96.8762 321.705 96.6041L321.796 88.7903C321.799 88.5211 322.034 88.3042 322.322 88.3042C322.324 88.3042 322.326 88.3042 322.328 88.3042C322.618 88.307 322.851 88.5295 322.848 88.8015L322.757 96.6154C322.754 96.8846 322.519 97.1014 322.231 97.1014Z" fill="#3C8F7C"/>
<path d="M335.25 97.1015C334.974 97.1015 334.743 96.9005 334.726 96.6397C334.549 93.9241 334.486 91.1684 334.536 88.4491C334.541 88.1771 334.777 87.978 335.07 87.9658C335.36 87.9705 335.592 88.1939 335.587 88.4659C335.537 91.1609 335.601 93.8905 335.776 96.5808C335.794 96.8519 335.574 97.0846 335.284 97.1015C335.273 97.1005 335.261 97.1015 335.25 97.1015Z" fill="#3C8F7C"/>
<path d="M315.722 97.1017C315.439 97.1017 315.206 96.8914 315.197 96.6259L314.999 90.6807C314.99 90.4096 315.218 90.1825 315.508 90.1741C315.795 90.1591 316.041 90.3788 316.05 90.6499L316.248 96.5951C316.257 96.8662 316.029 97.0933 315.739 97.1017C315.734 97.1017 315.728 97.1017 315.722 97.1017Z" fill="#3C8F7C"/>
<path d="M140.604 126.081C139.417 125.55 137.569 126.387 137.001 127.497L126.876 147.271C128.331 150.622 139.593 155.873 143.894 154.886L154.019 135.112C154.588 134.002 154.138 132.136 152.952 131.606" stroke="#3C8F7C" stroke-miterlimit="10" stroke-linecap="round" stroke-linejoin="round"/>
<path d="M126.88 147.27C128.336 150.62 139.597 155.871 143.899 154.884" stroke="#3C8F7C" stroke-miterlimit="10" stroke-linecap="round" stroke-linejoin="round"/>
<path d="M157.304 128.718C153.208 129.449 141.936 124.21 140.286 121.104L138.737 124.128C140.387 127.234 151.659 132.472 155.755 131.743L157.304 128.718Z" stroke="#3C8F7C" stroke-miterlimit="10" stroke-linecap="round" stroke-linejoin="round"/>
<path d="M164.16 113.813C160.249 112.063 151.877 108.264 148.333 106.678L143.407 114.994C145.057 118.101 156.328 123.339 160.425 122.609L164.16 113.813Z" stroke="#3C8F7C" stroke-miterlimit="10" stroke-linecap="round" stroke-linejoin="round"/>
<path d="M146.253 114.787L149.329 109.599" stroke="#3C8F7C" stroke-miterlimit="10" stroke-linecap="round" stroke-linejoin="round"/>
<path d="M144.203 116.017C144.203 116.017 144.768 120.929 140.273 121.104" stroke="#3C8F7C" stroke-miterlimit="10" stroke-linecap="round" stroke-linejoin="round"/>
<path d="M159.067 122.667C159.067 122.667 154.621 125.337 157.293 128.718" stroke="#3C8F7C" stroke-miterlimit="10" stroke-linecap="round" stroke-linejoin="round"/>
<path d="M165.47 112.753C165.837 112.036 165.513 111.178 164.748 110.836L150.505 104.462C149.739 104.12 148.819 104.422 148.452 105.139C148.085 105.856 148.41 106.715 149.176 107.058L163.419 113.431C164.183 113.773 165.103 113.47 165.47 112.753Z" stroke="#3C8F7C" stroke-miterlimit="10" stroke-linecap="round" stroke-linejoin="round"/>
<path d="M150.497 104.46L164.74 110.834L164.878 110.564C166.158 108.065 165.029 105.07 162.357 103.874L157.789 101.831C155.116 100.634 151.915 101.692 150.635 104.191L150.497 104.461L150.497 104.46Z" stroke="#3C8F7C" stroke-miterlimit="10" stroke-linecap="round" stroke-linejoin="round"/>
<path d="M133.188 134.96C133.188 134.96 137.623 133.863 142.15 138.97C146.673 144.076 150.492 142.018 150.492 142.018" stroke="#3C8F7C" stroke-miterlimit="10" stroke-linecap="round" stroke-linejoin="round"/>
<path d="M272.952 194.299C274.851 196.348 275.999 199.021 275.999 201.946C275.999 208.399 270.403 213.631 263.499 213.631C256.594 213.631 250.999 208.399 250.999 201.946C250.999 199.021 252.148 196.349 254.046 194.299L254.047 194.3C252.891 192.645 252.219 190.668 252.219 188.543C252.219 182.72 257.269 178 263.499 178C269.728 178 274.777 182.72 274.777 188.543C274.777 190.668 274.106 192.645 272.949 194.3L272.952 194.299Z" stroke="#3C8F7C" stroke-miterlimit="10" stroke-linecap="round" stroke-linejoin="round"/>
<path d="M270.029 191.979C271.004 190.885 271.237 189.472 271.237 187.746C271.237 183.686 268.427 180.875 263.5 180.875C258.574 180.875 255.691 183.373 255.691 187.978C255.691 189.761 255.905 190.904 256.919 192.012L256.917 192.01C258.829 190.901 261.085 190.261 263.5 190.261C265.893 190.261 268.129 190.89 270.029 191.979Z" stroke="#3C8F7C" stroke-miterlimit="10" stroke-linecap="round" stroke-linejoin="round"/>
<path d="M259.982 207.203H259.36V197.627H258.431V197.048H259.982V207.203Z" fill="#222326" style="mix-blend-mode:luminosity"/>
<path d="M259.982 207.203H259.36V197.627H258.431V197.048H259.982V207.203Z" stroke="#3C8F7C" stroke-miterlimit="10" stroke-linecap="round" stroke-linejoin="round"/>
<path d="M262.498 200.022C262.498 199.586 262.58 199.182 262.745 198.81C262.911 198.438 263.138 198.116 263.428 197.845C263.717 197.576 264.056 197.362 264.444 197.207C264.833 197.053 265.243 196.975 265.678 196.975C266.112 196.975 266.524 197.053 266.913 197.207C267.3 197.362 267.639 197.575 267.929 197.845C268.218 198.116 268.446 198.438 268.612 198.81C268.777 199.182 268.861 199.586 268.861 200.022V204.229C268.861 204.664 268.777 205.068 268.612 205.44C268.446 205.812 268.219 206.134 267.929 206.404C267.639 206.675 267.3 206.888 266.913 207.043C266.524 207.197 266.112 207.275 265.678 207.275C265.243 207.275 264.833 207.197 264.444 207.043C264.056 206.888 263.717 206.676 263.428 206.404C263.139 206.134 262.911 205.812 262.745 205.44C262.58 205.068 262.498 204.664 262.498 204.229V200.022ZM268.239 200.022C268.239 199.664 268.172 199.332 268.036 199.028C267.903 198.722 267.719 198.462 267.486 198.244C267.253 198.027 266.982 197.858 266.672 197.737C266.362 197.617 266.03 197.555 265.678 197.555C265.327 197.555 264.994 197.617 264.685 197.737C264.375 197.858 264.103 198.027 263.871 198.244C263.637 198.462 263.454 198.723 263.32 199.028C263.185 199.332 263.118 199.664 263.118 200.022V204.229C263.118 204.586 263.185 204.918 263.32 205.222C263.454 205.527 263.637 205.788 263.871 206.006C264.103 206.223 264.375 206.393 264.685 206.513C264.994 206.635 265.327 206.695 265.678 206.695C266.03 206.695 266.362 206.635 266.672 206.513C266.981 206.393 267.253 206.223 267.486 206.006C267.719 205.788 267.903 205.527 268.036 205.222C268.172 204.918 268.239 204.586 268.239 204.229V200.022Z" fill="#222326" style="mix-blend-mode:luminosity"/>
<path d="M262.498 200.022C262.498 199.586 262.58 199.182 262.745 198.81C262.911 198.438 263.138 198.116 263.428 197.845C263.717 197.576 264.056 197.362 264.444 197.207C264.833 197.053 265.243 196.975 265.678 196.975C266.112 196.975 266.524 197.053 266.913 197.207C267.3 197.362 267.639 197.575 267.929 197.845C268.218 198.116 268.446 198.438 268.612 198.81C268.777 199.182 268.861 199.586 268.861 200.022V204.229C268.861 204.664 268.777 205.068 268.612 205.44C268.446 205.812 268.219 206.134 267.929 206.404C267.639 206.675 267.3 206.888 266.913 207.043C266.524 207.197 266.112 207.275 265.678 207.275C265.243 207.275 264.833 207.197 264.444 207.043C264.056 206.888 263.717 206.676 263.428 206.404C263.139 206.134 262.911 205.812 262.745 205.44C262.58 205.068 262.498 204.664 262.498 204.229V200.022ZM268.239 200.022C268.239 199.664 268.172 199.332 268.036 199.028C267.903 198.722 267.719 198.462 267.486 198.244C267.253 198.027 266.982 197.858 266.672 197.737C266.362 197.617 266.03 197.555 265.678 197.555C265.327 197.555 264.994 197.617 264.685 197.737C264.375 197.858 264.103 198.027 263.871 198.244C263.637 198.462 263.454 198.723 263.32 199.028C263.185 199.332 263.118 199.664 263.118 200.022V204.229C263.118 204.586 263.185 204.918 263.32 205.222C263.454 205.527 263.637 205.788 263.871 206.006C264.103 206.223 264.375 206.393 264.685 206.513C264.994 206.635 265.327 206.695 265.678 206.695C266.03 206.695 266.362 206.635 266.672 206.513C266.981 206.393 267.253 206.223 267.486 206.006C267.719 205.788 267.903 205.527 268.036 205.222C268.172 204.918 268.239 204.586 268.239 204.229V200.022Z" stroke="#3C8F7C" stroke-miterlimit="10" stroke-linecap="round" stroke-linejoin="round"/>
<path d="M60.5365 200.096C62.8372 201.077 64.2734 202.093 63.9154 203.03C63.625 203.79 60.0371 203.327 55.9026 201.996C51.7655 200.664 48.6491 198.968 48.9393 198.208C49.4086 196.98 52.9701 197.511 57.1073 198.843C57.8055 199.067 58.4763 199.296 59.1067 199.53L60.5365 200.096Z" stroke="#3C8F7C" stroke-miterlimit="10" stroke-linecap="round" stroke-linejoin="round"/>
<path d="M64.0227 202.765L62.9204 205.641C62.6302 206.398 59.0471 205.936 54.9181 204.609C50.7865 203.282 47.6741 201.593 47.9641 200.836L49.0664 197.96" stroke="#3C8F7C" stroke-miterlimit="10" stroke-linecap="round" stroke-linejoin="round"/>
<path d="M62.0315 210.302C61.4219 210.993 57.6193 210.463 53.2674 209.053C48.8743 207.629 45.5245 205.83 45.5747 204.946" stroke="#3C8F7C" stroke-miterlimit="10" stroke-linecap="round" stroke-linejoin="round"/>
<path d="M60.5451 208.09C59.053 207.973 56.7692 207.466 54.2814 206.652C51.6698 205.799 49.4583 204.811 48.2442 204.011L43.8502 205.536C42.5966 206.152 41.6335 207.195 41.1662 208.444L34.8727 225.266C36.1316 228.947 52.144 234.617 56.8497 232.45L63.1432 215.629C63.6107 214.379 63.5503 213.004 62.974 211.795L60.5451 208.09Z" stroke="#3C8F7C" stroke-miterlimit="10" stroke-linecap="round" stroke-linejoin="round"/>
<path d="M48.2445 204.011L49.0083 201.969" stroke="#3C8F7C" stroke-miterlimit="10" stroke-linecap="round" stroke-linejoin="round"/>
<path d="M60.5446 208.09L61.3276 205.997" stroke="#3C8F7C" stroke-miterlimit="10" stroke-linecap="round" stroke-linejoin="round"/>
<path d="M39.5415 212.787C39.5415 212.787 43.5616 211.587 48.4555 215.701C53.3486 219.815 58.1586 220.622 62.211 218.121" stroke="#3C8F7C" stroke-miterlimit="10" stroke-linecap="round" stroke-linejoin="round"/>
<path d="M41.1481 216.92L43.1277 216.461" stroke="#3C8F7C" stroke-miterlimit="10" stroke-linecap="round" stroke-linejoin="round"/>
<path d="M46.5259 218.406L47.0834 220.24" stroke="#3C8F7C" stroke-miterlimit="10" stroke-linecap="round" stroke-linejoin="round"/>
<path d="M53.6368 229.684L54.906 228.192" stroke="#3C8F7C" stroke-miterlimit="10" stroke-linecap="round" stroke-linejoin="round"/>
<path d="M48.1675 227.819L48.7266 229.652" stroke="#3C8F7C" stroke-miterlimit="10" stroke-linecap="round" stroke-linejoin="round"/>
<path d="M50.9488 222.052L52.9308 221.603" stroke="#3C8F7C" stroke-miterlimit="10" stroke-linecap="round" stroke-linejoin="round"/>
<path d="M39.3967 224.671L38.2373 223.103" stroke="#3C8F7C" stroke-miterlimit="10" stroke-linecap="round" stroke-linejoin="round"/>
<path d="M57.2887 223.73L57.4819 221.832" stroke="#3C8F7C" stroke-miterlimit="10" stroke-linecap="round" stroke-linejoin="round"/>
<path d="M42.037 227.2L44.0382 226.832" stroke="#3C8F7C" stroke-miterlimit="10" stroke-linecap="round" stroke-linejoin="round"/>
<path d="M42.1192 222.35L42.3135 220.453" stroke="#3C8F7C" stroke-miterlimit="10" stroke-linecap="round" stroke-linejoin="round"/>
<path d="M45.917 223.096L47.3487 224.452" stroke="#3C8F7C" stroke-miterlimit="10" stroke-linecap="round" stroke-linejoin="round"/>
<path d="M51.8665 225.877L53.5055 224.744" stroke="#3C8F7C" stroke-miterlimit="10" stroke-linecap="round" stroke-linejoin="round"/>
<path d="M62.2898 195.295L58.9156 200.658" stroke="#3C8F7C" stroke-miterlimit="10" stroke-linecap="round" stroke-linejoin="round"/>
<path d="M63.4131 214.512L65.7179 215.265C68.019 216.017 69.2331 218.372 68.4281 220.524L64.6956 230.5C63.8908 232.651 61.3717 233.786 59.0701 233.034L56.897 232.324" stroke="#3C8F7C" stroke-miterlimit="10" stroke-linecap="round" stroke-linejoin="round"/>
<path d="M57.9188 229.596L59.2576 230.034C60.4092 230.41 61.6676 229.843 62.07 228.767L65.2191 220.35C65.6218 219.273 65.0158 218.097 63.8641 217.721L62.5254 217.283" stroke="#3C8F7C" stroke-miterlimit="10" stroke-linecap="round" stroke-linejoin="round"/>
<path d="M195.58 165.739C195.58 163.973 197.112 162.541 199.002 162.541C200.891 162.541 202.423 163.973 202.423 165.739C202.423 167.506 200.891 168.938 199.002 168.938C197.112 168.938 195.58 167.506 195.58 165.739Z" fill="#F8FBFB"/>
<path d="M198.999 169.479C196.794 169.479 194.999 167.802 194.999 165.74C194.999 163.678 196.793 162 198.999 162C201.205 162 202.999 163.677 202.999 165.74C202.999 167.801 201.204 169.479 198.999 169.479ZM198.999 163.082C197.432 163.082 196.156 164.275 196.156 165.74C196.156 167.205 197.432 168.397 198.999 168.397C200.566 168.397 201.842 167.205 201.842 165.74C201.842 164.275 200.567 163.082 198.999 163.082Z" fill="#3C8F7C"/>
<path d="M67.5801 148.739C67.5801 146.973 69.1121 145.541 71.0016 145.541C72.8911 145.541 74.4231 146.973 74.4231 148.739C74.4231 150.505 72.8911 151.937 71.0016 151.937C69.1121 151.937 67.5801 150.505 67.5801 148.739Z" fill="#F8FBFB"/>
<path d="M70.999 152.478C68.7939 152.478 66.999 150.801 66.999 148.739C66.999 146.678 68.7928 145 70.999 145C73.2052 145 74.999 146.677 74.999 148.739C74.999 150.8 73.2041 152.478 70.999 152.478ZM70.999 146.082C69.4318 146.082 68.156 147.274 68.156 148.739C68.156 150.204 69.4318 151.397 70.999 151.397C72.5663 151.397 73.842 150.204 73.842 148.739C73.842 147.274 72.5674 146.082 70.999 146.082Z" fill="#3C8F7C"/>
<path d="M153.761 212.102C153.759 212.102 153.756 212.102 153.756 212.102C153.466 212.099 153.233 211.876 153.235 211.605L153.397 196.487C153.4 196.218 153.635 196 153.923 196C153.925 196 153.928 196 153.928 196C154.218 196.003 154.451 196.225 154.448 196.496L154.286 211.615C154.284 211.885 154.049 212.102 153.761 212.102Z" fill="#3C8F7C"/>
<path d="M160.543 212.101C160.255 212.101 160.021 211.885 160.017 211.615L159.926 203.802C159.923 203.529 160.156 203.307 160.446 203.304C160.448 203.304 160.45 203.304 160.452 203.304C160.74 203.304 160.974 203.521 160.978 203.79L161.069 211.604C161.072 211.876 160.839 212.098 160.549 212.101C160.547 212.101 160.545 212.101 160.543 212.101Z" fill="#3C8F7C"/>
<path d="M147.525 212.101C147.514 212.101 147.503 212.101 147.493 212.1C147.203 212.084 146.982 211.851 147 211.58C147.175 208.889 147.238 206.159 147.189 203.465C147.184 203.194 147.415 202.97 147.706 202.965C147.985 202.97 148.236 203.176 148.241 203.448C148.291 206.167 148.227 208.923 148.05 211.639C148.032 211.9 147.801 212.101 147.525 212.101Z" fill="#3C8F7C"/>
<path d="M173.58 65.7393C173.58 63.9731 175.112 62.541 177.002 62.541C178.891 62.541 180.423 63.9731 180.423 65.7393C180.423 67.5056 178.891 68.9377 177.002 68.9377C175.112 68.9377 173.58 67.5056 173.58 65.7393Z" fill="#F8FBFB"/>
<path d="M176.999 69.4787C174.794 69.4787 172.999 67.8019 172.999 65.7396C172.999 63.6783 174.793 62.0005 176.999 62.0005C179.205 62.0005 180.999 63.6773 180.999 65.7396C180.999 67.8009 179.204 69.4787 176.999 69.4787ZM176.999 63.082C175.432 63.082 174.156 64.2746 174.156 65.7396C174.156 67.2046 175.432 68.3972 176.999 68.3972C178.566 68.3972 179.842 67.2046 179.842 65.7396C179.842 64.2746 178.567 63.082 176.999 63.082Z" fill="#3C8F7C"/>
</svg>
