<svg width="40" height="32" viewBox="0 0 40 32" fill="none" xmlns="http://www.w3.org/2000/svg">
<g opacity="0.5">
<path d="M39.2275 13.0026L36.7519 10.838C36.5347 10.6488 36.2187 10.6224 35.9735 10.7747L34.3688 11.7709L34.3417 11.7089C34.3405 11.7058 34.3383 11.7029 34.3367 11.6998L35.1507 10.1877C35.2876 9.93334 35.2416 9.61984 35.0396 9.41461L33.7245 8.08568L33.8132 7.49644C33.8564 7.21095 33.7072 6.93113 33.4475 6.80617L30.744 5.51343L30.7972 5.26761L30.7969 5.26824L30.9055 4.76713C30.9445 4.58677 30.8293 4.40798 30.6489 4.36895L27.9838 4.59212L28.1749 4.34598L28.4887 3.94119C28.6017 3.79546 28.575 3.58457 28.4292 3.47125L25.3546 2.30442C25.0849 2.20275 24.7795 2.28805 24.6026 2.51626L24.0625 3.21283L24.4701 1.86879C24.5236 1.69221 24.4235 1.50461 24.247 1.4511L20.9583 1.45834C20.6703 1.4596 20.4153 1.64846 20.3316 1.9245L19.7285 3.91349L18.1091 1.97958C17.9545 1.87886 17.7465 1.92293 17.6457 2.07748L15.4339 5.47598L15.4251 2.89051C15.4241 2.60187 15.2343 2.34786 14.9586 2.26413L11.8107 1.31323C11.6262 1.31386 11.4764 1.46463 11.477 1.6494L11.4921 6.10047C11.2683 5.96418 10.9822 5.97173 10.7666 6.12722L9.14744 7.29909L6.79333 5.12187L6.79363 5.12218L6.4175 4.77437C6.28215 4.6491 6.06968 4.65728 5.9444 4.79294L4.51475 7.75455C4.3901 8.01423 4.44865 8.32584 4.66049 8.52194L6.39389 10.1253L4.96172 11.702C4.76845 11.9157 4.73603 12.2311 4.88365 12.4791L6.20566 14.7014L2.56101 12.9236C2.39513 12.8427 2.19431 12.9119 2.1131 13.0778L1.59847 16.3259C1.55409 16.6104 1.69982 16.8921 1.9595 17.0187L3.80433 17.9186C3.81094 17.9866 3.82825 18.0542 3.8569 18.1191L5.77255 22.4502L6.24689 23.5229C6.38067 23.8254 6.6309 24.0392 6.92111 24.1374L6.73636 24.5409C6.65955 24.7087 6.73352 24.9079 6.9016 24.9847L7.41687 25.0533L7.166 25.1333C6.8909 25.2211 6.70582 25.4782 6.70834 25.7663L6.74674 29.0546C6.80277 29.2305 6.99163 29.3281 7.16758 29.2721L7.65672 29.1163L7.65546 29.1166L12.1877 27.6728L12.6687 28.5733L12.6684 28.573L12.9098 29.025C12.9778 29.1522 13.1163 29.2164 13.2513 29.1978L12.697 30.1937L12.6973 30.1934L12.4481 30.6413C12.3583 30.8025 12.4166 31.0071 12.5777 31.0968L15.7934 31.7858C16.0751 31.8456 16.364 31.715 16.5044 31.4628L17.4389 29.7839L20.388 29.5582C20.6753 29.5355 20.9152 29.3287 20.9784 29.0467L21.5435 26.5236L22.9718 30.3187C23.037 30.4915 23.2306 30.579 23.4034 30.5141L26.0081 28.5066C26.2359 28.3303 26.3231 28.0253 26.2215 27.7552L25.8655 26.8094L30.0062 29.2711L30.0056 29.2708L30.4462 29.5327C30.6049 29.6271 30.811 29.5746 30.9051 29.4159L31.6858 26.2214C31.7534 25.9413 31.6313 25.6489 31.3833 25.5012L30.8255 25.1698L31.2558 23.4345L32.111 25.8745C32.2064 26.1471 32.4692 26.3246 32.7569 26.3136L36.0427 26.1805C36.2168 26.1194 36.309 25.9277 36.2479 25.7537L36.0786 25.2705L34.7755 21.5532C35.0317 21.6085 35.2992 21.5078 35.4522 21.2903L37.3373 18.5959C37.3943 18.4203 37.2977 18.2311 37.122 18.1742L36.6999 18.0372C36.824 17.7571 36.8356 17.4282 36.7034 17.1251L35.9615 15.4244L38.6842 13.7338L38.6836 13.7344L39.1192 13.4637C39.2766 13.3661 39.3251 13.1594 39.2275 13.0026ZM12.8632 20.6328L12.8906 20.573L12.9227 20.6561C12.913 20.6599 12.9032 20.6639 12.8934 20.668C12.8837 20.6558 12.8733 20.6444 12.8632 20.6328ZM27.0285 22.8402L27.0789 22.9425L26.6486 22.6866L26.709 22.516L27.0285 22.8402ZM26.303 7.38754L25.9272 7.24589L26.4912 6.51816L26.303 7.38754Z" fill="#222326" style="mix-blend-mode:luminosity"/>
</g>
<path d="M6.27379 28.1203L13.0991 25.946C13.6962 25.7558 14.0258 25.1181 13.8354 24.521L13.3267 22.9242C13.1366 22.3271 12.4989 21.9976 11.9018 22.188L6.2719 23.9815C5.9968 24.069 5.81172 24.3265 5.81423 24.6145L5.85264 27.9028C5.9093 28.0788 6.09815 28.1764 6.27379 28.1203Z" fill="#FFEAA1"/>
<path d="M6.18702 27.6236C6.2676 27.6224 6.32205 26.9327 6.30883 26.0835C6.29561 25.2343 6.21975 24.5468 6.13917 24.5481C6.05859 24.5494 6.00414 25.239 6.01736 26.0882C6.03058 26.9375 6.10644 27.6249 6.18702 27.6236Z" fill="#CD8D54"/>
<path d="M6.76147 27.9653L13.0989 25.9465C13.696 25.7563 14.0256 25.1186 13.8352 24.5215L13.3265 22.9247C13.1364 22.3276 12.4987 21.9981 11.9016 22.1885L10.7842 22.5445C10.7842 22.5445 12.4634 22.7739 12.3045 24.13C12.0523 26.2798 6.76147 27.9653 6.76147 27.9653Z" fill="#E8C682"/>
<path d="M5.52325 3.62297L10.782 8.48701C11.2419 8.91257 11.2699 9.6296 10.8443 10.0898L9.70645 11.3202C9.28089 11.7801 8.56387 11.8081 8.104 11.3828L3.76624 7.37086C3.5544 7.17476 3.49585 6.86314 3.6205 6.60346L5.05015 3.64186C5.17543 3.50588 5.3879 3.49769 5.52325 3.62297Z" fill="#FFEAA1"/>
<path d="M5.23387 4.03592C5.30627 4.07118 5.06327 4.71865 4.6909 5.48226C4.31885 6.24588 3.95845 6.83606 3.88605 6.8008C3.81366 6.76555 4.05665 6.11808 4.42902 5.35447C4.80138 4.59116 5.16179 4.00067 5.23387 4.03592Z" fill="#CD8D54"/>
<path d="M5.89893 3.97046L10.7819 8.487C11.2417 8.91256 11.2697 9.62959 10.8442 10.0898L9.7063 11.3202C9.28074 11.7801 8.56371 11.8081 8.10384 11.3828L7.24296 10.5865C7.24296 10.5865 8.86116 11.091 9.29207 9.79578C9.97543 7.74132 5.89893 3.97046 5.89893 3.97046Z" fill="#E8C682"/>
<path d="M15.9625 28.2575L17.5281 21.2675C17.665 20.6559 18.2713 20.2716 18.8825 20.4085L20.5177 20.7749C21.1293 20.9118 21.5136 21.5181 21.3764 22.1294L20.0849 27.8952C20.0216 28.1769 19.7818 28.384 19.4944 28.4067L16.2155 28.6575C16.0358 28.6169 15.9222 28.4375 15.9625 28.2575Z" fill="#FFEAA1"/>
<path d="M16.4649 28.2998C16.4589 28.2195 17.141 28.1047 17.9883 28.043C18.8354 27.9813 19.5269 27.9967 19.5329 28.077C19.5385 28.1572 18.8568 28.2721 18.0094 28.3338C17.1621 28.3955 16.4705 28.3801 16.4649 28.2998Z" fill="#CD8D54"/>
<path d="M16.0742 27.7575L17.5278 21.267C17.6647 20.6555 18.2709 20.2711 18.8822 20.4081L20.5174 20.7744C21.129 20.9114 21.5133 21.5176 21.3761 22.1289L21.1199 23.2733C21.1199 23.2733 20.7434 21.6205 19.4069 21.8985C17.2879 22.3388 16.0742 27.7575 16.0742 27.7575Z" fill="#E8C682"/>
<path d="M22.0784 29.167L19.5552 22.4629C19.3346 21.8765 19.6308 21.2227 20.2172 21.0021L21.7856 20.4119C22.372 20.1912 23.0258 20.4874 23.2464 21.0738L25.3277 26.6039C25.4293 26.8743 25.3421 27.179 25.1142 27.3553L22.5096 29.3628C22.3368 29.4273 22.1432 29.3395 22.0784 29.167Z" fill="#FFEAA1"/>
<path d="M22.5218 28.9272C22.473 28.8633 22.9801 28.393 23.655 27.8771C24.3298 27.3612 24.9162 26.9949 24.965 27.0587C25.0138 27.1226 24.5067 27.5929 23.8318 28.1088C23.1573 28.6247 22.5706 28.9911 22.5218 28.9272Z" fill="#CD8D54"/>
<path d="M21.898 28.6877L19.5552 22.4626C19.3346 21.8762 19.6308 21.2225 20.2172 21.0018L21.7856 20.4116C22.372 20.191 23.0258 20.4872 23.2464 21.0736L23.6594 22.1712C23.6594 22.1712 22.4384 20.9952 21.4731 21.9603C19.9417 23.491 21.898 28.6877 21.898 28.6877Z" fill="#E8C682"/>
<path d="M11.5551 29.4897L15.0386 23.2303C15.3433 22.6829 16.0335 22.4862 16.5809 22.7909L18.0452 23.6058C18.5929 23.9105 18.7893 24.6008 18.4846 25.1481L15.6115 30.3112C15.4711 30.5636 15.1821 30.694 14.9004 30.6341L11.6848 29.9451C11.5236 29.8551 11.4654 29.6508 11.5551 29.4897Z" fill="#FFEAA1"/>
<path d="M12.0247 29.6728C12.0421 29.5941 12.7286 29.6772 13.5583 29.8585C14.388 30.0398 15.0468 30.2503 15.0298 30.3287C15.0128 30.4074 14.326 30.3243 13.4963 30.143C12.6662 29.962 12.0074 29.7514 12.0247 29.6728Z" fill="#CD8D54"/>
<path d="M11.804 29.0421L15.0385 23.23C15.3432 22.6827 16.0334 22.4859 16.5808 22.7906L18.0451 23.6055C18.5928 23.9102 18.7892 24.6005 18.4845 25.1479L17.9141 26.1728C17.9141 26.1728 18.0218 24.4812 16.6614 24.3685C14.5043 24.1901 11.804 29.0421 11.804 29.0421Z" fill="#E8C682"/>
<path d="M29.5523 28.381L23.3949 24.7206C22.8563 24.4005 22.6795 23.7049 22.9996 23.1663L23.856 21.726C24.1761 21.1874 24.8718 21.0105 25.4103 21.3306L30.4894 24.3502C30.7377 24.4978 30.8598 24.7902 30.7918 25.0703L30.0112 28.2649C29.9168 28.4229 29.711 28.4751 29.5523 28.381Z" fill="#FFEAA1"/>
<path d="M29.7491 27.9168C29.671 27.8973 29.7736 27.2133 29.9782 26.3889C30.1831 25.5646 30.4123 24.9121 30.4903 24.9316C30.5684 24.9511 30.4658 25.6351 30.2612 26.4594C30.0566 27.2835 29.8271 27.936 29.7491 27.9168Z" fill="#CD8D54"/>
<path d="M29.1123 28.1194L23.3949 24.7206C22.8563 24.4005 22.6795 23.7049 22.9996 23.1663L23.856 21.726C24.1761 21.1874 24.8718 21.0105 25.4103 21.3306L26.4185 21.9299C26.4185 21.9299 24.7308 21.7741 24.5794 23.1308C24.3389 25.2815 29.1123 28.1194 29.1123 28.1194Z" fill="#E8C682"/>
<path d="M27.5942 2.78976L23.2054 8.4511C22.8214 8.94622 22.1094 9.03656 21.6143 8.65254L20.2898 7.62578C19.7947 7.24177 19.7043 6.52978 20.0883 6.03466L23.7084 1.36483C23.8853 1.13662 24.1906 1.05132 24.4604 1.15299L27.535 2.31982C27.6807 2.43282 27.7072 2.64371 27.5942 2.78976Z" fill="#FFEAA1"/>
<path d="M27.1574 2.53746C27.1284 2.61269 26.4624 2.42666 25.6695 2.12229C24.8766 1.81791 24.2572 1.51007 24.2861 1.43516C24.3151 1.35993 24.9811 1.54595 25.774 1.85033C26.5669 2.15471 27.1864 2.46254 27.1574 2.53746Z" fill="#CD8D54"/>
<path d="M27.2806 3.19434L23.2057 8.4512C22.8217 8.94632 22.1097 9.03666 21.6145 8.65265L20.29 7.62589C19.7949 7.24188 19.7046 6.52988 20.0886 6.03476L20.8072 5.10778C20.8072 5.10778 20.4452 6.76375 21.7732 7.08072C23.8783 7.58308 27.2806 3.19434 27.2806 3.19434Z" fill="#E8C682"/>
<path d="M20.5674 24.3653L22.9602 17.6133C23.1695 17.0228 23.8173 16.714 24.4081 16.923L25.9876 17.483C26.5781 17.6923 26.8872 18.3401 26.6779 18.9309L24.7043 24.5003C24.608 24.7726 24.3445 24.9492 24.0568 24.9372L20.7713 24.7931C20.597 24.7314 20.5057 24.5394 20.5674 24.3653Z" fill="#FFEAA1"/>
<path d="M21.0608 24.4681C21.0646 24.3879 21.7555 24.3554 22.6038 24.3957C23.4521 24.436 24.137 24.5342 24.1329 24.6145C24.1291 24.6948 23.4382 24.7272 22.5899 24.6869C21.7416 24.6463 21.057 24.5484 21.0608 24.4681Z" fill="#CD8D54"/>
<path d="M20.7383 23.8828L22.9602 17.6133C23.1695 17.0228 23.8173 16.714 24.4081 16.923L25.9876 17.483C26.5781 17.6923 26.8872 18.3401 26.6779 18.9309L26.286 20.0364C26.286 20.0364 26.1107 18.3505 24.7503 18.4657C22.5932 18.6489 20.7383 23.8828 20.7383 23.8828Z" fill="#E8C682"/>
<path d="M14.2098 20.8312L20.7191 17.841C21.2885 17.5794 21.9615 17.8287 22.2231 18.3981L22.9228 19.9209C23.1843 20.4903 22.9351 21.1633 22.3656 21.4249L16.9964 23.8913C16.7339 24.0119 16.4239 23.9464 16.2318 23.7314L14.0455 21.275C13.9684 21.1076 14.042 20.908 14.2098 20.8312Z" fill="#FFEAA1"/>
<path d="M14.4803 21.2568C14.5407 21.2036 15.0453 21.6763 15.6077 22.3128C16.1699 22.9493 16.5769 23.5086 16.5168 23.5618C16.4563 23.615 15.9518 23.1422 15.3893 22.5058C14.8271 21.869 14.4201 21.31 14.4803 21.2568Z" fill="#CD8D54"/>
<path d="M14.675 20.6172L20.7191 17.8407C21.2885 17.5791 21.9615 17.8284 22.2231 18.3978L22.9228 19.9207C23.1844 20.4901 22.9351 21.163 22.3657 21.4246L21.2999 21.9141C21.2999 21.9141 22.3864 20.6132 21.3559 19.7183C19.721 18.2993 14.675 20.6172 14.675 20.6172Z" fill="#E8C682"/>
<path d="M20.3564 14.03L18.2774 20.8849C18.0954 21.4845 17.4625 21.8229 16.8628 21.641L15.2591 21.1547C14.6595 20.9727 14.3211 20.3397 14.5031 19.7401L16.2179 14.0857C16.3016 13.8094 16.5566 13.6208 16.8446 13.6195L20.1332 13.6123C20.3098 13.6658 20.4102 13.8534 20.3564 14.03Z" fill="#FFEAA1"/>
<path d="M19.8588 13.95C19.8588 14.0306 19.1701 14.0948 18.3206 14.0933C17.4713 14.092 16.7826 14.0256 16.783 13.945C16.783 13.8644 17.4717 13.8002 18.3212 13.8018C19.1704 13.8034 19.8588 13.8695 19.8588 13.95Z" fill="#CD8D54"/>
<path d="M20.2078 14.5198L18.2774 20.8846C18.0954 21.4842 17.4625 21.8226 16.8628 21.6407L15.2591 21.1544C14.6595 20.9724 14.3211 20.3394 14.5031 19.7398L14.8433 18.6174C14.8433 18.6174 15.0964 20.2935 16.4495 20.1156C18.5962 19.8339 20.2078 14.5198 20.2078 14.5198Z" fill="#E8C682"/>
<path d="M19.9276 14.5297L21.4932 7.53945C21.6301 6.92786 22.2363 6.54385 22.8476 6.68077L24.4828 7.04716C25.0944 7.18408 25.4787 7.79031 25.3415 8.40158L24.05 14.1674C23.9867 14.4491 23.7469 14.6562 23.4595 14.6789L20.1806 14.9298C20.0009 14.8892 19.8873 14.7098 19.9276 14.5297Z" fill="#FFEAA1"/>
<path d="M20.4302 14.5721C20.4242 14.4918 21.1063 14.3769 21.9537 14.3152C22.8007 14.2535 23.4922 14.2689 23.4982 14.3489C23.5042 14.4292 22.8221 14.544 21.9748 14.6057C21.1274 14.6677 20.4362 14.6523 20.4302 14.5721Z" fill="#CD8D54"/>
<path d="M20.0396 14.0301L21.4931 7.53969C21.63 6.92811 22.2363 6.5441 22.8476 6.68102L24.4828 7.0474C25.0943 7.18432 25.4787 7.79056 25.3414 8.40183L25.0852 9.54631C25.0852 9.54631 24.7087 7.89349 23.3723 8.17142C21.2533 8.61115 20.0396 14.0301 20.0396 14.0301Z" fill="#E8C682"/>
<path d="M26.0442 15.4393L23.521 8.73518C23.3004 8.14877 23.5966 7.49501 24.183 7.27436L25.7514 6.68386C26.3378 6.46322 26.9916 6.75941 27.2123 7.34581L29.2935 12.8759C29.3951 13.1463 29.308 13.451 29.0801 13.6272L26.4754 15.6348C26.3026 15.6996 26.109 15.6121 26.0442 15.4393Z" fill="#FFEAA1"/>
<path d="M26.4876 15.1994C26.4388 15.1355 26.9459 14.6653 27.6208 14.1494C28.2953 13.6335 28.882 13.2671 28.9308 13.331C28.9796 13.3949 28.4725 13.8651 27.7977 14.381C27.1231 14.8969 26.5364 15.2633 26.4876 15.1994Z" fill="#CD8D54"/>
<path d="M25.8638 14.9603L23.521 8.73518C23.3004 8.14877 23.5966 7.49501 24.183 7.27436L25.7514 6.68386C26.3378 6.46322 26.9916 6.75941 27.2123 7.34581L27.6255 8.44339C27.6255 8.44339 26.4046 7.26744 25.4392 8.2325C23.9079 9.76319 25.8638 14.9603 25.8638 14.9603Z" fill="#E8C682"/>
<path d="M30.0113 3.61546L28.4961 10.6167C28.3635 11.2293 27.7601 11.618 27.1476 11.4852L25.5096 11.1308C24.8971 10.9982 24.5086 10.3948 24.6412 9.7823L25.8911 4.00734C25.9521 3.72531 26.1907 3.51631 26.4778 3.49176L29.7548 3.21729C29.9352 3.25632 30.0504 3.4351 30.0113 3.61546Z" fill="#FFEAA1"/>
<path d="M29.5085 3.57652C29.5148 3.65679 28.8337 3.77671 27.987 3.84438C27.1403 3.91206 26.4487 3.90198 26.4424 3.82172C26.4361 3.74145 27.1173 3.62153 27.9637 3.55386C28.8104 3.48618 29.5019 3.49626 29.5085 3.57652Z" fill="#CD8D54"/>
<path d="M29.9028 4.11597L28.4958 10.6168C28.3633 11.2293 27.7599 11.618 27.1474 11.4852L25.5093 11.1308C24.8968 10.9983 24.5084 10.3949 24.6409 9.78234L24.889 8.63597C24.889 8.63597 25.2774 10.286 26.6116 9.99858C28.7281 9.54344 29.9028 4.11597 29.9028 4.11597Z" fill="#E8C682"/>
<path d="M19.5467 4.02751L26.2503 6.55222C26.8367 6.77319 27.1325 7.42695 26.9119 8.01335L26.3211 9.5815C26.1001 10.1679 25.4464 10.4638 24.86 10.2431L19.3305 8.16035C19.0604 8.05868 18.8889 7.79207 18.9065 7.50438L19.1152 4.22234C19.1804 4.05016 19.3743 3.96266 19.5467 4.02751Z" fill="#FFEAA1"/>
<path d="M19.4339 4.51907C19.5142 4.52443 19.5331 5.21596 19.4758 6.06331C19.4188 6.91065 19.3074 7.59337 19.2271 7.58802C19.1468 7.58267 19.128 6.89113 19.1852 6.04379C19.2422 5.19613 19.3536 4.51372 19.4339 4.51907Z" fill="#CD8D54"/>
<path d="M20.0254 4.20825L26.2498 6.55261C26.8362 6.77357 27.1321 7.42734 26.9115 8.01375L26.3207 9.5819C26.0997 10.1683 25.4459 10.4642 24.8595 10.2435L23.7619 9.83024C23.7619 9.83024 25.451 9.68797 25.3625 8.32568C25.2221 6.16545 20.0254 4.20825 20.0254 4.20825Z" fill="#E8C682"/>
<path d="M23.5756 0.717739L21.4966 7.57266C21.3147 8.17228 20.6817 8.51065 20.0821 8.32872L18.4784 7.84241C17.8787 7.66048 17.5404 7.02749 17.7223 6.42786L19.4371 0.773452C19.5208 0.49709 19.7758 0.308546 20.0638 0.307287L23.3525 0.300049C23.529 0.353559 23.6291 0.540842 23.5756 0.717739Z" fill="#FFEAA1"/>
<path d="M23.0781 0.637784C23.0781 0.718363 22.3894 0.782576 21.5398 0.781002C20.6906 0.779743 20.0019 0.713328 20.0022 0.632748C20.0022 0.552169 20.6909 0.487956 21.5404 0.48953C22.3897 0.491104 23.0781 0.557205 23.0781 0.637784Z" fill="#CD8D54"/>
<path d="M23.4271 1.20752L21.4966 7.57267C21.3147 8.17229 20.6817 8.51066 20.0821 8.32872L18.4784 7.84242C17.8787 7.66048 17.5404 7.02749 17.7223 6.42787L18.0625 5.30542C18.0625 5.30542 18.3153 6.98154 19.6688 6.80338C21.8155 6.52136 23.4271 1.20752 23.4271 1.20752Z" fill="#E8C682"/>
<path d="M16.1547 20.0574L15.8003 12.9029C15.7692 12.2771 15.2372 11.7952 14.6115 11.8264L12.9375 11.9092C12.3118 11.94 11.8299 12.4723 11.861 13.098L12.1532 18.9995C12.1673 19.2878 12.3688 19.5327 12.648 19.6039L15.8365 20.4087C16.0213 20.3996 16.1639 20.2419 16.1547 20.0574Z" fill="#FFEAA1"/>
<path d="M15.6526 20.0145C15.6722 19.9364 15.0196 19.707 14.1953 19.5024C13.3709 19.2978 12.6869 19.1952 12.6674 19.2732C12.6479 19.3513 13.3007 19.5807 14.1248 19.7853C14.9491 19.9899 15.6331 20.0925 15.6526 20.0145Z" fill="#CD8D54"/>
<path d="M16.1293 19.5462L15.8003 12.9031C15.7692 12.2774 15.2372 11.7955 14.6115 11.8266L12.9375 11.9094C12.3118 11.9403 11.8299 12.4725 11.861 13.0983L11.919 14.2695C11.919 14.2695 12.5708 12.7048 13.8406 13.2056C15.8548 14.0001 16.1293 19.5462 16.1293 19.5462Z" fill="#E8C682"/>
<path d="M9.9728 19.9143L13.5992 13.7367C13.9165 13.1963 13.7358 12.5016 13.1953 12.1846L11.75 11.3363C11.2095 11.0191 10.5151 11.1997 10.1979 11.7402L7.20666 16.8356C7.06061 17.0846 7.0946 17.3996 7.28912 17.6124L9.5145 20.0336C9.67346 20.1267 9.87931 20.0732 9.9728 19.9143Z" fill="#FFEAA1"/>
<path d="M9.57654 19.6023C9.63571 19.5475 9.21551 18.9979 8.63855 18.375C8.06159 17.7521 7.54569 17.291 7.48651 17.3457C7.42734 17.4005 7.84754 17.9501 8.4245 18.573C9.00146 19.1962 9.51736 19.657 9.57654 19.6023Z" fill="#CD8D54"/>
<path d="M10.2316 19.4727L13.599 13.7367C13.9163 13.1963 13.7356 12.5016 13.1951 12.1846L11.7497 11.3363C11.2093 11.0191 10.5149 11.1997 10.1976 11.7402L9.604 12.7515C9.604 12.7515 11.0072 11.8003 11.7944 12.9155C13.0428 14.6839 10.2316 19.4727 10.2316 19.4727Z" fill="#E8C682"/>
<path d="M12.2784 15.4393L11.0684 8.37885C10.9627 7.76129 10.3766 7.34675 9.75901 7.45251L8.10714 7.73548C7.48957 7.84124 7.07502 8.42733 7.18078 9.0449L8.1789 14.8686C8.22769 15.1532 8.45683 15.3723 8.74264 15.4094L12.0045 15.8258C12.1868 15.795 12.3095 15.6212 12.2784 15.4393Z" fill="#FFEAA1"/>
<path d="M11.7744 15.4566C11.7844 15.3767 11.1089 15.2275 10.266 15.123C9.42307 15.0185 8.73186 14.9987 8.72178 15.0786C8.71203 15.1586 9.38719 15.3078 10.2301 15.4123C11.0734 15.5168 11.7646 15.5366 11.7744 15.4566Z" fill="#CD8D54"/>
<path d="M12.1921 14.9347L11.0687 8.3791C10.9629 7.76154 10.3768 7.34699 9.75925 7.45275L8.10737 7.73572C7.4898 7.84149 7.07526 8.42758 7.18102 9.04514L7.37901 10.2013C7.37901 10.2013 7.83857 8.56954 9.15931 8.91452C11.2541 9.46158 12.1921 14.9347 12.1921 14.9347Z" fill="#E8C682"/>
<path d="M19.1443 13.0373L13.2381 8.98382C12.7216 8.6294 12.0159 8.76066 11.6615 9.27718L10.7131 10.659C10.3586 11.1755 10.4899 11.8812 11.0064 12.236L15.878 15.5794C16.116 15.7427 16.433 15.7311 16.6586 15.552L19.2309 13.5032C19.3354 13.3508 19.2964 13.1418 19.1443 13.0373Z" fill="#FFEAA1"/>
<path d="M18.8053 13.4106C18.755 13.3479 18.1771 13.7278 17.5148 14.2595C16.8526 14.7911 16.3565 15.273 16.4068 15.336C16.4572 15.3989 17.0351 15.0187 17.6974 14.4867C18.3596 13.9554 18.8557 13.4735 18.8053 13.4106Z" fill="#CD8D54"/>
<path d="M18.7222 12.7478L13.2381 8.98382C12.7216 8.6294 12.0159 8.76066 11.6615 9.27718L10.7131 10.659C10.3586 11.1755 10.4899 11.8812 11.0064 12.236L11.9734 12.8995C11.9734 12.8995 11.1238 11.4327 12.2916 10.726C14.1437 9.60548 18.7222 12.7478 18.7222 12.7478Z" fill="#E8C682"/>
<path d="M10.5833 0.498451L10.6075 7.66184C10.6097 8.28853 11.119 8.79436 11.7454 8.79215L13.4212 8.78648C14.0479 8.78428 14.5537 8.275 14.5515 7.64862L14.5317 1.73988C14.5307 1.45124 14.3409 1.19722 14.0652 1.1135L10.9172 0.162598C10.7325 0.162912 10.5823 0.313685 10.5833 0.498451Z" fill="#FFEAA1"/>
<path d="M11.0826 0.564661C11.0597 0.641778 11.7008 0.90083 12.5151 1.14351C13.3291 1.38588 14.0077 1.51997 14.0307 1.44285C14.0537 1.36574 13.4125 1.10669 12.5985 0.864002C11.7842 0.62132 11.1056 0.487229 11.0826 0.564661Z" fill="#CD8D54"/>
<path d="M10.5847 1.01025L10.6074 7.66152C10.6096 8.28821 11.1189 8.79404 11.7453 8.79184L13.4211 8.78617C14.0477 8.78396 14.5536 8.27468 14.5514 7.6483L14.5473 6.47549C14.5473 6.47549 13.824 8.00839 12.5784 7.44968C10.6036 6.56331 10.5847 1.01025 10.5847 1.01025Z" fill="#E8C682"/>
<path d="M16.7521 0.926479L12.845 6.93028C12.5031 7.4553 12.6517 8.15754 13.177 8.49937L14.5815 9.41344C15.1069 9.75528 15.8088 9.60671 16.1506 9.08137L19.3735 4.1292C19.5309 3.88714 19.5113 3.57081 19.3269 3.34953L17.2155 0.828274C17.0606 0.727864 16.8529 0.77193 16.7521 0.926479Z" fill="#FFEAA1"/>
<path d="M17.1337 1.25601C17.0724 1.30795 17.4665 1.8761 18.0141 2.52546C18.5618 3.1745 19.056 3.6586 19.1174 3.60667C19.1788 3.55473 18.7847 2.98658 18.2367 2.33723C17.6893 1.68818 17.1951 1.20408 17.1337 1.25601Z" fill="#CD8D54"/>
<path d="M16.4729 1.35547L12.845 6.93024C12.5031 7.45527 12.6517 8.15751 13.177 8.49934L14.5815 9.41341C15.1069 9.75524 15.8088 9.60668 16.1506 9.08134L16.7902 8.09833C16.7902 8.09833 15.3448 8.98376 14.6095 7.83361C13.444 6.00987 16.4729 1.35547 16.4729 1.35547Z" fill="#E8C682"/>
<path d="M14.2426 5.2903L15.1258 12.3989C15.2033 13.0206 15.7692 13.4619 16.3912 13.3844L18.0544 13.178C18.676 13.1005 19.1173 12.5346 19.0399 11.9126L18.3112 6.0492C18.2757 5.76276 18.0566 5.5333 17.773 5.48326L14.5335 4.91699C14.3506 4.93934 14.2196 5.10711 14.2426 5.2903Z" fill="#FFEAA1"/>
<path d="M14.7463 5.29624C14.7328 5.37556 15.4004 5.55591 16.2376 5.69913C17.0749 5.84235 17.7646 5.89397 17.7781 5.81465C17.7916 5.73533 17.124 5.55497 16.2868 5.41207C15.4498 5.26854 14.7601 5.21691 14.7463 5.29624Z" fill="#CD8D54"/>
<path d="M14.3054 5.79834L15.1257 12.3989C15.2031 13.0206 15.7691 13.4619 16.391 13.3845L18.0543 13.178C18.6759 13.1005 19.1172 12.5346 19.0398 11.9126L18.8953 10.7486C18.8953 10.7486 18.3612 12.3574 17.0577 11.952C14.9904 11.3089 14.3054 5.79834 14.3054 5.79834Z" fill="#E8C682"/>
<path d="M7.27387 7.37343L12.9868 11.6948C13.4867 12.0728 14.1974 11.9743 14.5754 11.4745L15.5865 10.138C15.9645 9.63815 15.866 8.92742 15.3661 8.54938L10.6538 4.985C10.4234 4.81094 10.1064 4.80811 9.87287 4.97651L7.20902 6.90474C7.09728 7.05142 7.12656 7.262 7.27387 7.37343Z" fill="#FFEAA1"/>
<path d="M7.62974 7.01585C7.67727 7.081 8.27185 6.72784 8.95804 6.22705C9.64422 5.72658 10.162 5.26797 10.1145 5.20281C10.067 5.13766 9.47236 5.49082 8.78618 5.99161C8.1 6.4924 7.58221 6.95101 7.62974 7.01585Z" fill="#CD8D54"/>
<path d="M7.68237 7.68237L12.9871 11.695C13.4869 12.073 14.1977 11.9745 14.5757 11.4746L15.5867 10.1382C15.9647 9.63831 15.8662 8.92758 15.3664 8.54955L14.4309 7.84196C14.4309 7.84196 15.2121 9.34621 14.0129 9.9984C12.1111 11.0321 7.68237 7.68237 7.68237 7.68237Z" fill="#E8C682"/>
<path d="M12.0165 27.8733L8.64164 21.5547C8.3464 21.002 8.55508 20.3152 9.10749 20.0199L10.5856 19.2305C11.1383 18.9353 11.8252 19.1439 12.1204 19.6964L14.9042 24.9082C15.0402 25.1629 14.9932 25.4764 14.7905 25.681L12.4695 28.0108C12.3067 28.098 12.1034 28.0363 12.0165 27.8733Z" fill="#FFEAA1"/>
<path d="M12.4254 27.5782C12.3684 27.5212 12.8103 26.9889 13.4121 26.3896C14.014 25.7903 14.5478 25.3506 14.6045 25.4076C14.6611 25.4645 14.2195 25.9968 13.6177 26.5961C13.0158 27.1954 12.482 27.6351 12.4254 27.5782Z" fill="#CD8D54"/>
<path d="M11.7754 27.4221L8.64164 21.5552C8.3464 21.0025 8.55508 20.3157 9.10749 20.0204L10.5856 19.231C11.1383 18.9358 11.8252 19.1444 12.1204 19.6968L12.6728 20.7315C12.6728 20.7315 11.3093 19.7245 10.4777 20.8073C9.15911 22.5241 11.7754 27.4221 11.7754 27.4221Z" fill="#E8C682"/>
<path d="M17.378 26.461L11.0912 23.0273C10.5413 22.727 10.3393 22.0383 10.6395 21.4884L11.4428 20.0175C11.7431 19.4676 12.4318 19.2655 12.9817 19.5658L18.1674 22.3981C18.4208 22.5366 18.5536 22.8243 18.496 23.1066L17.8325 26.3276C17.7438 26.4897 17.5398 26.5495 17.378 26.461Z" fill="#FFEAA1"/>
<path d="M17.5581 25.9902C17.4794 25.9735 17.5568 25.2864 17.7315 24.4551C17.9062 23.6238 18.1115 22.9634 18.1902 22.9798C18.2688 22.9965 18.1911 23.6836 18.0167 24.5149C17.8423 25.3462 17.6368 26.0066 17.5581 25.9902Z" fill="#CD8D54"/>
<path d="M16.9288 26.2158L11.0915 23.0275C10.5416 22.7272 10.3395 22.0385 10.6398 21.4886L11.4431 20.0177C11.7434 19.4679 12.4321 19.2658 12.982 19.5661L14.0112 20.1282C14.0112 20.1282 12.3187 20.0338 12.2168 21.3952C12.0553 23.5538 16.9288 26.2158 16.9288 26.2158Z" fill="#E8C682"/>
<path d="M12.966 21.919L10.3733 15.2413C10.1467 14.6571 10.436 14.0005 11.0202 13.7736L12.5823 13.167C13.1665 12.9404 13.8231 13.2297 14.0501 13.8139L16.1886 19.3219C16.2931 19.591 16.209 19.8967 15.983 20.0755L13.3995 22.1101C13.2273 22.1768 13.0328 22.0912 12.966 21.919Z" fill="#FFEAA1"/>
<path d="M13.4074 21.6749C13.358 21.6116 13.8604 21.136 14.5295 20.6132C15.1987 20.0903 15.7817 19.7177 15.8311 19.7812C15.8808 19.8448 15.3781 20.3201 14.709 20.8429C14.0395 21.3658 13.4568 21.7384 13.4074 21.6749Z" fill="#CD8D54"/>
<path d="M12.7806 21.4419L10.3733 15.2413C10.1467 14.6571 10.436 14.0005 11.0202 13.7736L12.5823 13.167C13.1665 12.9404 13.8231 13.2297 14.0501 13.8139L14.4747 14.907C14.4747 14.907 13.2418 13.744 12.2862 14.7188C10.7709 16.2652 12.7806 21.4419 12.7806 21.4419Z" fill="#E8C682"/>
<path d="M5.8428 23.3893L8.82393 16.8759C9.08487 16.3061 9.75752 16.0559 10.3272 16.3165L11.851 17.014C12.4207 17.2747 12.671 17.9476 12.4103 18.5174L9.95141 23.8901C9.83117 24.1526 9.55355 24.3052 9.26775 24.2678L6.00805 23.8331C5.84028 23.7563 5.766 23.557 5.8428 23.3893Z" fill="#FFEAA1"/>
<path d="M6.32533 23.5354C6.33635 23.4558 7.02726 23.4848 7.86894 23.6C8.7103 23.7155 9.38389 23.8735 9.37287 23.9535C9.36185 24.0331 8.67095 24.0041 7.82927 23.8889C6.9876 23.7734 6.31431 23.6151 6.32533 23.5354Z" fill="#CD8D54"/>
<path d="M6.05566 22.9237L8.8237 16.8759C9.08463 16.3061 9.75728 16.0559 10.327 16.3165L11.8508 17.014C12.4205 17.2747 12.6707 17.9476 12.4101 18.5174L11.9219 19.5838C11.9219 19.5838 11.8964 17.8891 10.5313 17.8834C8.36666 17.8746 6.05566 22.9237 6.05566 22.9237Z" fill="#E8C682"/>
<path d="M6.73806 8.23276L10.4006 14.3889C10.7211 14.9275 10.5445 15.6231 10.0059 15.9435L8.56557 16.8003C8.02701 17.1207 7.33139 16.9442 7.01096 16.4056L3.98985 11.3275C3.84223 11.0795 3.87465 10.7641 4.06792 10.5504L6.27913 8.1163C6.43777 8.02187 6.64363 8.07444 6.73806 8.23276Z" fill="#FFEAA1"/>
<path d="M6.34369 8.54682C6.40318 8.60128 5.98643 9.15306 5.41294 9.77975C4.83944 10.4064 4.32637 10.8701 4.26688 10.816C4.20739 10.7615 4.62414 10.2097 5.19764 9.58302C5.77114 8.95633 6.2842 8.49237 6.34369 8.54682Z" fill="#CD8D54"/>
<path d="M6.99974 8.67285L10.4004 14.389C10.7209 14.9275 10.5443 15.6231 10.0057 15.9436L8.56537 16.8004C8.02681 17.1208 7.33119 16.9442 7.01076 16.4056L6.41113 15.3978C6.41113 15.3978 7.8197 16.3405 8.60063 15.2209C9.8389 13.4453 6.99974 8.67285 6.99974 8.67285Z" fill="#E8C682"/>
<path d="M1.66721 11.7722L8.10539 14.9125C8.6685 15.1873 8.90205 15.866 8.62758 16.4291L7.89291 17.9352C7.61813 18.4983 6.9395 18.7319 6.37639 18.4574L1.0657 15.8672C0.806331 15.7407 0.66028 15.4593 0.704661 15.1744L1.2193 11.9264C1.3002 11.7602 1.50133 11.6913 1.66721 11.7722Z" fill="#FFEAA1"/>
<path d="M1.50939 12.2509C1.58871 12.2638 1.54307 12.9538 1.40678 13.7923C1.2708 14.6308 1.09611 15.3 1.01648 15.2871C0.937157 15.2742 0.982794 14.5839 1.11909 13.7457C1.25538 12.9072 1.43007 12.238 1.50939 12.2509Z" fill="#CD8D54"/>
<path d="M2.12744 11.9966L8.10543 14.9126C8.66854 15.1873 8.90209 15.866 8.62762 16.4291L7.89296 17.9352C7.61817 18.4983 6.93954 18.7319 6.37643 18.4574L5.32229 17.9434C5.32229 17.9434 7.01729 17.9595 7.05632 16.595C7.11833 14.431 2.12744 11.9966 2.12744 11.9966Z" fill="#E8C682"/>
<path d="M38.2257 12.3118L32.1401 16.0905C31.6078 16.421 30.9091 16.2576 30.5783 15.7254L29.6941 14.3017C29.3636 13.7694 29.5269 13.0707 30.0592 12.7398L35.0787 9.62305C35.3239 9.47071 35.64 9.49715 35.8572 9.68632L38.3328 11.851C38.431 12.0074 38.3825 12.2142 38.2257 12.3118Z" fill="#FFEAA1"/>
<path d="M37.9045 11.923C37.8513 11.9835 37.2916 11.5771 36.6542 11.0159C36.0168 10.4544 35.5434 9.95042 35.5966 9.88999C35.6498 9.82955 36.2094 10.2359 36.8468 10.7975C37.4839 11.3587 37.9576 11.8629 37.9045 11.923Z" fill="#CD8D54"/>
<path d="M37.7907 12.5818L32.1401 16.0905C31.6078 16.421 30.9091 16.2576 30.5783 15.7254L29.6941 14.3017C29.3636 13.7694 29.5269 13.0707 30.0592 12.7399L31.0554 12.1213C31.0554 12.1213 30.1395 13.5475 31.2739 14.3071C33.0734 15.511 37.7907 12.5818 37.7907 12.5818Z" fill="#E8C682"/>
<path d="M6.06299 14.225L8.9607 20.7762C9.21409 21.349 8.95536 22.0185 8.38217 22.2722L6.84959 22.9502C6.27672 23.2036 5.60722 22.9449 5.35352 22.3717L2.96352 16.9682C2.84675 16.7041 2.91662 16.395 3.13412 16.2058L5.62139 14.0544C5.7901 13.9795 5.9884 14.056 6.06299 14.225Z" fill="#FFEAA1"/>
<path d="M5.63356 14.4893C5.68613 14.5504 5.20611 15.0483 4.56148 15.6017C3.91684 16.1551 3.35216 16.5539 3.29959 16.4928C3.24703 16.4317 3.72704 15.9338 4.37168 15.3804C5.01631 14.8271 5.581 14.4283 5.63356 14.4893Z" fill="#CD8D54"/>
<path d="M6.26984 14.6929L8.96044 20.7757C9.21382 21.3485 8.95509 22.018 8.38191 22.2717L6.84932 22.9497C6.27645 23.2031 5.60695 22.9444 5.35325 22.3712L4.87891 21.2985C4.87891 21.2985 6.16408 22.4036 7.07375 21.3854C8.51599 19.7713 6.26984 14.6929 6.26984 14.6929Z" fill="#E8C682"/>
<path d="M13.1109 12.428L10.4329 19.072C10.1987 19.653 9.53832 19.9341 8.95695 19.6999L7.40264 19.0736C6.82159 18.8394 6.54051 18.179 6.77469 17.5976L8.9837 12.1173C9.09167 11.8494 9.36204 11.6842 9.64911 11.7084L12.9255 11.9923C13.0964 12.0609 13.1798 12.2567 13.1109 12.428Z" fill="#FFEAA1"/>
<path d="M12.6222 12.3043C12.6149 12.3846 11.9234 12.3874 11.0773 12.3109C10.2312 12.2344 9.55166 12.1073 9.5589 12.027C9.56613 11.9467 10.2577 11.9439 11.1038 12.0204C11.9495 12.0972 12.6294 12.224 12.6222 12.3043Z" fill="#CD8D54"/>
<path d="M12.919 12.9026L10.4324 19.0716C10.1982 19.6527 9.53783 19.9338 8.95646 19.6996L7.40215 19.0732C6.8211 18.839 6.54002 18.1786 6.7742 17.5973L7.21267 16.5095C7.21267 16.5095 7.31623 18.2013 8.6801 18.144C10.8432 18.0531 12.919 12.9026 12.919 12.9026Z" fill="#E8C682"/>
<path d="M26.7988 22.3621L21.7699 17.2607C21.3301 16.8144 21.3352 16.0968 21.7812 15.657L22.9748 14.4804C23.4211 14.0404 24.1388 14.0458 24.5785 14.4918L28.7265 18.6995C28.9292 18.9051 28.9732 19.2192 28.8366 19.4729L27.2719 22.3653C27.141 22.495 26.9285 22.4934 26.7988 22.3621Z" fill="#FFEAA1"/>
<path d="M27.1066 21.9626C27.0361 21.9239 27.3086 21.2884 27.7156 20.5427C28.1226 19.797 28.5098 19.2242 28.5803 19.2626C28.6508 19.301 28.3782 19.9368 27.9712 20.6825C27.5645 21.4281 27.1774 22.0013 27.1066 21.9626Z" fill="#CD8D54"/>
<path d="M26.4394 21.9973L21.7699 17.2607C21.3301 16.8144 21.3352 16.0968 21.7812 15.657L22.9748 14.4804C23.4211 14.0404 24.1388 14.0458 24.5785 14.4918L25.4019 15.3268C25.4019 15.3268 23.8086 14.7483 23.3185 16.0225C22.541 18.0429 26.4394 21.9973 26.4394 21.9973Z" fill="#E8C682"/>
<path d="M30.8755 17.7126L23.8729 16.2036C23.2604 16.0717 22.8713 15.4686 23.0032 14.8561L23.3561 13.2177C23.488 12.6052 24.091 12.2158 24.7036 12.348L30.4798 13.5926C30.7621 13.6534 30.9711 13.892 30.996 14.179L31.2736 17.4557C31.2343 17.6361 31.0558 17.7516 30.8755 17.7126Z" fill="#FFEAA1"/>
<path d="M30.9136 17.2099C30.8333 17.2165 30.7128 16.5353 30.6445 15.6886C30.5762 14.8419 30.5856 14.1504 30.6659 14.1441C30.7462 14.1375 30.8667 14.8186 30.935 15.6653C31.0036 16.5117 30.9939 17.2033 30.9136 17.2099Z" fill="#CD8D54"/>
<path d="M30.375 17.6046L23.8729 16.2036C23.2604 16.0717 22.8713 15.4686 23.0032 14.8561L23.3561 13.2177C23.488 12.6052 24.091 12.2158 24.7036 12.348L25.8499 12.5951C25.8499 12.5951 24.2003 12.9848 24.4889 14.3191C24.9466 16.4352 30.375 17.6046 30.375 17.6046Z" fill="#E8C682"/>
<path d="M26.0207 16.3826L21.6398 10.7149C21.2567 10.2192 21.3477 9.5072 21.8434 9.12413L23.1692 8.09925C23.665 7.71619 24.377 7.80716 24.76 8.30291L28.3735 12.9778C28.5501 13.2063 28.5561 13.5233 28.3902 13.7587L26.49 16.4427C26.3442 16.5557 26.1337 16.5286 26.0207 16.3826Z" fill="#FFEAA1"/>
<path d="M26.3744 16.0232C26.3089 15.9766 26.6558 15.3782 27.1493 14.6867C27.6429 13.9951 28.0958 13.4726 28.1613 13.5195C28.2268 13.5661 27.8799 14.1645 27.3864 14.856C26.8931 15.5475 26.4402 16.0701 26.3744 16.0232Z" fill="#CD8D54"/>
<path d="M25.7077 15.9777L21.64 10.7152C21.257 10.2194 21.3479 9.50743 21.8437 9.12437L23.1695 8.0995C23.6652 7.71643 24.3772 7.8074 24.7603 8.30315L25.4776 9.23107C25.4776 9.23107 23.9652 8.46557 23.3259 9.67174C22.3117 11.5839 25.7077 15.9777 25.7077 15.9777Z" fill="#E8C682"/>
<path d="M19.6061 19.8137L20.6168 12.7221C20.7053 12.1017 21.2794 11.6711 21.8995 11.7592L23.5586 11.9956C24.179 12.0841 24.6099 12.6582 24.5214 13.2783L23.688 19.1279C23.6474 19.4137 23.4242 19.639 23.1396 19.684L19.8907 20.1921C19.7078 20.1663 19.5803 19.9963 19.6061 19.8137Z" fill="#FFEAA1"/>
<path d="M20.1105 19.8166C20.0982 19.737 20.7693 19.5686 21.6088 19.4408C22.4486 19.3127 23.1389 19.2733 23.1511 19.353C23.1634 19.4326 22.4923 19.6007 21.6529 19.7288C20.8131 19.8569 20.1228 19.8962 20.1105 19.8166Z" fill="#CD8D54"/>
<path d="M19.6785 19.3067L20.6168 12.7219C20.7052 12.1015 21.2794 11.6709 21.8994 11.759L23.5586 11.9954C24.179 12.0838 24.6099 12.658 24.5214 13.278L24.3558 14.4392C24.3558 14.4392 23.8507 12.8213 22.54 13.2031C20.4619 13.8094 19.6785 19.3067 19.6785 19.3067Z" fill="#E8C682"/>
<path d="M16.1644 5.02624L21.4232 9.89028C21.883 10.3158 21.9111 11.0329 21.4855 11.4931L20.3476 12.7232C19.9221 13.183 19.205 13.211 18.7449 12.7858L14.4071 8.77351C14.1953 8.57741 14.1367 8.26579 14.2614 8.00611L15.691 5.0445C15.8166 4.90947 16.0291 4.90097 16.1644 5.02624Z" fill="#FFEAA1"/>
<path d="M15.8752 5.43924C15.9476 5.4745 15.7046 6.12197 15.3323 6.88558C14.9602 7.6492 14.5998 8.23938 14.5274 8.20412C14.455 8.16887 14.698 7.5214 15.0704 6.75779C15.4427 5.99449 15.8031 5.40399 15.8752 5.43924Z" fill="#CD8D54"/>
<path d="M16.5403 5.37402L21.4232 9.89056C21.8831 10.3161 21.9111 11.0332 21.4855 11.4933L20.3477 12.7234C19.9221 13.1833 19.2051 13.2113 18.7449 12.7861L17.884 11.9897C17.884 11.9897 19.5022 12.4943 19.9334 11.199C20.6168 9.14457 16.5403 5.37402 16.5403 5.37402Z" fill="#E8C682"/>
<path d="M12.3064 9.85889L19.371 11.0433C19.9888 11.1469 20.4056 11.7314 20.302 12.3493L20.025 14.0021C19.9215 14.62 19.337 15.0367 18.7191 14.9332L12.8919 13.9562C12.607 13.9083 12.3873 13.6798 12.3492 13.3943L11.9211 10.1337C11.9514 9.95174 12.1245 9.82836 12.3064 9.85889Z" fill="#FFEAA1"/>
<path d="M12.2911 10.3627C12.3711 10.3526 12.5228 11.0271 12.6301 11.8697C12.7374 12.7124 12.7598 13.4036 12.6802 13.4137C12.6002 13.4237 12.4485 12.7492 12.3412 11.9066C12.2338 11.064 12.2115 10.373 12.2911 10.3627Z" fill="#CD8D54"/>
<path d="M12.8113 9.94336L19.3709 11.0431C19.9888 11.1467 20.4056 11.7312 20.302 12.3491L20.025 14.0019C19.9215 14.6198 19.337 15.0365 18.7191 14.933L17.5623 14.7391C17.5623 14.7391 19.1922 14.2736 18.8425 12.9541C18.2879 10.8615 12.8113 9.94336 12.8113 9.94336Z" fill="#E8C682"/>
<path d="M17.2174 10.9634L21.8548 16.423C22.2605 16.9005 22.2023 17.6159 21.7245 18.0217L20.4472 19.1066C19.9697 19.5124 19.2542 19.4541 18.8485 18.9763L15.0235 14.473C14.8365 14.253 14.8157 13.9367 14.9709 13.6937L16.7456 10.925C16.8863 10.8057 17.0981 10.823 17.2174 10.9634Z" fill="#FFEAA1"/>
<path d="M16.8812 11.3389C16.9489 11.3826 16.6297 11.9964 16.1689 12.7097C15.7078 13.4229 15.2794 13.9659 15.2117 13.9222C15.144 13.8784 15.4632 13.2646 15.924 12.5514C16.3848 11.8381 16.8135 11.2951 16.8812 11.3389Z" fill="#CD8D54"/>
<path d="M17.5488 11.3538L21.8548 16.4233C22.2605 16.9008 22.2023 17.6163 21.7245 18.022L20.4472 19.107C19.9697 19.5127 19.2542 19.4545 18.8485 18.9767L18.0893 18.0828C18.0893 18.0828 19.6354 18.7778 20.2186 17.5436C21.1437 15.5861 17.5488 11.3538 17.5488 11.3538Z" fill="#E8C682"/>
<path d="M23.4663 7.24068L22.7836 14.3713C22.7238 14.9952 22.1704 15.4519 21.5466 15.3921L19.8783 15.2322C19.2545 15.1724 18.7978 14.6187 18.8576 13.9952L19.4207 8.11353C19.448 7.82615 19.6605 7.5907 19.9429 7.53247L23.1651 6.87524C23.3486 6.89287 23.4839 7.05686 23.4663 7.24068Z" fill="#FFEAA1"/>
<path d="M22.9621 7.26077C22.9779 7.33977 22.3156 7.5387 21.4827 7.70553C20.6499 7.87235 19.9618 7.94318 19.9461 7.86449C19.9303 7.78548 20.5926 7.58655 21.4255 7.41972C22.2583 7.2529 22.9464 7.18176 22.9621 7.26077Z" fill="#CD8D54"/>
<path d="M23.4175 7.75024L22.7836 14.3713C22.7238 14.9952 22.1704 15.4519 21.5466 15.3921L19.8783 15.2322C19.2545 15.1724 18.7978 14.6187 18.8576 13.9951L18.9693 12.8277C18.9693 12.8277 19.5485 14.4207 20.8402 13.9788C22.8881 13.2778 23.4175 7.75024 23.4175 7.75024Z" fill="#E8C682"/>
<path d="M35.3544 24.6019L32.9845 17.8421C32.7771 17.2506 32.1303 16.9396 31.5392 17.1471L29.9578 17.7014C29.3663 17.9088 29.0554 18.5556 29.2628 19.1468L31.2175 24.7228C31.3128 24.9954 31.5757 25.1729 31.8634 25.1619L35.1492 25.0287C35.3232 24.9677 35.4155 24.7763 35.3544 24.6019Z" fill="#FFEAA1"/>
<path d="M34.8604 24.7031C34.8569 24.6225 34.166 24.5879 33.3174 24.6256C32.4688 24.6634 31.7839 24.7588 31.7874 24.8394C31.7908 24.9199 32.4817 24.9546 33.3303 24.9168C34.1789 24.8793 34.8642 24.7836 34.8604 24.7031Z" fill="#CD8D54"/>
<path d="M35.1851 24.1188L32.9845 17.8421C32.7771 17.2506 32.1303 16.9396 31.5392 17.1471L29.9578 17.7014C29.3663 17.9088 29.0554 18.5556 29.2628 19.1468L29.6509 20.2535C29.6509 20.2535 29.8322 18.5682 31.192 18.6881C33.3481 18.8786 35.1851 24.1188 35.1851 24.1188Z" fill="#E8C682"/>
<path d="M29.3852 26.2187L31.1098 19.2662C31.2606 18.6581 30.8901 18.0433 30.282 17.8922L28.6553 17.4887C28.0472 17.3379 27.4325 17.7081 27.2814 18.3165L25.859 24.0515C25.7894 24.3317 25.9115 24.6244 26.1586 24.773L28.9795 26.4633C29.1589 26.5073 29.3409 26.3978 29.3852 26.2187Z" fill="#FFEAA1"/>
<path d="M28.9172 26.0325C28.9585 25.9632 28.3998 25.5556 27.6695 25.1215C26.9393 24.6878 26.3138 24.3922 26.2729 24.4615C26.2317 24.5307 26.7904 24.9383 27.5206 25.3721C28.2509 25.8058 28.876 26.1014 28.9172 26.0325Z" fill="#CD8D54"/>
<path d="M29.5089 25.7217L31.1101 19.2659C31.2608 18.6578 30.8904 18.0431 30.2822 17.892L28.6556 17.4885C28.0474 17.3377 27.4327 17.7079 27.2816 18.3163L26.9993 19.4545C26.9993 19.4545 28.0748 18.1444 29.1463 18.9902C30.8457 20.332 29.5089 25.7217 29.5089 25.7217Z" fill="#E8C682"/>
<path d="M30.3262 21.2738L27.1628 14.847C26.8862 14.2848 26.2066 14.0535 25.6444 14.3305L24.1408 15.0705C23.5786 15.3471 23.3473 16.0267 23.624 16.5889L26.2333 21.8901C26.3608 22.1492 26.6429 22.294 26.9274 22.2486L30.1736 21.7224C30.3394 21.6405 30.4077 21.4394 30.3262 21.2738Z" fill="#FFEAA1"/>
<path d="M29.8482 21.4335C29.835 21.3541 29.1451 21.4023 28.3072 21.5414C27.4693 21.6805 26.8007 21.8578 26.8139 21.9371C26.8271 22.0164 27.5171 21.9679 28.355 21.8291C29.1929 21.69 29.8615 21.5128 29.8482 21.4335Z" fill="#CD8D54"/>
<path d="M30.1002 20.8141L27.1628 14.8465C26.8862 14.2843 26.2066 14.053 25.6444 14.33L24.1408 15.07C23.5786 15.3466 23.3473 16.0262 23.624 16.5884L24.1421 17.6406C24.1421 17.6406 24.1197 15.9456 25.4842 15.9019C27.6479 15.832 30.1002 20.8141 30.1002 20.8141Z" fill="#E8C682"/>
<path d="M36.2286 17.0222L29.4153 14.8109C28.8194 14.6174 28.1798 14.9435 27.9865 15.5396L27.4694 17.1336C27.2758 17.7294 27.6019 18.369 28.1981 18.5623L33.8182 20.3863C34.0926 20.4754 34.3932 20.3744 34.5588 20.1386L36.4439 17.4443C36.5009 17.2686 36.4043 17.0791 36.2286 17.0222Z" fill="#FFEAA1"/>
<path d="M36.0098 17.4764C35.9437 17.4305 35.4974 17.9589 35.0133 18.6568C34.5292 19.3546 34.1902 19.9574 34.2563 20.0033C34.3224 20.0493 34.7687 19.5208 35.2528 18.823C35.7369 18.1251 36.0759 17.5224 36.0098 17.4764Z" fill="#CD8D54"/>
<path d="M35.7417 16.8641L29.4153 14.8109C28.8194 14.6174 28.1798 14.9435 27.9865 15.5396L27.4694 17.1336C27.2758 17.7294 27.6019 18.369 28.1981 18.5623L29.3136 18.9243C29.3136 18.9243 28.0826 17.759 29.002 16.7499C30.46 15.1503 35.7417 16.8641 35.7417 16.8641Z" fill="#E8C682"/>
<path d="M24.4621 7.42756L26.5178 14.2897C26.6975 14.89 27.3293 15.2305 27.9295 15.0505L29.5348 14.5695C30.1351 14.3898 30.4756 13.7578 30.2959 13.1575L28.6003 7.49744C28.5175 7.22076 28.2635 7.03127 27.9751 7.02907L24.6868 7.0105C24.5099 7.06338 24.4092 7.25067 24.4621 7.42756Z" fill="#FFEAA1"/>
<path d="M24.9602 7.34923C24.9602 7.42981 25.6486 7.49622 26.4978 7.4978C27.3474 7.49937 28.0358 7.43547 28.0361 7.3549C28.0364 7.27432 27.3477 7.2079 26.4985 7.20633C25.6492 7.20475 24.9605 7.26896 24.9602 7.34923Z" fill="#CD8D54"/>
<path d="M24.6091 7.91797L26.5179 14.2894C26.6976 14.8897 27.3293 15.2302 27.9296 15.0502L29.5349 14.5692C30.1351 14.3895 30.4757 13.7575 30.296 13.1572L29.9595 12.0338C29.9595 12.0338 29.7008 13.709 28.3479 13.5264C26.2025 13.2372 24.6091 7.91797 24.6091 7.91797Z" fill="#E8C682"/>
<path d="M29.2058 4.51731L28.14 11.6011C28.0468 12.2205 28.4733 12.7981 29.0928 12.8913L30.75 13.1406C31.3698 13.2337 31.947 12.8075 32.0402 12.1878L32.9193 6.34483C32.9625 6.05933 32.8133 5.77951 32.5536 5.65455L29.5866 4.23591C29.4044 4.20853 29.2331 4.33475 29.2058 4.51731Z" fill="#FFEAA1"/>
<path d="M29.6896 4.65892C29.6553 4.73163 30.2496 5.08542 31.0173 5.44866C31.785 5.8119 32.4353 6.04797 32.4696 5.97526C32.5039 5.90255 31.9097 5.54876 31.142 5.18552C30.3746 4.82197 29.7243 4.58621 29.6896 4.65892Z" fill="#CD8D54"/>
<path d="M29.1296 5.02344L28.14 11.6007C28.0468 12.2202 28.4733 12.7978 29.0928 12.8909L30.75 13.1402C31.3698 13.2334 31.947 12.8072 32.0402 12.1875L32.2146 11.0279C32.2146 11.0279 31.2665 12.433 30.1205 11.6911C28.3036 10.5148 29.1296 5.02344 29.1296 5.02344Z" fill="#E8C682"/>
<path d="M31.3785 6.06153L27.9828 12.3688C27.6857 12.9205 27.8921 13.608 28.4436 13.9048L29.9192 14.6993C30.471 14.9964 31.1584 14.7899 31.4553 14.2385L34.2563 9.03573C34.3933 8.7814 34.3473 8.4679 34.1452 8.26268L31.832 5.92524C31.6696 5.83805 31.466 5.89911 31.3785 6.06153Z" fill="#FFEAA1"/>
<path d="M31.7862 6.35841C31.7292 6.41538 32.1693 6.94891 32.7689 7.55042C33.3685 8.15193 33.9011 8.59323 33.9581 8.53657C34.0151 8.4796 33.575 7.94608 32.9754 7.34456C32.3758 6.74337 31.8432 6.30175 31.7862 6.35841Z" fill="#CD8D54"/>
<path d="M31.1358 6.51245L27.9828 12.3689C27.6857 12.9207 27.8921 13.6082 28.4436 13.905L29.9192 14.6995C30.471 14.9966 31.1584 14.7901 31.4553 14.2386L32.0111 13.2059C32.0111 13.2059 30.6441 14.2081 29.8163 13.1228C28.5034 11.4017 31.1358 6.51245 31.1358 6.51245Z" fill="#E8C682"/>
<path d="M29.331 10.9841L32.195 17.5501C32.4456 18.1245 33.1135 18.3867 33.6879 18.1362L35.224 17.466C35.7984 17.2155 36.0606 16.5475 35.8101 15.9731L33.4478 10.5573C33.3322 10.2926 33.0574 10.1349 32.771 10.1673L29.5041 10.5434C29.3347 10.6171 29.257 10.8151 29.331 10.9841Z" fill="#FFEAA1"/>
<path d="M29.816 10.847C29.8255 10.927 30.517 10.9103 31.3602 10.8099C32.2038 10.7095 32.8796 10.5634 32.8702 10.4834C32.8607 10.4035 32.1692 10.4202 31.3259 10.5203C30.4827 10.621 29.8066 10.7671 29.816 10.847Z" fill="#CD8D54"/>
<path d="M29.5356 11.4534L32.1948 17.55C32.4453 18.1245 33.1132 18.3867 33.6877 18.1361L35.2237 17.466C35.7982 17.2154 36.0604 16.5475 35.8098 15.9731L35.3408 14.8981C35.3408 14.8981 35.2851 16.5922 33.92 16.5733C31.7557 16.5431 29.5356 11.4534 29.5356 11.4534Z" fill="#E8C682"/>
<path d="M23.239 14.9588L29.9435 17.4817C30.5299 17.7023 31.1837 17.4061 31.4043 16.8197L31.9945 15.2512C32.2152 14.6648 31.919 14.0111 31.3326 13.7904L25.8025 11.7095C25.5321 11.6079 25.2274 11.695 25.0511 11.9229L23.0436 14.5276C22.9787 14.7001 23.0666 14.8937 23.239 14.9588Z" fill="#FFEAA1"/>
<path d="M23.4789 14.5154C23.5428 14.5641 24.0131 14.0567 24.529 13.3822C25.0449 12.7077 25.4112 12.121 25.3474 12.0718C25.2835 12.0231 24.8132 12.5301 24.2973 13.205C23.7814 13.8799 23.415 14.4663 23.4789 14.5154Z" fill="#CD8D54"/>
<path d="M23.7185 15.1394L29.9436 17.4819C30.53 17.7025 31.1837 17.4063 31.4044 16.8199L31.9946 15.2515C32.2152 14.6651 31.919 14.0113 31.3326 13.7907L30.2351 13.3777C30.2351 13.3777 31.411 14.5987 30.4459 15.564C28.9156 17.095 23.7185 15.1394 23.7185 15.1394Z" fill="#E8C682"/>
<path d="M26.8935 11.6098C27.0694 14.0536 26.6542 15.2132 23.5063 17.1927C20.3568 19.1716 20.4666 20.5512 19.5255 22.0077C18.5853 23.4653 16.5293 23.4162 15.2205 21.8594C13.9126 20.302 11.4335 21.3142 10.1638 19.9636C9.58683 19.3504 9.5371 18.663 9.64884 17.9198C9.64978 17.9192 9.64915 17.9183 9.6501 17.9176C9.78324 17.0246 10.1493 16.0504 10.115 15.0212C10.052 13.1348 10.0489 10.8701 13.2145 9.88927C16.3801 8.90815 16.4358 8.54995 18.9107 6.80679C20.4462 5.72526 21.7741 6.1077 22.5585 6.55403C22.5585 6.55403 22.5585 6.55404 22.5601 6.55435C22.5601 6.55435 22.5607 6.55529 22.5617 6.55466C22.7565 6.66546 22.918 6.78004 23.0401 6.8773C23.2708 7.05955 23.5044 7.23676 23.7458 7.40484C24.6653 8.04696 26.7553 9.70733 26.8935 11.6098Z" fill="#DE4C1D"/>
<path d="M26.8935 11.6099C27.0694 14.0537 26.6542 15.2133 23.5063 17.1928C20.3568 19.1717 20.4666 20.5513 19.5255 22.0078C18.5853 23.4654 16.5293 23.4163 15.2205 21.8595C13.9126 20.302 11.4335 21.3143 10.1638 19.9637C9.58683 19.3505 9.5371 18.6631 9.64884 17.9199C9.64978 17.9193 9.64915 17.9183 9.6501 17.9177C9.6501 17.9177 10.0933 19.7311 12.5472 19.5781C15.7999 19.3754 15.0895 20.3763 17.1081 21.0581C18.4871 21.5236 18.4688 18.4427 20.7288 16.952C22.9895 15.4626 26.2951 12.9863 25.7556 10.7128C25.2211 8.46443 22.6196 6.59851 22.5601 6.55444C22.5601 6.55444 22.5607 6.55539 22.5617 6.55476C22.7565 6.66555 22.918 6.78013 23.0401 6.87739C23.2708 7.05964 23.5044 7.23685 23.7458 7.40493C24.6653 8.04705 26.7553 9.70742 26.8935 11.6099Z" fill="#CC361D"/>
<path d="M24.8699 11.8699C24.9345 12.1132 24.7897 12.3625 24.5464 12.4271C24.303 12.4916 24.0538 12.3468 23.9892 12.1035C23.9247 11.8602 24.0695 11.6109 24.3128 11.5464C24.5558 11.4818 24.8054 11.6266 24.8699 11.8699Z" fill="#CC361D"/>
<path d="M23.6327 11.9499C23.6695 12.089 23.5867 12.2319 23.4473 12.2687C23.3082 12.3056 23.1653 12.2228 23.1281 12.0833C23.0913 11.9442 23.1741 11.8013 23.3135 11.7645C23.453 11.728 23.5956 11.8107 23.6327 11.9499Z" fill="#CC361D"/>
<path d="M23.9318 12.5006C23.9545 12.5856 23.9038 12.6728 23.8188 12.6951C23.7338 12.7175 23.6467 12.6671 23.6243 12.5821C23.6016 12.4971 23.6523 12.41 23.7373 12.3876C23.822 12.3653 23.9092 12.4159 23.9318 12.5006Z" fill="#CC361D"/>
<path d="M14.7132 11.8866C14.5999 11.6619 14.6902 11.388 14.915 11.2747C15.1397 11.1614 15.4135 11.2517 15.5269 11.4765C15.6402 11.7012 15.5498 11.9751 15.3251 12.0884C15.1004 12.2017 14.8262 12.1114 14.7132 11.8866Z" fill="#CC361D"/>
<path d="M15.9074 11.5531C15.8425 11.4244 15.8942 11.2676 16.0229 11.2028C16.1516 11.138 16.3084 11.1896 16.3732 11.3183C16.4381 11.4471 16.3865 11.6038 16.2577 11.6686C16.129 11.7335 15.9722 11.6816 15.9074 11.5531Z" fill="#CC361D"/>
<path d="M15.5012 11.0758C15.4616 10.9974 15.4933 10.9017 15.5717 10.8621C15.6501 10.8224 15.7458 10.8542 15.7855 10.9326C15.8251 11.0109 15.7936 11.1066 15.7149 11.1463C15.6366 11.1859 15.5409 11.1542 15.5012 11.0758Z" fill="#CC361D"/>
<path d="M17.0856 18.807C16.8404 18.8627 16.5962 18.7091 16.5405 18.4636C16.4848 18.2181 16.6384 17.9741 16.8839 17.9184C17.1291 17.8627 17.3733 18.0163 17.429 18.2618C17.4848 18.507 17.3308 18.7509 17.0856 18.807Z" fill="#CC361D"/>
<path d="M17.0502 17.5675C16.9098 17.5993 16.7701 17.5114 16.7379 17.3707C16.7062 17.2304 16.794 17.0906 16.9347 17.0585C17.0751 17.0267 17.2148 17.1145 17.2469 17.2552C17.2787 17.3959 17.1906 17.5357 17.0502 17.5675Z" fill="#CC361D"/>
<path d="M16.4886 17.8466C16.403 17.8661 16.3177 17.8123 16.2982 17.7267C16.2787 17.641 16.3325 17.5557 16.4181 17.5362C16.5037 17.5167 16.589 17.5705 16.6086 17.6561C16.6281 17.7418 16.5746 17.8271 16.4886 17.8466Z" fill="#CC361D"/>
<path d="M20.3662 7.22964C20.5217 7.42762 20.4871 7.71375 20.2894 7.86924C20.0914 8.02473 19.805 7.99011 19.6498 7.79244C19.4943 7.59445 19.5289 7.30802 19.7266 7.15284C19.9243 6.99734 20.2107 7.03165 20.3662 7.22964Z" fill="#CC361D"/>
<path d="M19.2614 7.79206C19.3504 7.90538 19.3306 8.06937 19.2173 8.15845C19.104 8.24753 18.94 8.2277 18.8509 8.11438C18.7618 8.00107 18.7817 7.83708 18.895 7.748C19.0083 7.65923 19.1723 7.67875 19.2614 7.79206Z" fill="#CC361D"/>
<path d="M19.7536 8.17981C19.8078 8.24906 19.7958 8.34883 19.7269 8.40329C19.6579 8.45774 19.5578 8.44547 19.5034 8.37654C19.4493 8.30729 19.4612 8.20751 19.5301 8.15305C19.5994 8.09891 19.6995 8.11088 19.7536 8.17981Z" fill="#CC361D"/>
<path d="M10.5082 17.2911C10.6426 17.0783 10.924 17.015 11.1368 17.1494C11.3496 17.2838 11.4129 17.5652 11.2784 17.778C11.144 17.9908 10.8627 18.054 10.6499 17.9196C10.4374 17.7849 10.3738 17.5035 10.5082 17.2911Z" fill="#CC361D"/>
<path d="M11.4081 18.1435C11.4852 18.0217 11.6461 17.9855 11.7679 18.0623C11.8897 18.1394 11.9259 18.3002 11.8491 18.422C11.772 18.5439 11.6111 18.5801 11.4893 18.5033C11.3675 18.4265 11.331 18.2653 11.4081 18.1435Z" fill="#CC361D"/>
<path d="M11.6088 17.5498C11.6557 17.4755 11.7543 17.4531 11.8286 17.5004C11.9028 17.5476 11.9249 17.6458 11.878 17.7201C11.8311 17.7943 11.7329 17.8164 11.6586 17.7695C11.584 17.7223 11.5619 17.6241 11.6088 17.5498Z" fill="#CC361D"/>
<path d="M18.3118 14.1777C17.324 17.0612 12.0583 15.2592 12.0583 15.2592C15.996 12.3218 18.3118 14.1777 18.3118 14.1777Z" fill="#36CD40"/>
<path d="M18.3118 14.1777C17.324 17.0613 12.0583 15.2593 12.0583 15.2593L18.3118 14.1777Z" fill="#36AE40"/>
<path d="M18.4502 14.0834C21.4732 14.2558 21.7898 8.73584 21.7898 8.73584C17.6113 11.2574 18.4502 14.0834 18.4502 14.0834Z" fill="#36CD40"/>
<path d="M18.45 14.0834C21.4729 14.2558 21.7896 8.73584 21.7896 8.73584L18.45 14.0834Z" fill="#36AE40"/>
</svg>
