<svg width="92" height="70" viewBox="0 0 92 70" fill="none" xmlns="http://www.w3.org/2000/svg">
<rect width="92" height="70" rx="12" fill="#DCE2EA"/>
<path d="M46.6847 64.9999C50.7692 64.9999 54.0803 63.671 54.0803 62.0317C54.0803 60.3924 50.7692 59.0635 46.6847 59.0635C42.6002 59.0635 39.2891 60.3924 39.2891 62.0317C39.2891 63.671 42.6002 64.9999 46.6847 64.9999Z" fill="#F2F2F2"/>
<path d="M43.4846 11.3488C43.5535 12.2886 43.9086 12.736 43.2438 13.5039C42.5791 14.2717 41.8684 14.3859 40.5848 14.5584C39.3013 14.7309 38.4988 15.2232 37.9942 16.5757C37.4902 17.9282 37.8111 18.2031 37.4672 19.8312C37.1233 21.4587 37.1693 23.2009 37.1693 24.5081C37.1693 25.8146 36.4586 27.1212 36.6647 28.9094C36.8708 30.6976 37.5131 34.7781 37.5131 34.7781H38.9115C38.9115 34.7781 39.8512 28.5885 39.8512 27.763C39.8512 26.9375 39.4614 26.2498 39.6681 25.2871C39.8742 24.3244 40.3099 23.5448 40.516 22.1005C40.722 20.6561 40.7002 20.4108 40.7002 20.4108C40.7002 20.4108 41.0558 21.9649 41.5246 24.4392C41.8516 26.168 41.8634 28.5874 41.5246 30.2849C41.1348 32.2372 39.9201 34.0444 40.6537 39.0881C41.3873 44.1312 41.7312 43.9711 41.697 44.8078C41.6629 45.6445 41.1701 47.1577 41.3532 49.0142C41.5363 50.8713 42.9694 55.0206 43.1643 56.2813C43.3592 57.5419 43.367 58.2683 43.1985 58.2683C43.0299 58.2683 42.6866 58.1305 42.6485 58.5662C42.6278 58.8015 42.8367 59.7524 42.7717 60.6227C42.7163 61.3625 42.3842 62.0144 42.3735 62.4255C42.3506 63.3193 43.474 63.5259 44.1617 63.5948C44.8494 63.6637 45.7891 63.205 45.8121 62.1964C45.835 61.1878 45.5371 61.073 45.6519 60.4082C45.7667 59.7434 46.0982 58.6105 45.5601 58.2532C44.8539 57.7844 45.2336 56.2819 45.3052 52.8662C45.3769 49.4505 45.4229 49.2898 45.0331 47.9373C44.6433 46.5848 44.5744 45.7822 44.827 44.4068C45.079 43.0313 45.4229 40.6013 45.4917 39.0881C45.5606 37.5749 45.8137 36.7729 45.8137 36.7729C45.8137 36.7729 46.0876 37.1856 46.3855 39.1799C46.6835 41.1742 47.0273 42.8247 47.4401 44.1777C47.8528 45.5302 47.5089 47.2266 47.4401 48.3041C47.3712 49.3816 47.5549 50.9632 48.0129 53.0034C48.4716 55.0436 48.5858 57.7486 48.4335 57.9323C48.2806 58.116 48.0975 58.2683 48.0975 58.7578C48.0975 59.2467 48.1434 60.2553 48.3114 60.8518C48.4794 61.4477 47.8836 62.1051 48.2655 62.6551C48.6475 63.205 49.1671 63.5719 50.0839 63.3428C51.0007 63.1138 51.2146 62.808 51.1384 62.2272C51.0617 61.6465 50.7565 60.9587 50.8327 60.4088C50.9088 59.8588 51.1171 58.5018 50.7862 58.4078C50.6221 58.3613 50.206 58.4223 50.2827 57.8416C50.3589 57.2608 51.2611 51.6828 51.3832 49.6807C51.5052 47.6785 50.6187 45.1875 50.5426 44.087C50.4664 42.9865 51.0466 40.8315 51.2454 38.8753C51.4442 36.9191 50.6338 32.7317 50.1147 30.7755C49.595 28.8192 49.5452 25.5794 49.7899 24.2801C50.0346 22.9808 50.4171 20.2915 50.4171 20.2915C50.4171 20.2915 50.3897 21.2694 50.6344 22.171C50.8791 23.0727 51.5668 24.5702 51.75 25.3039C51.9331 26.0375 51.5209 27.9327 51.9488 29.2471C52.3766 30.5615 52.8202 35.8645 52.8202 35.8645L54.1956 35.8186C54.1956 35.8186 54.3485 32.8078 54.7612 29.904C55.1739 27.0002 54.8071 26.5113 54.3333 24.9062C53.8596 23.3017 54.2723 21.8955 53.7375 19.7102C53.2027 17.5249 53.015 16.7302 52.7703 15.8896C52.5256 15.049 51.284 14.2543 50.0307 14.2084C48.7774 14.1625 46.8319 14.0376 46.5418 13.3039C46.2517 12.5703 46.2035 11.9162 46.2646 10.9994C46.3234 10.0803 43.4846 11.3488 43.4846 11.3488Z" fill="#FFD1A3"/>
<path d="M50.8364 60.4071C50.9467 59.7497 51.1046 58.3748 50.8235 58.181C50.707 58.1877 50.6079 58.1933 50.5133 58.1956C50.4752 58.2012 50.4382 58.2028 50.4057 58.1961C50.2433 58.1944 50.0664 58.181 49.7852 58.1429C49.1569 58.0578 48.8366 57.8013 48.8366 58.3249C48.8366 58.8486 48.7492 59.4937 48.6097 59.0227C48.5112 58.6901 48.5252 58.1927 48.4193 57.9536C48.2704 58.1278 48.1018 58.2874 48.1018 58.7573C48.1018 59.2462 48.1477 60.2548 48.3157 60.8513C48.4837 61.4471 47.8879 62.1046 48.2698 62.6546C48.6517 63.2045 49.1714 63.5714 50.0882 63.3423C51.005 63.1133 51.2189 62.8075 51.1427 62.2267C51.0654 61.6454 50.744 60.9549 50.8364 60.4071Z" fill="#C9C9C9"/>
<path d="M51.1439 62.595C50.8482 62.8694 50.6292 63.033 50.3391 63.0615C49.9902 63.0962 50.095 62.7737 49.5713 62.9658C49.0477 63.1579 48.341 62.7479 48.2889 62.4948C48.2368 62.2416 48.5768 61.583 48.4199 60.883C48.271 60.2177 48.1203 59.4812 48.1091 59.064C48.1243 59.5938 48.1791 60.3599 48.3175 60.8505C48.4855 61.4464 47.8896 62.1039 48.2715 62.6538C48.6535 63.2038 49.1732 63.5706 50.0899 63.3415C50.7894 63.1662 51.0789 62.9467 51.1439 62.595Z" fill="#2D2D3D"/>
<path d="M48.1023 58.8254C48.1029 58.877 48.1034 58.9296 48.1045 58.9895C48.1051 58.9408 48.1045 58.8854 48.1023 58.8254Z" fill="#2D2D3D"/>
<path d="M45.8151 62.1956C45.8381 61.1869 45.5401 61.0721 45.6549 60.4074C45.7697 59.7426 46.1013 58.6096 45.5631 58.2523C45.525 58.2271 45.4908 58.1969 45.4589 58.1655C45.3374 58.8695 45.4634 59.588 45.2288 59.7146C44.9493 59.8658 45.1587 58.6326 45.054 58.3655C44.9728 58.1583 44.144 58.3139 43.4249 58.2686C43.4176 58.2719 43.2093 58.2675 43.2015 58.2675C43.0335 58.2675 42.6896 58.1297 42.6515 58.5654C42.6308 58.8006 42.8397 59.7516 42.7747 60.6219C42.7193 61.3617 42.3872 62.0136 42.3766 62.4246C42.3536 63.3184 43.477 63.5251 44.1647 63.594C44.8524 63.6629 45.7921 63.2042 45.8151 62.1956Z" fill="#C9C9C9"/>
<path d="M44.166 63.5944C44.8537 63.6633 45.7934 63.2046 45.8164 62.196C45.8393 61.1874 45.5414 61.0726 45.6562 60.4078C45.7083 60.1043 45.8057 59.7033 45.8449 59.323C45.6931 59.7861 45.4859 60.3199 45.5795 60.8838C45.7189 61.7267 45.5722 62.9666 44.9399 63.1391C44.3077 63.3116 44.3233 62.7516 43.7068 63.0305C43.1675 63.2746 43.0465 63.1005 42.3862 62.5701C42.482 63.3418 43.5169 63.5295 44.166 63.5944Z" fill="#2D2D3D"/>
<path d="M49.6557 26.8303H41.7695C41.8053 28.04 41.728 29.2867 41.5292 30.2846C41.1394 32.2369 39.9248 34.0442 40.6584 39.0879C40.879 40.6061 41.0644 41.6506 41.215 42.3949H45.1509C45.3122 41.2474 45.4538 40.0013 45.4953 39.0879C45.5642 37.5747 45.8173 36.7727 45.8173 36.7727C45.8173 36.7727 46.0911 37.1854 46.3891 39.1797C46.5655 40.3597 46.7581 41.416 46.9715 42.3647L50.7253 42.2067C50.8944 41.1886 51.1347 39.9991 51.2489 38.8745C51.4477 36.9183 50.6374 32.7309 50.1182 30.7747C49.8254 29.6736 49.682 28.1683 49.6557 26.8303Z" fill="#2D2D3D"/>
<path d="M50.1186 30.7735C49.5989 28.8173 49.5491 25.5774 49.7938 24.2782C50.0385 22.9789 50.421 20.4816 50.421 20.4816C50.421 20.4816 49.7098 19.3621 49.2556 17.9839C48.9325 17.0021 49.0882 15.1999 49.2758 14.1336C48.8104 14.0961 48.3271 14.0418 47.8965 13.9578C47.5756 15.5707 47.3364 17.7459 45.4161 17.8271C43.614 17.9032 42.7874 16.1173 42.3735 14.1627C42.0398 14.3117 41.6573 14.3985 41.1908 14.4713C41.5251 15.7096 41.6573 17.4266 41.5777 18.246C41.4495 19.5721 40.7898 20.7902 40.7898 20.7902C40.7898 20.7902 41.1969 22.6815 41.5296 24.4389C41.8566 26.1677 41.8684 28.5871 41.5296 30.2846C41.44 30.732 41.3072 31.1728 41.1644 31.646H50.3342C50.2592 31.3246 50.1864 31.0294 50.1186 30.7735Z" fill="#5D5D5D"/>
<path d="M42.5651 10.1308C42.4715 9.46944 42.4631 8.87523 42.35 8.15222C42.2369 7.42921 42.2531 6.48947 42.8775 5.96304C43.502 5.4366 44.258 5.1157 44.8897 5.15266C45.5214 5.18907 45.8871 4.91577 45.8608 5.02665C45.8345 5.13754 45.7437 5.51669 45.8921 5.42428C46.0405 5.33188 45.9313 5.24283 46.031 5.43436C46.1307 5.62589 46.4914 5.80679 46.5692 5.82695C46.647 5.84711 46.7557 5.88183 47.0508 6.33938C47.346 6.79693 47.4944 7.4477 47.4636 8.02061C47.4328 8.59297 47.1505 9.71642 47.1438 9.89563C47.1365 10.0732 42.5651 10.1308 42.5651 10.1308Z" fill="#3D311E"/>
<path d="M45.764 13.0969C45.8127 13.0376 46.0457 12.7211 46.301 12.3588L46.231 11.7383L43.6252 12.291C43.6252 12.291 43.6639 12.361 43.6409 12.6455C43.7843 12.8136 43.9248 12.9692 44.0492 13.0964C44.4977 13.5545 45.4223 13.5119 45.764 13.0969Z" fill="#636363"/>
<path d="M42.5723 7.72074C42.5846 8.73721 42.467 10.4795 42.7033 11.0098C42.9396 11.5402 43.6021 12.3579 44.0507 12.8165C44.4993 13.2752 45.4239 13.2326 45.7655 12.8177C45.8708 12.69 46.829 11.3716 47.0233 10.9645C47.2171 10.5573 47.1997 8.14021 47.2115 7.46704C47.2232 6.79388 46.5075 5.99359 45.8926 5.60436C45.2777 5.21513 44.2182 5.43858 43.5153 5.92918C42.8125 6.41977 42.565 7.14166 42.5723 7.72074Z" fill="#FFD1A3"/>
<path d="M42.5538 8.97156C42.6294 8.29671 42.6199 7.49082 42.9543 7.19512C43.288 6.89998 43.9001 6.63172 44.2854 6.45979C44.6707 6.28785 44.9429 5.98655 44.9384 6.06496C44.9339 6.14336 44.6007 6.28226 44.7855 6.28282C44.9703 6.28282 45.5886 5.79558 45.5253 5.93951C45.462 6.08288 45.2694 6.45867 45.6989 6.44075C46.1285 6.42283 46.1189 6.57235 46.3581 6.78909C46.5972 7.00582 46.04 6.71629 46.4376 7.05175C46.8352 7.38721 47.0984 7.73947 47.1376 8.22783C47.1768 8.71618 47.16 9.28462 47.16 9.28462C47.16 9.28462 47.4294 7.89237 47.2972 7.21976C47.1651 6.54716 46.3653 5.8107 46.0097 5.57492C45.6547 5.33915 45.0958 5.19802 44.5307 5.29939C43.9662 5.40076 43.1357 5.77934 42.8243 6.26153C42.513 6.74372 42.4441 7.24776 42.4676 7.78652C42.4917 8.32528 42.5538 8.97156 42.5538 8.97156Z" fill="#3D311E"/>
<path d="M47.2117 8.86578C47.359 8.67817 47.606 9.02987 47.5051 9.51486C47.4043 9.99986 47.2996 10.1231 47.1854 10.1309C47.0717 10.1388 47.2117 8.86578 47.2117 8.86578Z" fill="#FFD1A3"/>
<path d="M42.4791 8.77716C42.3318 8.58955 42.0848 8.94125 42.1856 9.42624C42.2864 9.91123 42.3911 10.0344 42.5054 10.0423C42.6196 10.0501 42.4791 8.77716 42.4791 8.77716Z" fill="#FFD1A3"/>
<path d="M38.4335 40.5657C40.3297 40.5657 41.867 39.0284 41.867 37.1321C41.867 35.2357 40.3297 33.6985 38.4335 33.6985C36.5372 33.6985 35 35.2357 35 37.1321C35 39.0284 36.5372 40.5657 38.4335 40.5657Z" fill="#B8B8B6"/>
<path d="M41.8651 37.1331C41.8651 35.4367 40.6336 34.0316 39.0173 33.7527C40.073 34.5339 40.8441 35.463 41.1326 36.4392C41.5279 37.7771 40.9959 38.6379 40.4247 39.2657C39.8535 39.8941 38.4321 40.1612 38.4321 40.1612C38.4321 40.1612 39.4939 40.3074 40.2376 39.8705C40.9813 39.4337 41.2698 38.9515 41.2698 38.9515L41.0709 39.3284C41.566 38.7337 41.8651 37.9686 41.8651 37.1331Z" fill="#B3B3B3"/>
<path d="M38.4335 33.6985C36.5373 33.6985 35 35.2358 35 37.1321C35 39.0284 36.5373 40.5657 38.4335 40.5657C38.9717 40.5657 39.479 40.4385 39.9327 40.2173C38.3786 40.6794 36.7232 39.8421 35.9235 38.5725C35.121 37.299 35.462 35.4105 37.0575 34.6119C38.5701 33.8542 40.2306 34.2804 41.7914 36.4158C41.4621 34.8634 40.0844 33.6985 38.4335 33.6985Z" fill="#CCCCCC"/>
<path d="M53.7387 40.2141C55.6349 40.2141 57.1721 38.6768 57.1721 36.7805C57.1721 34.8842 55.6349 33.3469 53.7387 33.3469C51.8424 33.3469 50.3052 34.8842 50.3052 36.7805C50.3052 38.6768 51.8424 40.2141 53.7387 40.2141Z" fill="#B8B8B6"/>
<path d="M57.1726 36.7806C57.1726 35.1592 56.0475 33.804 54.5366 33.4438C55.6488 34.3242 56.4737 35.5552 56.64 36.4154C56.8495 37.4974 56.3147 38.7301 55.1336 39.1719C53.9531 39.6138 53.1511 39.4396 53.1511 39.4396C53.1511 39.4396 53.8136 39.905 54.7903 39.6608C55.7675 39.4167 56.2794 38.8701 56.2794 38.8701C56.2794 38.8701 56.1601 39.1053 55.9803 39.378C56.7095 38.7485 57.1726 37.8194 57.1726 36.7806Z" fill="#B3B3B3"/>
<path d="M53.7387 33.3469C51.8424 33.3469 50.3052 34.8842 50.3052 36.7805C50.3052 38.6768 51.8424 40.2141 53.7387 40.2141C54.2679 40.2141 54.7669 40.0909 55.2143 39.877C54.7372 39.9431 54.2175 39.9739 53.7387 39.8815C52.2916 39.6026 51.2426 38.5032 50.9811 37.1322C50.7196 35.7613 51.9757 34.0537 53.8775 34.0711C55.4389 34.0856 56.6076 35.4286 57.1626 36.9805C57.1665 36.9138 57.1727 36.8477 57.1727 36.78C57.1721 34.8842 55.6349 33.3469 53.7387 33.3469Z" fill="#CCCCCC"/>
<path d="M53.7386 37.3669C54.063 37.3669 54.326 37.1038 54.326 36.7794C54.326 36.4549 54.063 36.1919 53.7386 36.1919C53.4141 36.1919 53.1511 36.4549 53.1511 36.7794C53.1511 37.1038 53.4141 37.3669 53.7386 37.3669Z" fill="#B8B8B6"/>
<path d="M38.4334 37.7194C38.7579 37.7194 39.0209 37.4564 39.0209 37.1319C39.0209 36.8074 38.7579 36.5444 38.4334 36.5444C38.109 36.5444 37.8459 36.8074 37.8459 37.1319C37.8459 37.4564 38.109 37.7194 38.4334 37.7194Z" fill="#B8B8B6"/>
<path d="M53.7386 37.3669C54.063 37.3669 54.326 37.1038 54.326 36.7794C54.326 36.4549 54.063 36.1919 53.7386 36.1919C53.4141 36.1919 53.1511 36.4549 53.1511 36.7794C53.1511 37.1038 53.4141 37.3669 53.7386 37.3669Z" fill="#CCCCCC"/>
<path d="M53.7385 36.1919C53.5856 36.1919 53.4473 36.2518 53.3426 36.3476C53.7116 36.3168 54.0168 36.3745 54.0953 36.6875C54.1871 37.0538 53.9076 37.2896 53.5935 37.2806C53.4949 37.2778 53.393 37.2285 53.2983 37.1647C53.4059 37.2873 53.5621 37.3669 53.7385 37.3669C54.0633 37.3669 54.326 37.1036 54.326 36.7794C54.326 36.4551 54.0628 36.1919 53.7385 36.1919Z" fill="#B3B3B3"/>
<path d="M38.4334 37.7194C38.7579 37.7194 39.0209 37.4564 39.0209 37.1319C39.0209 36.8074 38.7579 36.5444 38.4334 36.5444C38.109 36.5444 37.8459 36.8074 37.8459 37.1319C37.8459 37.4564 38.109 37.7194 38.4334 37.7194Z" fill="#CCCCCC"/>
<path d="M39.0234 37.1319C39.0234 36.8071 38.7601 36.5444 38.4359 36.5444C38.3911 36.5444 38.3474 36.5506 38.3054 36.5601C38.6986 36.6648 38.8498 36.839 38.8279 37.1319C38.7988 37.5178 38.213 37.7267 37.9834 37.5027C38.0909 37.6343 38.2528 37.7194 38.4359 37.7194C38.7601 37.7194 39.0234 37.4567 39.0234 37.1319Z" fill="#B3B3B3"/>
</svg>
