<svg width="40" height="40" viewBox="0 0 40 40" fill="none" xmlns="http://www.w3.org/2000/svg">
<rect width="40" height="40" rx="20" fill="#C0ECCB" fill-opacity="0.4"/>
<path d="M27.5 9.2C27.5 8.45 26.9 8 26.3 8H26C23.45 8 21.5 10.85 21.5 15.05V16.4C21.5 17.9 22.25 19.25 23.6 20C23.15 21.8 23 23.75 23 23.75V29.75C23 30.95 24.05 32 25.25 32C26.45 32 27.5 30.95 27.5 29.75V23.75C27.5 23.15 27.35 21.65 27.05 20.3C27.35 20 27.5 19.7 27.5 19.25V9.2ZM18.8 8H18.5V13.25C18.5 13.7 18.2 14 17.75 14C17.3 14 17 13.7 17 13.25V8.75C17 8.3 16.7 8 16.25 8C15.8 8 15.5 8.3 15.5 8.75V13.25C15.5 13.7 15.2 14 14.75 14C14.3 14 14 13.7 14 13.25V8H13.7C13.1 8 12.5 8.6 12.5 9.2V14.75C12.5 16.25 13.4 17.6 14.75 18.2C14.15 20.6 14 23.75 14 23.75V29.75C14 30.95 15.05 32 16.25 32C17.45 32 18.5 30.95 18.5 29.75V23.75C18.5 23 18.35 20.3 17.9 18.2C19.1 17.6 20 16.25 20 14.75V9.2C20 8.6 19.4 8 18.8 8Z" fill="#57BE92"/>
</svg>
