<svg width="40" height="40" viewBox="0 0 40 40" fill="none" xmlns="http://www.w3.org/2000/svg">
<rect width="40" height="40" rx="20" fill="#FFDCBC"/>
<path d="M26.4799 18.5669C26.2171 18.2169 25.8972 17.9136 25.6001 17.6102C24.8345 16.9102 23.9661 16.4085 23.2348 15.6735C21.5323 13.9701 21.1552 11.1584 22.2407 9C21.1552 9.26834 20.2068 9.87503 19.3955 10.54C16.4361 12.9668 15.2706 17.2486 16.6646 20.9237C16.7103 21.0403 16.756 21.157 16.756 21.3087C16.756 21.5654 16.5846 21.7987 16.3561 21.892C16.0933 22.0087 15.819 21.9387 15.6019 21.752C15.5371 21.6966 15.4828 21.6293 15.4419 21.5537C14.1508 19.8853 13.9451 17.4936 14.8135 15.5802C12.9053 17.1669 11.8655 19.8503 12.014 22.382C12.0826 22.9654 12.1511 23.5487 12.3454 24.1321C12.5053 24.8321 12.8139 25.5321 13.1567 26.1505C14.3907 28.1689 16.5275 29.6156 18.8242 29.9073C21.2695 30.2223 23.8861 29.7673 25.7601 28.0405C27.8511 26.1038 28.5824 23.0004 27.5083 20.3403L27.3598 20.037C27.1198 19.5003 26.4799 18.5669 26.4799 18.5669ZM22.8692 25.9171C22.5492 26.1972 22.0236 26.5005 21.6122 26.6172C20.3325 27.0838 19.0527 26.4305 18.2986 25.6605C19.6583 25.3338 20.4696 24.3071 20.7096 23.2687C20.9038 22.3354 20.5382 21.5654 20.3896 20.667C20.2525 19.8036 20.2753 19.0686 20.5839 18.2636C20.801 18.7069 21.0295 19.1503 21.3037 19.5003C22.1836 20.667 23.5662 21.1803 23.8633 22.7671C23.909 22.9304 23.9318 23.0937 23.9318 23.2687C23.9661 24.2254 23.5547 25.2755 22.8692 25.9171Z" fill="#FF8D28"/>
</svg>
