<svg width="20" height="20" viewBox="0 0 20 20" fill="none" xmlns="http://www.w3.org/2000/svg">
<path d="M3.33325 5.99992V13.9999C3.33325 14.9333 3.33325 15.3999 3.51492 15.7566C3.67471 16.0702 3.92966 16.3251 4.24325 16.4849C4.59909 16.6666 5.06575 16.6666 5.99742 16.6666H14.0024C14.9341 16.6666 15.3999 16.6666 15.7558 16.4849C16.0699 16.3249 16.3249 16.0699 16.4849 15.7566C16.6666 15.3999 16.6666 14.9349 16.6666 14.0033V5.99742C16.6666 5.06575 16.6666 4.59909 16.4849 4.24325C16.3249 3.92954 16.0697 3.67456 15.7558 3.51492C15.3999 3.33325 14.9333 3.33325 13.9999 3.33325H5.99992C5.06659 3.33325 4.59992 3.33325 4.24325 3.51492C3.92966 3.67471 3.67471 3.92966 3.51492 4.24325C3.33325 4.59992 3.33325 5.06659 3.33325 5.99992Z" stroke="#222326" stroke-width="1.8" stroke-linecap="round" stroke-linejoin="round" style="mix-blend-mode:luminosity"/>
</svg>
