<svg width="66" height="62" viewBox="0 0 66 62" fill="none" xmlns="http://www.w3.org/2000/svg">
<path d="M54.0181 38.3245C57.8055 26.3535 51.2326 13.5592 39.3372 9.74763C27.4417 5.93606 14.7282 12.5506 10.9408 24.5216C7.15333 36.4926 13.7262 49.2869 25.6217 53.0985C37.5171 56.9101 50.2306 50.2955 54.0181 38.3245Z" fill="#F4F3DF"/>
<path d="M32.4756 52.8143C44.2124 52.8143 53.727 43.2392 53.727 31.4277C53.727 19.6161 44.2124 10.041 32.4756 10.041C20.7387 10.041 11.2241 19.6161 11.2241 31.4277C11.2241 43.2392 20.7387 52.8143 32.4756 52.8143Z" stroke="#DD7F73" stroke-width="0.5" stroke-miterlimit="10"/>
<path d="M49.5636 31.4278C49.5636 21.9299 41.9129 14.2305 32.4753 14.2305C23.0375 14.2305 15.3867 21.9299 15.3867 31.4278C15.3867 40.9254 23.0375 48.6248 32.4753 48.6248C41.9129 48.6248 49.5636 40.9254 49.5636 31.4278Z" fill="#D6D3B9"/>
<path d="M48.8256 31.4277C48.8256 22.3402 41.5056 14.9734 32.4755 14.9734C23.4455 14.9734 16.1255 22.3402 16.1255 31.4277C16.1255 40.5149 23.4455 47.8818 32.4755 47.8818C41.5056 47.8818 48.8256 40.5149 48.8256 31.4277Z" fill="#E8E6CF"/>
<path d="M31.126 24.4376C31.126 24.4376 32.9961 16.4076 34.7411 16.1571C36.4865 15.9064 37.0473 18.2901 37.7954 18.6038C38.5435 18.9175 41.5353 17.5615 42.5951 18.5217C43.6549 19.4819 44.2157 24.9106 39.4786 26.5247C34.7414 28.1387 31.126 24.4376 31.126 24.4376Z" fill="#719F5C"/>
<mask id="mask0_3418_28819" style="mask-type:luminance" maskUnits="userSpaceOnUse" x="31" y="16" width="13" height="11">
<path d="M31.126 24.4376C31.126 24.4376 32.9961 16.4076 34.7411 16.1571C36.4865 15.9064 37.0473 18.2901 37.7954 18.6038C38.5435 18.9175 41.5353 17.5615 42.5951 18.5217C43.6549 19.4819 44.2157 24.9106 39.4786 26.5247C34.7414 28.1387 31.126 24.4376 31.126 24.4376Z" fill="white"/>
</mask>
<g mask="url(#mask0_3418_28819)">
<path opacity="0.2" d="M28.0571 24.787C28.1541 25.2025 28.6754 25.3283 29.0992 25.3441C31.4024 25.429 33.6853 24.6353 35.6151 23.3674C37.5449 22.0994 39.145 20.376 40.5193 18.514C41.1808 17.6176 41.9603 16.59 43.0694 16.5542C43.1319 16.9268 42.8917 17.276 42.6607 17.5742C41.4151 19.1814 40.0627 20.7049 38.615 22.1305C37.9191 22.8159 37.1665 23.5374 36.9479 24.4925C39.9727 22.6667 42.8157 20.5354 45.4204 18.1414C45.0678 19.3058 44.3049 20.2928 43.545 21.2397C42.9671 21.9598 42.3776 22.678 41.6794 23.2805C40.7138 24.1132 39.5669 24.7013 38.4135 25.24C37.1861 25.8135 35.913 26.3469 34.5663 26.4811C33.2195 26.6154 31.7723 26.3006 30.7902 25.3636" fill="#719F5C"/>
</g>
<path d="M26.0462 28.8524C26.0462 28.8524 23.4791 23.0945 22.6104 22.8838C21.7416 22.6731 21.0386 23.9097 20.827 24.3777C20.6154 24.8456 18.6004 23.402 17.8825 23.9845C17.1644 24.5669 18.2741 26.1214 18.0552 26.4701C17.836 26.8187 15.7888 27.8601 15.8112 28.6333C15.8465 29.8572 20.0085 31.3239 26.0462 28.8524Z" fill="#9EE96A"/>
<path d="M44.0303 33.7346C44.0303 33.7346 48.0182 28.8641 47.8203 27.9871C47.6224 27.1101 46.2092 27.025 45.6988 27.0416C45.1884 27.0582 45.5794 24.6008 44.7422 24.2116C43.905 23.8223 43.0131 25.513 42.6056 25.4702C42.198 25.4273 40.8098 25.8998 40.1315 26.2631C39.0571 26.8382 39.1499 29.3865 44.0303 33.7346Z" fill="#9EE96A"/>
<path d="M30.3159 27.4688C30.3159 27.4688 16.7898 28.7573 15.9172 30.9673C15.0444 33.1773 18.6598 32.1108 19.0337 33.3026C19.4077 34.4943 15.6055 37.3173 19.1585 39.0108C22.7114 40.7044 32.2678 33.9152 33.0994 32.0406C33.9313 30.1662 30.3159 27.4688 30.3159 27.4688Z" fill="#719F5C"/>
<path d="M32.1836 26.1478C32.1836 26.1478 32.812 17.1946 30.1504 16.2655C27.8683 15.4686 26.6538 18.6738 25.4597 19.0481C24.4541 19.3632 21.5637 17.1949 19.7413 19.6805C18.3208 21.6183 19.1547 23.26 20.1811 24.6339C21.312 26.1481 17.5419 27.6487 18.9243 29.5457C20.3066 31.4429 27.5961 30.9901 29.1169 30.1149C30.4744 29.3335 32.1836 26.1478 32.1836 26.1478Z" fill="#71BA5C"/>
<mask id="mask1_3418_28819" style="mask-type:luminance" maskUnits="userSpaceOnUse" x="18" y="16" width="15" height="15">
<path d="M32.1836 26.1478C32.1836 26.1478 32.812 17.1946 30.1504 16.2655C27.8683 15.4686 26.6538 18.6738 25.4597 19.0481C24.4541 19.3632 21.5637 17.1949 19.7413 19.6805C18.3208 21.6183 19.1547 23.26 20.1811 24.6339C21.312 26.1481 17.5419 27.6487 18.9243 29.5457C20.3066 31.4429 27.5961 30.9901 29.1169 30.1149C30.4744 29.3335 32.1836 26.1478 32.1836 26.1478Z" fill="white"/>
</mask>
<g mask="url(#mask1_3418_28819)">
<path opacity="0.2" d="M20.7278 29.3961C20.2928 29.2156 19.8048 28.9065 19.8101 28.4329C22.5723 28.5987 25.3189 29.0309 27.9993 29.7219C29.1002 30.0057 30.2811 30.3304 31.3454 29.9293C29.3932 28.9795 27.432 28.0244 25.6479 26.7844C23.8636 25.5445 22.2489 23.9973 21.2012 22.0868C22.0347 22.3229 22.6957 22.9429 23.3712 23.4882C26.0546 25.6528 29.4145 26.8727 31.9906 29.166C30.0216 26.1571 28.1672 22.7697 28.4508 19.1781C28.4682 18.9572 28.5307 18.6904 28.742 18.6292C28.9307 18.5745 29.1143 18.7243 29.2398 18.876C29.7973 19.5496 29.9907 20.444 30.2307 21.2866C30.9485 23.8061 32.2179 26.1252 33.4912 28.4114C34.1297 29.5581 34.1793 30.9405 32.6252 31.2807C31.6587 31.4922 30.315 30.8731 29.334 30.7619C26.4557 30.4359 23.4522 30.5264 20.7278 29.3961Z" fill="#719F5C"/>
</g>
<path d="M31.8765 36.176C31.8765 36.176 26.0512 40.6598 26.0459 41.7117C26.0406 42.7635 27.6276 43.2374 28.2137 43.3545C28.7995 43.4715 27.7066 46.1667 28.5581 46.8332C29.4094 47.4998 30.8705 45.8119 31.3235 45.9695C31.7764 46.1272 33.5033 48.1931 34.3719 47.9604C35.7464 47.5917 36.2904 42.4304 31.8765 36.176Z" fill="#9EE96A"/>
<path d="M33.2456 35.6326C33.2456 35.6326 39.6034 44.7579 41.3487 44.2561C43.0941 43.7542 44.1539 41.9352 43.7797 41.5586C43.4058 41.1823 40.7254 38.7356 40.7254 38.7356C40.7254 38.7356 46.8962 40.4729 47.8312 38.4753C48.7663 36.4774 49.2024 28.95 43.9666 29.7029C38.7308 30.4554 33.2456 35.6326 33.2456 35.6326Z" fill="#719F5C"/>
<mask id="mask2_3418_28819" style="mask-type:luminance" maskUnits="userSpaceOnUse" x="33" y="29" width="16" height="16">
<path d="M33.2456 35.6326C33.2456 35.6326 39.6034 44.7579 41.3487 44.2561C43.0941 43.7542 44.1539 41.9352 43.7797 41.5586C43.4058 41.1823 40.7254 38.7356 40.7254 38.7356C40.7254 38.7356 46.8962 40.4729 47.8312 38.4753C48.7663 36.4774 49.2024 28.95 43.9666 29.7029C38.7308 30.4554 33.2456 35.6326 33.2456 35.6326Z" fill="white"/>
</mask>
<g mask="url(#mask2_3418_28819)">
<path opacity="0.2" d="M30.8448 33.3867C37.0579 35.5141 43.8224 34.7274 50.3803 34.9824C50.5709 34.9897 50.7707 35.0007 50.9338 35.1003C51.097 35.1999 51.2049 35.4188 51.118 35.5894C51.0275 35.7668 50.7945 35.8007 50.5969 35.812C44.9774 36.1378 39.3022 36.0974 33.7696 35.0546C36.251 36.9575 37.8592 39.9248 40.5752 41.4689C40.3384 41.5916 40.0564 41.5702 39.791 41.5456C37.9184 41.3727 35.9592 41.1699 34.3932 40.1226C33.211 39.3317 32.3692 38.1331 31.5556 36.9625C31.1676 36.4043 30.7621 35.7846 30.8164 35.1057" fill="#719F5C"/>
</g>
<path d="M29.2564 33.3025C30.224 34.9718 41.3489 34.9896 42.7204 33.2365C44.0918 31.4834 44.4657 25.5204 43.1568 24.4246C41.8478 23.3287 39.4791 26.1926 38.1702 25.5447C36.8612 24.8968 32.149 21.7742 30.2041 24.8096C28.2592 27.845 27.9475 31.0442 29.2564 33.3025Z" fill="#94D373"/>
<path d="M32.5334 31.7362C31.9507 31.5497 17.4132 36.3926 17.2263 39.4664C17.0393 42.5401 21.2156 41.1393 22.8985 42.2473C24.5813 43.3556 22.3376 47.1192 25.3919 47.1819C28.4462 47.2445 29.4617 42.77 31.1667 42.2473C32.8717 41.7243 33.3703 47.9973 36.5494 46.8682C39.7284 45.7393 35.6233 32.7254 32.5334 31.7362Z" fill="#94D373"/>
<mask id="mask3_3418_28819" style="mask-type:luminance" maskUnits="userSpaceOnUse" x="17" y="31" width="21" height="17">
<path d="M32.5334 31.7362C31.9507 31.5497 17.4132 36.3926 17.2263 39.4664C17.0393 42.5401 21.2156 41.1393 22.8985 42.2473C24.5813 43.3556 22.3376 47.1192 25.3919 47.1819C28.4462 47.2445 29.4617 42.77 31.1667 42.2473C32.8717 41.7243 33.3703 47.9973 36.5494 46.8682C39.7284 45.7393 35.6233 32.7254 32.5334 31.7362Z" fill="white"/>
</mask>
<g mask="url(#mask3_3418_28819)">
<path opacity="0.2" d="M20.708 38.5829C21.7882 38.6337 22.8079 38.1155 23.743 37.5691C26.8079 35.7785 29.6063 33.5265 32.0162 30.9114C32.5922 30.2863 33.1682 29.6237 33.9348 29.261C32.8893 31.8352 31.2398 34.1098 29.9586 36.5737C28.6575 39.0754 27.7374 41.7773 27.2401 44.5563C27.4484 44.6595 27.6737 44.4604 27.8181 44.2779C30.4197 40.9875 31.6429 36.8386 32.8568 32.8151C33.0979 32.0165 33.3454 31.2076 33.7899 30.5032C34.0623 31.0392 33.962 31.6814 33.8653 32.2755C33.5163 34.4201 33.3053 36.631 33.7638 38.7544C33.8872 39.3259 34.0755 39.9154 34.5015 40.3131C34.6022 40.407 34.7359 40.4931 34.8682 40.4572C35.0094 40.4192 35.0803 40.2637 35.1302 40.1252C35.8385 38.1632 36.1065 36.0468 35.9445 33.9673C35.8326 32.5305 35.7043 29.9363 33.9455 29.5445C32.3587 29.1908 30.8738 30.8101 29.6699 31.5994C28.1774 32.5779 26.628 33.4658 25.1523 34.4706C23.4787 35.6093 21.8844 36.911 20.708 38.5829Z" fill="#719F5C"/>
</g>
<path d="M34.9243 28.6038C34.9243 28.6038 28.9306 24.3507 27.9317 24.6599C26.9327 24.9693 26.958 26.6352 27.0221 27.2326C27.0863 27.8303 24.2041 27.5869 23.8266 28.6035C23.449 29.6204 25.4864 30.5188 25.4727 31.0008C25.4587 31.4829 21.7844 32.964 22.0148 33.8385C22.2455 34.7129 30.3138 34.7129 34.9243 28.6038Z" fill="#A6E97C"/>
<path d="M34.874 27.8809C34.874 27.8809 28.0773 30.6531 27.7953 31.666C27.5133 32.6789 28.9192 33.5587 29.4535 33.8275C29.9877 34.0963 28.225 36.4042 28.8707 37.2738C29.5163 38.1435 31.3692 36.9049 31.7647 37.1774C32.1599 37.4499 33.2819 39.9025 34.1808 39.9092C35.6035 39.9202 37.4854 35.0881 34.874 27.8809Z" fill="#A6E97C"/>
<path d="M31.1592 30.7404C31.1592 30.7404 38.3623 32.1282 39.1454 31.432C39.9286 30.7359 39.2233 29.2285 38.9198 28.7106C38.6165 28.1927 41.342 27.2188 41.2695 26.1356C41.1969 25.0527 38.9725 25.0795 38.7878 24.6347C38.6031 24.1899 38.9848 21.5175 38.2339 21.0202C37.0452 20.2333 32.8566 23.2616 31.1592 30.7404Z" fill="#9EE96A"/>
<path d="M37.2357 33.1301C35.4663 33.1301 34.0317 34.5738 34.0317 36.3545C34.0317 38.1352 35.4663 39.5788 37.2357 39.5788C39.0052 39.5788 40.4397 38.1352 40.4397 36.3545C40.4394 34.5738 39.0052 33.1301 37.2357 33.1301ZM37.2357 39.0965C35.7308 39.0965 34.5108 37.8689 34.5108 36.3545C34.5108 34.84 35.7308 33.6125 37.2357 33.6125C38.7406 33.6125 39.9604 34.84 39.9604 36.3545C39.9604 37.8689 38.7403 39.0965 37.2357 39.0965Z" fill="#F9FBFC"/>
<path d="M37.5445 20.1177C36.0396 20.1177 34.8198 21.3453 34.8198 22.8597C34.8198 24.3741 36.0399 25.6017 37.5445 25.6017C39.0494 25.6017 40.2692 24.3741 40.2692 22.8597C40.2692 21.3453 39.0494 20.1177 37.5445 20.1177ZM37.5445 25.2911C36.2103 25.2911 35.1284 24.2026 35.1284 22.8597C35.1284 21.5168 36.2101 20.4282 37.5445 20.4282C38.879 20.4282 39.9606 21.5168 39.9606 22.8597C39.9606 24.2024 38.8787 25.2911 37.5445 25.2911Z" fill="#F9FBFC"/>
<path d="M40.2894 32.1109C39.8698 32.3343 38.7935 38.2621 39.1051 38.8874C39.4168 39.5128 43.4283 34.4358 43.3243 33.3743C43.2203 32.3129 41.3491 31.5462 40.2894 32.1109Z" fill="#FFA14F"/>
<mask id="mask4_3418_28819" style="mask-type:luminance" maskUnits="userSpaceOnUse" x="39" y="31" width="5" height="8">
<path d="M40.2894 32.1109C39.8698 32.3343 38.7935 38.2621 39.1051 38.8874C39.4168 39.5128 43.4283 34.4358 43.3243 33.3743C43.2203 32.3129 41.3491 31.5462 40.2894 32.1109Z" fill="white"/>
</mask>
<g mask="url(#mask4_3418_28819)">
<path opacity="0.2" d="M37.6814 37.2791C38.3962 36.968 39.1956 36.7491 39.9501 36.9423C40.8585 37.1748 41.5447 37.9612 42.4466 38.2176C41.9886 37.2856 41.104 36.5926 40.111 36.3054C39.1179 36.0183 38.0304 36.1235 37.0791 36.5291C37.5657 36.4972 37.7894 35.9009 37.8182 35.411C37.8471 34.921 37.8306 34.3529 38.2047 34.0381C39.4159 33.8305 40.6937 34.0418 41.7751 34.6282C42.5632 35.0555 43.2981 35.7872 43.3105 36.6879C43.0983 35.6327 42.4074 34.6849 41.4707 34.1645C40.5339 33.6443 39.3688 33.5609 38.3684 33.9428C38.1717 33.5814 38.4236 33.1045 38.7905 32.9217C39.1574 32.7389 39.5905 32.7719 39.9966 32.8249C41.4948 33.0198 43.1003 33.5225 43.9204 34.7994C43.9341 33.9086 43.0703 33.2613 42.2364 32.9615C40.9689 32.5053 39.5515 32.4839 38.2709 32.9008" fill="#FF875C"/>
</g>
<path d="M24.2065 36.5845C24.2065 36.5845 26.661 41.0584 26.9853 41.3848C27.3093 41.7109 26.8925 36.1868 26.4758 35.4303C26.059 34.6735 24.2993 35.5124 24.2065 36.5845Z" fill="#FFA14F"/>
<mask id="mask5_3418_28819" style="mask-type:luminance" maskUnits="userSpaceOnUse" x="24" y="35" width="4" height="7">
<path d="M24.2065 36.5845C24.2065 36.5845 26.661 41.0584 26.9853 41.3848C27.3093 41.7109 26.8925 36.1868 26.4758 35.4303C26.059 34.6735 24.2993 35.5124 24.2065 36.5845Z" fill="white"/>
</mask>
<g mask="url(#mask5_3418_28819)">
<path opacity="0.2" d="M23.7755 38.7255C23.6354 38.6186 23.7124 38.3952 23.8058 38.2451C24.2915 37.4652 24.9267 36.7696 25.7031 36.283C26.4794 35.7967 27.4022 35.5276 28.3142 35.599C27.1137 36.0771 25.8805 36.5761 24.9491 37.4756C24.5264 37.8838 24.1629 38.4014 24.1191 38.9892C25.0074 37.6573 26.5761 36.8128 28.1701 36.8083C27.2469 37.0909 26.3435 37.4739 25.568 38.0519C25.1444 38.3675 24.7321 38.809 24.7509 39.339C24.7585 39.5551 24.8815 39.7996 25.0954 39.8208C25.2212 39.8332 25.3392 39.7649 25.4491 39.7023C26.2064 39.2699 27.0524 38.9954 27.9182 38.9009C26.8648 39.4631 25.777 39.9598 24.6629 40.3866" fill="#FF875C"/>
</g>
<path d="M33.5915 19.3665C33.5915 19.3665 28.5132 19.382 28.0732 19.5112C27.6331 19.6403 32.6469 21.9279 33.5066 21.9237C34.3662 21.9195 34.4811 19.9633 33.5915 19.3665Z" fill="#FFA14F"/>
<mask id="mask6_3418_28819" style="mask-type:luminance" maskUnits="userSpaceOnUse" x="28" y="19" width="7" height="3">
<path d="M33.5915 19.3665C33.5915 19.3665 28.5132 19.382 28.0732 19.5112C27.6331 19.6403 32.6469 21.9279 33.5066 21.9237C34.3662 21.9195 34.4811 19.9633 33.5915 19.3665Z" fill="white"/>
</mask>
<g mask="url(#mask6_3418_28819)">
<path opacity="0.2" d="M31.9333 17.9569C32.0939 17.8847 32.2514 18.0599 32.3372 18.2145C32.7834 19.0181 33.0841 19.9128 33.1349 20.8318C33.1856 21.7508 32.9765 22.6946 32.4759 23.4649C32.6362 22.1756 32.7943 20.8476 32.4582 19.5932C32.3058 19.024 32.0294 18.4545 31.5383 18.1332C32.2721 19.5574 32.2539 21.3477 31.4915 22.7564C31.6891 21.8058 31.7895 20.8245 31.6586 19.8623C31.5871 19.3368 31.4007 18.7608 30.9298 18.5225C30.7378 18.4252 30.4657 18.4164 30.3443 18.5947C30.2728 18.6996 30.2759 18.8367 30.2776 18.9639C30.2902 19.84 30.1229 20.7187 29.7891 21.528C29.8053 20.3283 29.8956 19.1295 30.0593 17.9411" fill="#FF875C"/>
</g>
<path d="M38.8281 42.6881C38.4929 43.5792 37.5032 44.028 36.6178 43.6903C35.7324 43.3527 35.2864 42.357 35.6219 41.4659C35.9572 40.5748 36.9469 40.1261 37.8323 40.4637C38.7177 40.8013 39.1637 41.7973 38.8281 42.6881Z" fill="#DB5B47"/>
<mask id="mask7_3418_28819" style="mask-type:luminance" maskUnits="userSpaceOnUse" x="35" y="40" width="4" height="4">
<path d="M38.8281 42.6881C38.4929 43.5792 37.5032 44.028 36.6178 43.6903C35.7324 43.3527 35.2864 42.357 35.6219 41.4659C35.9572 40.5748 36.9469 40.1261 37.8323 40.4637C38.7177 40.8013 39.1637 41.7973 38.8281 42.6881Z" fill="white"/>
</mask>
<g mask="url(#mask7_3418_28819)">
<path opacity="0.2" d="M37.017 39.3362C36.6596 39.7954 36.2992 40.269 36.1195 40.8235C35.9399 41.3778 35.9718 42.0373 36.3463 42.4824C36.8373 43.0663 37.748 43.0965 38.4549 42.8155C38.9737 42.6096 39.5679 42.2683 40.0391 42.5693C40.462 42.8392 40.4609 43.5077 40.1562 43.9077C39.8516 44.3077 39.349 44.495 38.8652 44.625C38.1541 44.816 37.3842 44.9223 36.6924 44.669C36.0007 44.4157 34.3812 43.0731 34.4944 42.3411" fill="#AD615C"/>
</g>
<path d="M41.3902 25.7817C41.0256 26.7277 39.968 27.1974 39.028 26.8304C38.0879 26.4637 37.6212 25.3992 37.9859 24.4531C38.3502 23.507 39.408 23.0374 40.3481 23.4044C41.2882 23.7711 41.7546 24.8356 41.3902 25.7817Z" fill="#EC5B47"/>
<mask id="mask8_3418_28819" style="mask-type:luminance" maskUnits="userSpaceOnUse" x="37" y="23" width="5" height="4">
<path d="M41.3902 25.7817C41.0256 26.7277 39.968 27.1974 39.028 26.8304C38.0879 26.4637 37.6212 25.3992 37.9859 24.4531C38.3502 23.507 39.408 23.0374 40.3481 23.4044C41.2882 23.7711 41.7546 24.8356 41.3902 25.7817Z" fill="white"/>
</mask>
<g mask="url(#mask8_3418_28819)">
<path opacity="0.2" d="M39.613 21.8894C39.109 22.2476 38.5972 22.62 38.2452 23.1302C37.8931 23.6405 37.7255 24.3228 37.9719 24.8923C38.2954 25.6393 39.215 25.9504 40.0216 25.8816C40.6136 25.8314 41.3236 25.6663 41.7126 26.1182C42.0619 26.5241 41.8575 27.2056 41.425 27.5195C40.9926 27.8338 40.423 27.8702 39.8899 27.8535C39.1062 27.8293 38.2886 27.7006 37.6599 27.229C37.0313 26.7574 36.6638 25.8601 37.0021 25.1482" fill="#AD615C"/>
</g>
<mask id="mask9_3418_28819" style="mask-type:luminance" maskUnits="userSpaceOnUse" x="37" y="23" width="5" height="4">
<path d="M41.3902 25.7817C41.0256 26.7277 39.968 27.1974 39.028 26.8304C38.0879 26.4637 37.6212 25.3992 37.9859 24.4531C38.3502 23.507 39.408 23.0374 40.3481 23.4044C41.2882 23.7711 41.7546 24.8356 41.3902 25.7817Z" fill="white"/>
</mask>
<g mask="url(#mask9_3418_28819)">
<path d="M38.7336 24.5276C38.8375 24.657 38.9928 24.736 39.1518 24.7823C39.3286 24.8339 39.5158 24.8497 39.6989 24.8283C39.8665 24.8088 40.0341 24.7563 40.1653 24.6494C40.2964 24.5428 40.3859 24.3761 40.3732 24.2069C40.3424 23.7973 39.7572 23.5635 39.3992 23.6114C38.9889 23.6664 38.3653 24.0686 38.7336 24.5276Z" fill="white"/>
</g>
<path d="M21.5972 26.1321L25.4318 28.649C25.4318 28.649 26.3803 26.7614 25.161 25.7547C23.5199 24.3996 21.5972 26.1321 21.5972 26.1321Z" fill="#EC5B47"/>
<mask id="mask10_3418_28819" style="mask-type:luminance" maskUnits="userSpaceOnUse" x="21" y="25" width="5" height="4">
<path d="M21.5972 26.1321L25.4318 28.649C25.4318 28.649 26.3803 26.7614 25.161 25.7547C23.5199 24.3996 21.5972 26.1321 21.5972 26.1321Z" fill="white"/>
</mask>
<g mask="url(#mask10_3418_28819)">
<path d="M21.5972 26.7614C21.5972 26.7614 23.2136 25.333 24.386 25.8274C26.0456 26.5275 24.8796 28.8061 24.8796 28.8061L21.5972 26.7614Z" fill="#FF7E6B"/>
</g>
<mask id="mask11_3418_28819" style="mask-type:luminance" maskUnits="userSpaceOnUse" x="21" y="25" width="5" height="4">
<path d="M21.5972 26.1321L25.4318 28.649C25.4318 28.649 26.3803 26.7614 25.161 25.7547C23.5199 24.3996 21.5972 26.1321 21.5972 26.1321Z" fill="white"/>
</mask>
<g mask="url(#mask11_3418_28819)">
<path d="M23.1922 26.8522C23.2726 26.8632 23.3463 26.8059 23.3999 26.7441C23.5392 26.5825 23.7376 25.9371 23.3149 26.1171C23.0974 26.2096 22.8048 26.7986 23.1922 26.8522Z" fill="#EC5B47"/>
</g>
<mask id="mask12_3418_28819" style="mask-type:luminance" maskUnits="userSpaceOnUse" x="21" y="25" width="5" height="4">
<path d="M21.5972 26.1321L25.4318 28.649C25.4318 28.649 26.3803 26.7614 25.161 25.7547C23.5199 24.3996 21.5972 26.1321 21.5972 26.1321Z" fill="white"/>
</mask>
<g mask="url(#mask12_3418_28819)">
<path d="M23.7446 26.7545C23.7152 26.8129 23.6922 26.8794 23.7065 26.9435C23.7242 27.0224 23.7976 27.0805 23.8764 27.0961C23.9551 27.1116 24.0375 27.0901 24.1093 27.0543C24.2225 26.9976 24.317 26.9034 24.3742 26.79C24.4588 26.6225 24.4041 26.3765 24.1774 26.3782C23.998 26.3793 23.8175 26.6103 23.7446 26.7545Z" fill="#EC5B47"/>
</g>
<mask id="mask13_3418_28819" style="mask-type:luminance" maskUnits="userSpaceOnUse" x="21" y="25" width="5" height="4">
<path d="M21.5972 26.1321L25.4318 28.649C25.4318 28.649 26.3803 26.7614 25.161 25.7547C23.5199 24.3996 21.5972 26.1321 21.5972 26.1321Z" fill="white"/>
</mask>
<g mask="url(#mask13_3418_28819)">
<path d="M24.3643 27.2882C24.3405 27.3505 24.3298 27.4244 24.3646 27.4811C24.3811 27.5084 24.4069 27.529 24.4352 27.544C24.5734 27.6176 24.7497 27.5502 24.8598 27.4388C24.9164 27.3815 24.963 27.3107 24.9753 27.2309C25.0005 27.0647 24.8461 26.9452 24.6877 26.9714C24.5445 26.9954 24.4128 27.1604 24.3643 27.2882Z" fill="#EC5B47"/>
</g>
<path d="M30.7024 40.9384L30.2433 36.3545C30.2433 36.3545 28.1877 36.7959 28.1739 38.3829C28.1554 40.519 30.7024 40.9384 30.7024 40.9384Z" fill="#EC5B47"/>
<mask id="mask14_3418_28819" style="mask-type:luminance" maskUnits="userSpaceOnUse" x="28" y="36" width="3" height="5">
<path d="M30.7024 40.9384L30.2433 36.3545C30.2433 36.3545 28.1877 36.7959 28.1739 38.3829C28.1554 40.519 30.7024 40.9384 30.7024 40.9384Z" fill="white"/>
</mask>
<g mask="url(#mask14_3418_28819)">
<path d="M31.1893 40.5435C31.1893 40.5435 29.0701 40.1735 28.7166 38.9445C28.2166 37.2047 30.7114 36.6885 30.7114 36.6885L31.1893 40.5435Z" fill="#FF7E6B"/>
</g>
<mask id="mask15_3418_28819" style="mask-type:luminance" maskUnits="userSpaceOnUse" x="28" y="36" width="3" height="5">
<path d="M30.7024 40.9384L30.2433 36.3545C30.2433 36.3545 28.1877 36.7959 28.1739 38.3829C28.1554 40.519 30.7024 40.9384 30.7024 40.9384Z" fill="white"/>
</mask>
<g mask="url(#mask15_3418_28819)">
<path d="M29.4024 37.7584C29.3234 37.7954 29.2449 37.8665 29.2542 37.9536C29.2592 38.0019 29.292 38.0442 29.3324 38.0707C29.3727 38.0972 29.4207 38.1099 29.468 38.1189C29.6513 38.1533 29.8439 38.135 30.0177 38.0667C30.067 38.0473 30.1203 38.0177 30.1329 37.966C30.1488 37.9012 30.0919 37.8411 30.0339 37.8089C29.8669 37.7161 29.5776 37.6763 29.4024 37.7584Z" fill="#EC5B47"/>
</g>
<mask id="mask16_3418_28819" style="mask-type:luminance" maskUnits="userSpaceOnUse" x="28" y="36" width="3" height="5">
<path d="M30.7024 40.9384L30.2433 36.3545C30.2433 36.3545 28.1877 36.7959 28.1739 38.3829C28.1554 40.519 30.7024 40.9384 30.7024 40.9384Z" fill="white"/>
</mask>
<g mask="url(#mask16_3418_28819)">
<path d="M29.2784 38.5803C29.2234 38.6077 29.1637 38.6494 29.1612 38.7109C29.1595 38.7547 29.1895 38.795 29.2273 38.8164C29.2652 38.8381 29.3098 38.8444 29.3529 38.8477C29.5729 38.8647 29.7975 38.817 29.992 38.7121C30.0208 38.6965 30.0503 38.6782 30.0657 38.6492C30.1587 38.472 29.837 38.4633 29.7476 38.4607C29.5819 38.4562 29.4269 38.5061 29.2784 38.5803Z" fill="#EC5B47"/>
</g>
<mask id="mask17_3418_28819" style="mask-type:luminance" maskUnits="userSpaceOnUse" x="28" y="36" width="3" height="5">
<path d="M30.7024 40.9384L30.2433 36.3545C30.2433 36.3545 28.1877 36.7959 28.1739 38.3829C28.1554 40.519 30.7024 40.9384 30.7024 40.9384Z" fill="white"/>
</mask>
<g mask="url(#mask17_3418_28819)">
<path d="M29.7912 39.3091C29.7497 39.3449 29.7088 39.3895 29.7057 39.4445C29.7024 39.5051 29.7497 39.5604 29.8066 39.5816C29.8633 39.603 29.9266 39.5965 29.9855 39.5827C30.0581 39.5655 30.1276 39.5367 30.1915 39.4978C30.2456 39.4648 30.2969 39.423 30.3246 39.3658C30.3524 39.3085 30.351 39.234 30.3084 39.1872C30.1654 39.0307 29.9025 39.2123 29.7912 39.3091Z" fill="#EC5B47"/>
</g>
<path d="M35.1393 27.5505L34.2073 26.3252C34.2073 26.3252 33.9461 27.5468 33.4146 27.4687C32.8832 27.3906 31.9389 26.3004 32.4465 24.9512C32.9541 23.6021 35.2533 23.3262 35.8786 23.9239C36.504 24.5216 36.9785 25.6917 35.3217 25.7859C35.8845 26.0375 36.6775 26.7003 36.6775 26.7003L35.1393 27.5505Z" fill="#FFE1AD"/>
<mask id="mask18_3418_28819" style="mask-type:luminance" maskUnits="userSpaceOnUse" x="32" y="23" width="5" height="5">
<path d="M35.1393 27.5505L34.2073 26.3252C34.2073 26.3252 33.9461 27.5468 33.4146 27.4687C32.8832 27.3906 31.9389 26.3004 32.4465 24.9512C32.9541 23.6021 35.2533 23.3262 35.8786 23.9239C36.504 24.5216 36.9785 25.6917 35.3217 25.7859C35.8845 26.0375 36.6775 26.7003 36.6775 26.7003L35.1393 27.5505Z" fill="white"/>
</mask>
<g mask="url(#mask18_3418_28819)">
<path d="M35.5466 27.7118L34.0922 25.8499C34.0922 25.8499 34.0793 27.0456 33.4413 26.955C32.8034 26.8642 32.3883 25.5768 32.9438 24.7464C33.4994 23.916 35.4956 23.5902 35.8656 24.3348C36.2355 25.0795 35.9805 25.5675 34.7682 25.4905C35.2021 25.9015 36.5545 27.0185 36.5545 27.0185L35.5466 27.7118Z" fill="#FFEDCA"/>
</g>
<path d="M32.6648 36.6592L31.1319 36.7032C31.1319 36.7032 31.9638 37.6312 31.5899 38.019C31.216 38.4072 29.7851 38.5403 28.9944 37.337C28.204 36.1337 29.3263 34.0954 30.1739 33.9346C31.0215 33.7739 32.2418 34.0706 31.3488 35.4784C31.8808 35.1662 32.8789 34.9067 32.8789 34.9067L32.6648 36.6592Z" fill="#FFE1AD"/>
<mask id="mask19_3418_28819" style="mask-type:luminance" maskUnits="userSpaceOnUse" x="28" y="33" width="5" height="6">
<path d="M32.6648 36.6592L31.1319 36.7032C31.1319 36.7032 31.9638 37.6312 31.5899 38.019C31.216 38.4072 29.7851 38.5403 28.9944 37.337C28.204 36.1337 29.3263 34.0954 30.1739 33.9346C31.0215 33.7739 32.2418 34.0706 31.3488 35.4784C31.8808 35.1662 32.8789 34.9067 32.8789 34.9067L32.6648 36.6592Z" fill="white"/>
</mask>
<g mask="url(#mask19_3418_28819)">
<path d="M33.0331 36.4211L30.6818 36.5195C30.6818 36.5195 31.6381 37.2292 31.1919 37.6969C30.7457 38.1646 29.4654 37.7505 29.1206 36.8115C28.7761 35.8724 29.6812 34.0522 30.4977 34.1857C31.3144 34.3191 31.5583 34.8127 30.7875 35.7574C31.3724 35.6437 33.0637 35.1929 33.0637 35.1929L33.0331 36.4211Z" fill="#FFEDCA"/>
</g>
<path d="M23.4419 32.091L24.5555 31.3791C24.5555 31.3791 23.5347 31.062 23.6412 30.6096C23.7477 30.1572 24.7469 29.4243 25.858 29.9637C26.9688 30.5027 27.031 32.5068 26.4752 33.001C25.9191 33.4955 24.8873 33.817 24.9313 32.3807C24.6749 32.8473 24.0507 33.4814 24.0507 33.4814L23.4419 32.091Z" fill="#FFE1AD"/>
<mask id="mask20_3418_28819" style="mask-type:luminance" maskUnits="userSpaceOnUse" x="23" y="29" width="4" height="5">
<path d="M23.4419 32.091L24.5555 31.3791C24.5555 31.3791 23.5347 31.062 23.6412 30.6096C23.7477 30.1572 24.7469 29.4243 25.858 29.9637C26.9688 30.5027 27.031 32.5068 26.4752 33.001C25.9191 33.4955 24.8873 33.817 24.9313 32.3807C24.6749 32.8473 24.0507 33.4814 24.0507 33.4814L23.4419 32.091Z" fill="white"/>
</mask>
<g mask="url(#mask20_3418_28819)">
<path d="M23.2739 32.4303L24.9688 31.3156C24.9688 31.3156 23.9514 31.2149 24.0767 30.6713C24.2017 30.1278 25.3293 29.8666 25.995 30.4079C26.6606 30.9492 26.7882 32.6958 26.1261 32.9589C25.4641 33.2221 25.0678 32.9654 25.2245 31.9257C24.8419 32.269 23.7891 33.3516 23.7891 33.3516L23.2739 32.4303Z" fill="#FFEDCA"/>
</g>
<path d="M38.2567 29.6043C38.2567 30.1318 37.6891 30.5597 37.1647 30.5597C36.6405 30.5597 36.2153 30.1321 36.2153 29.6043C36.2153 29.0768 36.6402 28.6489 37.1647 28.6489C37.6888 28.6489 38.2567 29.0765 38.2567 29.6043Z" fill="#425748"/>
<mask id="mask21_3418_28819" style="mask-type:luminance" maskUnits="userSpaceOnUse" x="36" y="28" width="3" height="3">
<path d="M38.2567 29.6043C38.2567 30.1318 37.6891 30.5597 37.1647 30.5597C36.6405 30.5597 36.2153 30.1321 36.2153 29.6043C36.2153 29.0768 36.6402 28.6489 37.1647 28.6489C37.6888 28.6489 38.2567 29.0765 38.2567 29.6043Z" fill="white"/>
</mask>
<g mask="url(#mask21_3418_28819)">
<path opacity="0.2" d="M36.6049 28.6489C36.4413 28.8328 36.3342 29.0723 36.33 29.3191C36.3258 29.5659 36.4312 29.8175 36.6251 29.9687C36.8471 30.1422 37.1532 30.1682 37.4298 30.1177C37.7062 30.0675 37.9655 29.9498 38.2317 29.8596C38.3898 29.806 38.5916 29.773 38.7001 29.9005C38.7766 29.9902 38.7707 30.1256 38.7323 30.2373C38.6337 30.5233 38.3621 30.7157 38.0815 30.8254C37.6499 30.9938 37.1409 31.0034 36.74 30.7704C36.3392 30.5374 36.0853 30.0353 36.2111 29.5871" fill="#76615C"/>
</g>
<mask id="mask22_3418_28819" style="mask-type:luminance" maskUnits="userSpaceOnUse" x="36" y="28" width="3" height="3">
<path d="M38.2567 29.6043C38.2567 30.1318 37.6891 30.5597 37.1647 30.5597C36.6405 30.5597 36.2153 30.1321 36.2153 29.6043C36.2153 29.0768 36.6402 28.6489 37.1647 28.6489C37.6888 28.6489 38.2567 29.0765 38.2567 29.6043Z" fill="white"/>
</mask>
<g mask="url(#mask22_3418_28819)">
<path opacity="0.3" d="M36.9521 28.132C37.0225 28.0804 37.1228 28.0736 37.1996 28.1148C37.2764 28.1563 37.3263 28.2437 37.3226 28.3314C37.3154 28.5122 37.122 28.6138 36.981 28.7263C36.8159 28.8578 36.6942 29.0719 36.7419 29.2781C36.7884 29.4795 36.9827 29.6163 37.1819 29.667C37.3339 29.706 37.4933 29.706 37.6492 29.6885C37.8689 29.6639 38.0878 29.6033 38.2742 29.4834C38.4606 29.3635 38.6117 29.1799 38.6652 28.9641C38.7345 28.6846 38.6307 28.3797 38.4379 28.167C38.2451 27.9543 37.9735 27.8262 37.6946 27.7622" fill="#FFFFC2"/>
</g>
<path d="M23.5563 39.0534C23.7623 39.5386 23.4071 40.1563 22.925 40.3637C22.443 40.571 21.8852 40.3459 21.6792 39.8607C21.4732 39.3756 21.6968 38.8142 22.1789 38.6069C22.661 38.3993 23.3502 38.5683 23.5563 39.0534Z" fill="#425748"/>
<mask id="mask23_3418_28819" style="mask-type:luminance" maskUnits="userSpaceOnUse" x="21" y="38" width="3" height="3">
<path d="M23.5563 39.0534C23.7623 39.5386 23.4071 40.1563 22.925 40.3637C22.443 40.571 21.8852 40.3459 21.6792 39.8607C21.4732 39.3756 21.6968 38.8142 22.1789 38.6069C22.661 38.3993 23.3502 38.5683 23.5563 39.0534Z" fill="white"/>
</mask>
<g mask="url(#mask23_3418_28819)">
<path opacity="0.2" d="M21.6647 38.8281C21.5862 39.062 21.5809 39.3246 21.6737 39.5531C21.7662 39.7815 21.9615 39.9711 22.1987 40.0337C22.4706 40.1053 22.7621 40.0083 22.9967 39.8526C23.2313 39.6969 23.4235 39.4865 23.6332 39.2983C23.7576 39.1866 23.9303 39.0766 24.08 39.1505C24.1854 39.2027 24.2327 39.3296 24.2411 39.4473C24.2622 39.7494 24.0875 40.0337 23.8723 40.2453C23.5413 40.5708 23.0768 40.7809 22.6171 40.7253C22.1578 40.6695 21.7281 40.3082 21.6686 39.8464" fill="#76615C"/>
</g>
<mask id="mask24_3418_28819" style="mask-type:luminance" maskUnits="userSpaceOnUse" x="21" y="38" width="3" height="3">
<path d="M23.5563 39.0534C23.7623 39.5386 23.4071 40.1563 22.925 40.3637C22.443 40.571 21.8852 40.3459 21.6792 39.8607C21.4732 39.3756 21.6968 38.8142 22.1789 38.6069C22.661 38.3993 23.3502 38.5683 23.5563 39.0534Z" fill="white"/>
</mask>
<g mask="url(#mask24_3418_28819)">
<path opacity="0.3" d="M21.7817 38.2152C21.8263 38.1399 21.9157 38.0939 22.0026 38.1015C22.0895 38.1091 22.1694 38.1701 22.2002 38.2521C22.2641 38.4214 22.1259 38.5912 22.0402 38.7503C21.9395 38.9364 21.9115 39.1813 22.036 39.3522C22.1573 39.5189 22.3894 39.568 22.5923 39.5361C22.7473 39.5119 22.8939 39.4487 23.0304 39.3708C23.223 39.2614 23.4007 39.1189 23.5251 38.9353C23.6496 38.7514 23.7168 38.5229 23.6818 38.3032C23.6364 38.0189 23.422 37.7794 23.1616 37.6601C22.9012 37.5408 22.6016 37.5303 22.3199 37.5819" fill="#FFFFC2"/>
</g>
<path d="M30.8294 25.68C30.7739 26.2047 30.1646 26.5694 29.6432 26.5138C29.1219 26.458 28.7443 25.9875 28.7998 25.4628C28.8553 24.9382 29.3229 24.5582 29.8442 24.6141C30.3653 24.6699 30.8849 25.1554 30.8294 25.68Z" fill="#425748"/>
<mask id="mask25_3418_28819" style="mask-type:luminance" maskUnits="userSpaceOnUse" x="28" y="24" width="3" height="3">
<path d="M30.8294 25.68C30.7739 26.2047 30.1646 26.5694 29.6432 26.5138C29.1219 26.458 28.7443 25.9875 28.7998 25.4628C28.8553 24.9382 29.3229 24.5582 29.8442 24.6141C30.3653 24.6699 30.8849 25.1554 30.8294 25.68Z" fill="white"/>
</mask>
<g mask="url(#mask25_3418_28819)">
<path opacity="0.2" d="M29.2873 24.5547C29.1054 24.7203 28.9737 24.9468 28.9434 25.1919C28.9134 25.437 28.9916 25.6982 29.1685 25.8694C29.3708 26.0655 29.6727 26.1238 29.953 26.1033C30.2333 26.0827 30.5032 25.9933 30.7773 25.932C30.9402 25.8957 31.1442 25.8844 31.239 26.0226C31.3057 26.1199 31.2855 26.2539 31.2356 26.3608C31.1072 26.635 30.8171 26.7972 30.5267 26.8761C30.08 26.9977 29.5726 26.9529 29.1985 26.6787C28.8246 26.4042 28.6247 25.8779 28.7968 25.4458" fill="#76615C"/>
</g>
<mask id="mask26_3418_28819" style="mask-type:luminance" maskUnits="userSpaceOnUse" x="28" y="24" width="3" height="3">
<path d="M30.8294 25.68C30.7739 26.2047 30.1646 26.5694 29.6432 26.5138C29.1219 26.458 28.7443 25.9875 28.7998 25.4628C28.8553 24.9382 29.3229 24.5582 29.8442 24.6141C30.3653 24.6699 30.8849 25.1554 30.8294 25.68Z" fill="white"/>
</mask>
<g mask="url(#mask26_3418_28819)">
<path opacity="0.3" d="M29.6869 24.0771C29.7623 24.0334 29.8627 24.037 29.9347 24.0864C30.0067 24.1358 30.0471 24.2283 30.0342 24.3149C30.0078 24.494 29.8049 24.5744 29.6527 24.6711C29.4747 24.7842 29.3312 24.9842 29.357 25.1944C29.3822 25.3994 29.5611 25.5563 29.7536 25.6282C29.9008 25.6829 30.0591 25.6999 30.2161 25.6993C30.4372 25.6982 30.6615 25.6615 30.8591 25.5619C31.057 25.4626 31.2265 25.2959 31.3025 25.0872C31.4009 24.8167 31.3297 24.5025 31.1604 24.2703C30.9911 24.0382 30.7343 23.8822 30.4636 23.7888" fill="#FFFFC2"/>
</g>
<path d="M42.1391 27.4688C42.0738 27.5633 42.272 28.3328 42.4937 28.4219C42.7154 28.5111 44.7556 29.7931 43.1291 31.2714C42.9371 31.7236 43.7533 31.6274 43.7533 31.6274C43.7533 31.6274 46.2176 29.9835 45.2422 28.1988C44.2671 26.4144 42.5822 26.828 42.1391 27.4688Z" fill="#FFD2C3"/>
<mask id="mask27_3418_28819" style="mask-type:luminance" maskUnits="userSpaceOnUse" x="42" y="26" width="4" height="6">
<path d="M42.1391 27.4688C42.0738 27.5633 42.272 28.3328 42.4937 28.4219C42.7154 28.5111 44.7556 29.7931 43.1291 31.2714C42.9371 31.7236 43.7533 31.6274 43.7533 31.6274C43.7533 31.6274 46.2176 29.9835 45.2422 28.1988C44.2671 26.4144 42.5822 26.828 42.1391 27.4688Z" fill="white"/>
</mask>
<g mask="url(#mask27_3418_28819)">
<path d="M43.8566 26.3318C43.659 26.6226 43.4614 26.9134 43.2638 27.2042C43.1674 27.3461 43.0665 27.5086 43.099 27.6772C43.1052 27.7088 43.1169 27.741 43.1408 27.7627C43.1923 27.809 43.2733 27.7878 43.3361 27.7591C43.8471 27.5269 44.1669 27.0087 44.626 26.6849C44.8441 26.5309 45.1695 26.4336 45.3564 26.6246C45.3962 26.6652 45.4265 26.7216 45.417 26.778C45.4035 26.8578 45.3208 26.9027 45.2485 26.9379C44.9071 27.1041 44.5868 27.3139 44.2975 27.561C44.087 27.741 43.8863 27.9511 43.8036 28.2163C44.0416 28.2465 44.2442 28.0609 44.4449 27.9283C44.7017 27.7588 45.0061 27.6637 45.313 27.6569C45.572 27.6513 45.8643 27.7314 45.9846 27.9624C46.0375 28.0637 46.0409 28.207 45.9501 28.2761C45.8996 28.3144 45.8324 28.3209 45.769 28.3232C45.4691 28.3348 45.1642 28.2924 44.8707 28.3562C44.5772 28.4199 44.284 28.6292 44.2487 28.9294C44.3948 28.904 44.5405 28.8786 44.6865 28.8535C44.9688 28.8044 45.2566 28.7553 45.5406 28.7942C45.8245 28.8332 46.109 28.9751 46.2503 29.2258C46.2665 29.2546 46.2808 29.2884 46.2699 29.3195C46.2612 29.3446 46.2379 29.3612 46.2147 29.3742C45.9857 29.5028 45.704 29.4049 45.4464 29.3542C45.2149 29.3085 44.9755 29.3037 44.7426 29.3401C44.6327 29.3573 44.4976 29.4179 44.5072 29.5293C44.5172 29.6469 44.672 29.6769 44.7894 29.6825C45.114 29.6974 45.4358 29.7708 45.7351 29.8977C45.8935 29.9648 46.0605 30.065 46.1045 30.232C46.1121 30.2607 46.1152 30.2935 46.0998 30.3191C46.0751 30.3606 46.0173 30.3637 45.9697 30.3597C45.4826 30.3183 44.9822 30.0331 44.5321 30.2255C44.4979 30.2401 44.4632 30.2588 44.4444 30.2912C44.39 30.3857 44.5077 30.4841 44.6061 30.5296C44.8584 30.646 45.1109 30.7628 45.3632 30.8793C45.4428 30.916 45.5246 30.9535 45.6121 30.9589C45.6771 30.9628 45.7421 30.949 45.8046 30.9298C46.2506 30.793 46.5838 30.3939 46.7363 29.9505C46.8888 29.507 46.882 29.0239 46.8221 28.5584C46.7567 28.0518 46.6253 27.5424 46.3428 27.1179C46.0602 26.6934 45.6078 26.3625 45.1016 26.321" fill="#FFB4AD"/>
</g>
<path d="M25.8028 25.1003C25.9149 25.1243 26.5428 24.6422 26.5388 24.4022C26.5346 24.1619 26.9189 21.7724 28.9031 22.7092C29.3916 22.7123 28.9874 21.9922 28.9874 21.9922C28.9874 21.9922 26.5271 20.3423 25.27 21.9383C24.0129 23.534 25.0441 24.937 25.8028 25.1003Z" fill="#FFD2C3"/>
<mask id="mask28_3418_28819" style="mask-type:luminance" maskUnits="userSpaceOnUse" x="24" y="21" width="6" height="5">
<path d="M25.8028 25.1003C25.9149 25.1243 26.5428 24.6422 26.5388 24.4022C26.5346 24.1619 26.9189 21.7724 28.9031 22.7092C29.3916 22.7123 28.9874 21.9922 28.9874 21.9922C28.9874 21.9922 26.5271 20.3423 25.27 21.9383C24.0129 23.534 25.0441 24.937 25.8028 25.1003Z" fill="white"/>
</mask>
<g mask="url(#mask28_3418_28819)">
<path d="M24.0959 23.9468C24.4389 24.0176 24.7817 24.0884 25.1248 24.159C25.2921 24.1934 25.4799 24.2244 25.622 24.1288C25.6487 24.1107 25.6736 24.0876 25.684 24.0571C25.7064 23.9914 25.6557 23.9245 25.6049 23.8772C25.1943 23.493 24.5959 23.3968 24.1214 23.0964C23.896 22.9537 23.6808 22.6896 23.7831 22.4423C23.8049 22.3895 23.8447 22.3396 23.9002 22.3266C23.9784 22.3083 24.0516 22.3675 24.1119 22.4211C24.3963 22.6736 24.7128 22.8896 25.0511 23.0623C25.2975 23.1881 25.5677 23.2927 25.8426 23.2668C25.7782 23.0343 25.5295 22.9181 25.3305 22.7833C25.076 22.6107 24.8709 22.3653 24.7459 22.0832C24.6405 21.8451 24.6007 21.5427 24.7655 21.3416C24.8378 21.2533 24.9678 21.1947 25.0662 21.2522C25.1212 21.2844 25.1528 21.3442 25.1797 21.402C25.3067 21.6759 25.3858 21.9749 25.5579 22.2225C25.73 22.4702 26.0352 22.6612 26.3239 22.5777C26.2443 22.4521 26.1644 22.3263 26.0848 22.2008C25.9306 21.9579 25.7742 21.71 25.7 21.4313C25.6257 21.1529 25.6456 20.8339 25.8205 20.6057C25.8404 20.5797 25.8659 20.553 25.8987 20.551C25.925 20.5496 25.9494 20.5645 25.9704 20.5809C26.177 20.7436 26.1966 21.0429 26.2496 21.3016C26.2973 21.534 26.3855 21.758 26.5092 21.9602C26.5675 22.0553 26.6754 22.1574 26.7735 22.1055C26.8775 22.0505 26.8449 21.8953 26.8043 21.7845C26.6922 21.4776 26.6347 21.1507 26.6353 20.8237C26.6356 20.6508 26.6625 20.457 26.7984 20.3516C26.822 20.3332 26.8505 20.3177 26.88 20.3222C26.9273 20.329 26.9526 20.3815 26.9674 20.4271C27.1182 20.8954 27.0507 21.4697 27.401 21.813C27.4277 21.8389 27.4585 21.864 27.4952 21.8688C27.6028 21.8826 27.6474 21.7354 27.651 21.6262C27.66 21.347 27.6693 21.0677 27.6782 20.7882C27.681 20.7002 27.6836 20.6096 27.6547 20.5267C27.6331 20.4647 27.5953 20.4099 27.5535 20.3595C27.2556 19.9987 26.7609 19.8441 26.2956 19.8743C25.8303 19.9045 25.39 20.098 24.9872 20.3338C24.5483 20.5908 24.1326 20.9098 23.8531 21.3363C23.5737 21.7628 23.4459 22.3108 23.6037 22.7963" fill="#FFB4AD"/>
</g>
<path d="M31.1465 41.388C31.0736 41.4769 31.2076 42.2602 31.4212 42.3677C31.6347 42.4751 33.562 43.9233 31.8189 45.2603C31.5902 45.6947 32.4117 45.6674 32.4117 45.6674C32.4117 45.6674 35.0032 44.2353 34.1786 42.3753C33.354 40.5156 31.6412 40.7867 31.1465 41.388Z" fill="#FFD2C3"/>
<mask id="mask29_3418_28819" style="mask-type:luminance" maskUnits="userSpaceOnUse" x="31" y="40" width="4" height="6">
<path d="M31.1465 41.388C31.0736 41.4769 31.2076 42.2602 31.4212 42.3677C31.6347 42.4751 33.562 43.9233 31.8189 45.2603C31.5902 45.6947 32.4117 45.6674 32.4117 45.6674C32.4117 45.6674 35.0032 44.2353 34.1786 42.3753C33.354 40.5156 31.6412 40.7867 31.1465 41.388Z" fill="white"/>
</mask>
<g mask="url(#mask29_3418_28819)">
<path d="M32.9523 40.3989C32.7314 40.6723 32.5103 40.9456 32.2894 41.2189C32.1818 41.352 32.0677 41.5055 32.0859 41.6764C32.0893 41.7086 32.0985 41.7416 32.1204 41.765C32.1678 41.8155 32.2504 41.8011 32.3155 41.778C32.8438 41.5896 33.2054 41.0999 33.6894 40.8156C33.9193 40.6804 34.2517 40.6108 34.4221 40.8164C34.4586 40.8604 34.4841 40.9191 34.4698 40.9744C34.4496 41.0528 34.3635 41.0906 34.2887 41.1196C33.9347 41.2567 33.5981 41.4389 33.2895 41.6609C33.0647 41.8225 32.8475 42.0152 32.7432 42.2724C32.9778 42.3224 33.1953 42.1543 33.4061 42.0392C33.6757 41.8919 33.9871 41.8225 34.2935 41.8414C34.5519 41.8575 34.8367 41.9619 34.9376 42.2019C34.9819 42.3074 34.9734 42.4504 34.8773 42.5116C34.8238 42.5458 34.7562 42.5463 34.6929 42.5435C34.393 42.53 34.0928 42.4623 33.7951 42.5012C33.4974 42.5401 33.1877 42.7243 33.128 43.0202C33.2755 43.0072 33.4229 42.9943 33.5706 42.9813C33.8559 42.9562 34.1469 42.9314 34.4263 42.994C34.706 43.0566 34.9779 43.2219 35.0979 43.4837C35.1116 43.5136 35.1231 43.5485 35.1099 43.5787C35.099 43.603 35.0746 43.6179 35.0505 43.6286C34.8117 43.7375 34.539 43.6168 34.2867 43.5443C34.06 43.4794 33.8217 43.4546 33.5866 43.4712C33.4759 43.4791 33.336 43.5282 33.3363 43.6399C33.3366 43.7581 33.4885 43.8007 33.6048 43.8159C33.9268 43.858 34.2416 43.9578 34.5295 44.1096C34.6817 44.1897 34.8397 44.3034 34.87 44.4737C34.8753 44.5031 34.8756 44.5358 34.8582 44.56C34.8302 44.5993 34.7725 44.5976 34.7251 44.5897C34.243 44.5076 33.7682 44.1815 33.3038 44.3355C33.2685 44.3471 33.2323 44.3632 33.211 44.3936C33.149 44.483 33.2581 44.5911 33.3525 44.6447C33.5944 44.782 33.8363 44.9191 34.0782 45.0565C34.1544 45.0997 34.2329 45.1439 34.3195 45.1566C34.384 45.1662 34.4499 45.1575 34.5138 45.1437C34.9695 45.0446 35.3345 44.6746 35.5231 44.2455C35.7117 43.8165 35.7448 43.3342 35.7235 42.8656C35.7002 42.3554 35.6114 41.8366 35.3647 41.3901C35.1181 40.9436 34.6946 40.5758 34.1937 40.492" fill="#FFB4AD"/>
</g>
<path d="M30.8334 26.9709C29.0639 26.9709 27.6294 28.4146 27.6294 30.1953C27.6294 31.976 29.0639 33.4197 30.8334 33.4197C32.6028 33.4197 34.0373 31.976 34.0373 30.1953C34.0371 28.4146 32.6028 26.9709 30.8334 26.9709ZM30.8334 32.9376C29.3285 32.9376 28.1087 31.71 28.1087 30.1956C28.1087 28.6811 29.3288 27.4536 30.8334 27.4536C32.3382 27.4536 33.558 28.6811 33.558 30.1956C33.558 31.7097 32.3382 32.9376 30.8334 32.9376Z" fill="#F9FBFC"/>
<path d="M33.513 32.4661C32.8437 33.14 31.7584 33.1403 31.0888 32.4667C30.4192 31.7931 30.4189 30.7009 31.0882 30.0271C31.7576 29.3532 32.8429 29.3529 33.5125 30.0265C34.1821 30.7001 34.1823 31.7926 33.513 32.4661Z" fill="#FF5359"/>
<mask id="mask30_3418_28819" style="mask-type:luminance" maskUnits="userSpaceOnUse" x="30" y="29" width="5" height="4">
<path d="M33.513 32.4661C32.8437 33.14 31.7584 33.1403 31.0888 32.4667C30.4192 31.7931 30.4189 30.7009 31.0882 30.0271C31.7576 29.3532 32.8429 29.3529 33.5125 30.0265C34.1821 30.7001 34.1823 31.7926 33.513 32.4661Z" fill="white"/>
</mask>
<g mask="url(#mask30_3418_28819)">
<path opacity="0.2" d="M33.4513 28.4446C32.8834 28.5602 32.3035 28.6849 31.8091 28.989C31.3146 29.293 30.9136 29.8154 30.911 30.3985C30.9077 31.1635 31.5806 31.7812 32.2996 32.03C32.8271 32.2125 33.4992 32.3414 33.6632 32.8779C33.8103 33.3597 33.3784 33.8671 32.8885 33.972C32.3985 34.077 31.8957 33.8911 31.4439 33.6736C30.7799 33.354 30.1257 32.9318 29.7633 32.287C29.4008 31.6424 29.4227 30.731 29.9813 30.2487" fill="#AD615C"/>
</g>
<mask id="mask31_3418_28819" style="mask-type:luminance" maskUnits="userSpaceOnUse" x="30" y="29" width="5" height="4">
<path d="M33.513 32.4661C32.8437 33.14 31.7584 33.1403 31.0888 32.4667C30.4192 31.7931 30.4189 30.7009 31.0882 30.0271C31.7576 29.3532 32.8429 29.3529 33.5125 30.0265C34.1821 30.7001 34.1823 31.7926 33.513 32.4661Z" fill="white"/>
</mask>
<g mask="url(#mask31_3418_28819)">
<path d="M31.7026 30.3761C31.7432 30.527 31.8469 30.6539 31.9661 30.7543C32.0986 30.866 32.2536 30.9509 32.4187 31.0025C32.5701 31.0496 32.734 31.0685 32.8868 31.0268C33.0396 30.985 33.1791 30.8762 33.2321 30.7258C33.3599 30.3622 32.9451 29.9383 32.6194 29.8429C32.2461 29.7335 31.5588 29.8412 31.7026 30.3761Z" fill="white"/>
</g>
<path d="M20.5686 31.6362C20.4038 31.7428 20.5936 32.3467 20.817 32.4054C21.0407 32.4641 21.6564 32.2274 21.597 32.0209C21.5376 31.8145 21.1152 31.2831 20.5686 31.6362Z" fill="#F9F257"/>
<path d="M35.3742 28.1144C35.2433 27.9677 34.6813 28.2529 34.6597 28.4845C34.6381 28.716 34.9689 29.2898 35.162 29.1975C35.3551 29.1053 35.808 28.6004 35.3742 28.1144Z" fill="#F9F257"/>
<path d="M30.0075 31.9371C30.1869 31.8575 30.0922 31.2313 29.8803 31.1385C29.6684 31.0457 29.0237 31.1837 29.0506 31.3972C29.0778 31.6102 29.4133 32.2005 30.0075 31.9371Z" fill="#F9F257"/>
<path d="M30.5297 22.9779C30.3988 22.8312 29.8368 23.1164 29.815 23.348C29.7934 23.5796 30.1241 24.1533 30.3172 24.0611C30.5106 23.9688 30.9636 23.4642 30.5297 22.9779Z" fill="#F9F257"/>
<path d="M32.2355 39.2584C32.1046 39.1118 31.5426 39.3969 31.521 39.6285C31.4994 39.8601 31.8302 40.4338 32.0233 40.3416C32.2161 40.2493 32.6694 39.7447 32.2355 39.2584Z" fill="#F9F257"/>
<path d="M27.2732 34.8094C27.1084 34.916 27.2982 35.5199 27.5216 35.5786C27.7452 35.6373 28.361 35.4006 28.3016 35.1941C28.2419 34.9871 27.8198 34.4562 27.2732 34.8094Z" fill="#F9F257"/>
<path d="M20.3454 33.6125C20.2524 33.7852 20.1716 34.1141 20.3454 34.364C20.5192 34.6139 21.1902 34.439 21.339 34.364C21.4879 34.289 21.3141 33.5254 21.1653 33.4196C21.0162 33.3138 20.4147 33.4839 20.3454 33.6125Z" fill="#F9F257"/>
<path d="M28.8283 29.4458C28.7353 29.6184 28.6546 29.9473 28.8283 30.1972C29.0021 30.4472 29.6728 30.2723 29.822 30.1972C29.9711 30.1222 29.797 29.3586 29.6482 29.2529C29.4991 29.1471 28.8978 29.3172 28.8283 29.4458Z" fill="#F9F257"/>
<path d="M37.0705 22.8439C36.9775 23.0165 36.8967 23.3454 37.0705 23.5953C37.2443 23.8452 37.915 23.6703 38.0641 23.5953C38.2133 23.5203 38.0392 22.7567 37.8904 22.6509C37.7412 22.5454 37.14 22.7153 37.0705 22.8439Z" fill="#F9F257"/>
<path d="M41.4104 31.1703C41.5379 31.0217 41.6862 30.7173 41.5688 30.4361C41.4516 30.1546 40.759 30.1825 40.5976 30.224C40.4361 30.2655 40.4451 31.0488 40.5684 31.1839C40.692 31.3187 41.3154 31.2812 41.4104 31.1703Z" fill="#F9F257"/>
<path d="M42.7107 37.9352C42.8382 37.7866 42.9865 37.4822 42.8691 37.201C42.7519 36.9195 42.0596 36.9474 41.8979 36.9889C41.7364 37.0303 41.7454 37.8137 41.8687 37.9488C41.9923 38.0839 42.6157 38.0461 42.7107 37.9352Z" fill="#F9F257"/>
<g filter="url(#filter0_d_3418_28819)">
<path d="M56.7495 14.8946L57.9022 2.93451C57.9022 2.93451 58.2428 2.57062 58.3995 2.93451L58.5306 13.5971C58.5306 13.5971 58.5306 14.1677 59.0541 14.1677C59.5794 14.1677 59.3952 13.777 59.3696 13.6221C59.3416 13.4676 59.7105 2.90623 59.7105 2.90623C59.7105 2.90623 60.0525 2.46565 60.2086 2.88115L60.5489 13.4154C60.5489 13.4154 60.4976 14.0645 61.0733 14.0645C61.0733 14.0645 61.4135 13.9618 61.3346 13.2851C61.2568 12.6106 61.3467 2.86832 61.3467 2.86832C61.3467 2.86832 61.605 2.49772 61.8401 2.79076L62.53 13.4347C62.53 13.4347 62.5085 14.019 63.0005 14.019C63.4913 14.019 63.3741 13.5125 63.3947 13.2609C63.4106 13.0046 63.2173 2.86803 63.2173 2.86803C63.2173 2.86803 63.4725 2.53767 63.6878 2.80942L64.8741 12.2482C64.8741 12.2482 65.3682 16.9908 64.4037 19.1453C64.2496 19.4835 63.4954 20.5973 63.2919 20.7913C62.0876 21.9418 61.7832 23.398 61.7832 24.2873C61.7832 25.3233 63.8896 56.568 63.8896 56.568C61.1761 58.265 58.8768 56.568 58.8768 56.568C58.8768 56.568 61.1525 28.5173 60.0507 24.3885C60.0507 24.3885 59.8539 22.2506 57.9261 20.3813C57.9267 20.3819 56.2375 18.009 56.7495 14.8946Z" fill="#9A5A1E"/>
<path d="M6.44584 23.321L6.67279 1.2746C6.67279 1.2746 6.15126 -0.268031 4.19789 1.29744C2.17784 2.92047 -0.759481 9.4783 2.37064 25.2688C2.37064 25.2688 2.96614 53.455 2.28246 58.6445C2.28246 58.6445 5.35979 60.4568 7.95701 58.484C7.95701 58.484 5.03455 30.0077 6.08836 25.3595C6.17781 24.9634 6.44584 23.321 6.44584 23.321Z" fill="#9A5A1E"/>
</g>
<defs>
<filter id="filter0_d_3418_28819" x="0.000488281" y="0.595703" width="66" height="60.8086" filterUnits="userSpaceOnUse" color-interpolation-filters="sRGB">
<feFlood flood-opacity="0" result="BackgroundImageFix"/>
<feColorMatrix in="SourceAlpha" type="matrix" values="0 0 0 0 0 0 0 0 0 0 0 0 0 0 0 0 0 0 127 0" result="hardAlpha"/>
<feOffset dy="1"/>
<feGaussianBlur stdDeviation="0.5"/>
<feComposite in2="hardAlpha" operator="out"/>
<feColorMatrix type="matrix" values="0 0 0 0 0 0 0 0 0 0 0 0 0 0 0 0 0 0 0.2 0"/>
<feBlend mode="normal" in2="BackgroundImageFix" result="effect1_dropShadow_3418_28819"/>
<feBlend mode="normal" in="SourceGraphic" in2="effect1_dropShadow_3418_28819" result="shape"/>
</filter>
</defs>
</svg>
