<svg width="24" height="24" viewBox="0 0 24 24" fill="none" xmlns="http://www.w3.org/2000/svg">
<path d="M11.9511 1.88477C10.187 3.35458 9.04307 5.07114 8.29879 7.01261C8.69929 7.59855 9.07725 8.20511 9.43448 8.8217C10.1677 8.56141 10.9564 8.41919 11.778 8.41919C12.6164 8.41919 13.4208 8.56712 14.1667 8.83778C14.5919 8.15716 15.0411 7.48516 15.521 6.83809C14.7833 5.03322 13.6738 3.36812 11.9511 1.88477ZM20.3713 3.39822C18.1803 4.73416 16.465 6.88994 14.9986 9.20256C16.0268 9.73562 16.9063 10.5161 17.5597 11.464C18.6478 10.4087 19.8194 9.37136 21.1025 8.33181C21.0612 6.83392 20.8307 5.18964 20.3713 3.39822ZM3.82298 3.4495C3.38072 5.22887 3.14643 6.85708 3.08517 8.33716C4.19236 9.27831 5.21578 10.2312 6.16861 11.2248C6.81407 10.3675 7.65051 9.66175 8.6152 9.17289C7.28695 6.91141 5.68682 4.82434 3.82298 3.4495ZM1.26407 7.98231C0.454778 13.047 1.46667 16.7888 3.38737 19.2896C4.43864 20.6584 5.76721 21.6625 7.23712 22.3067C6.25781 20.6222 6.01964 18.7077 6.45839 16.8639C6.6772 15.9444 7.06064 15.0422 7.59623 14.1878C5.80842 11.9327 3.74859 9.96859 1.26403 7.98236L1.26407 7.98231ZM22.9479 8.00406C20.1415 10.1565 17.8663 12.2548 15.8529 14.5016C16.3041 15.3334 16.6141 16.1966 16.7774 17.0672C17.1092 18.8381 16.8248 20.636 15.9191 22.22C17.4284 21.5518 18.8256 20.533 19.9742 19.1631C22.0827 16.6487 23.3677 12.9439 22.948 8.00411L22.9479 8.00406ZM11.778 9.29509C9.71128 9.29509 7.8862 10.3107 6.77343 11.8711C7.23695 12.3793 7.68466 12.9017 8.11593 13.4376C8.98546 12.2932 10.1421 11.2589 11.5552 10.4178L11.793 10.2763L12.023 10.4303C13.4472 11.384 14.5717 12.508 15.3816 13.7202C15.8844 13.1635 16.4003 12.6188 16.929 12.0866C15.8343 10.405 13.9382 9.29509 11.778 9.29509ZM11.7654 11.3192C9.34762 12.832 7.81903 14.9301 7.31067 17.0667C6.79785 19.2215 7.29651 21.41 8.99751 23.1889H14.1024C15.7339 21.4836 16.3159 19.3615 15.9163 17.2287C15.5194 15.1111 14.1356 12.9803 11.7655 11.3193L11.7654 11.3192Z" fill="#222326" style="mix-blend-mode:luminosity"/>
</svg>
