<svg width="20" height="20" viewBox="0 0 20 20" fill="none" xmlns="http://www.w3.org/2000/svg">
<path d="M8 19V10M11 6H5.5C4.83696 6 4.20107 5.73661 3.73223 5.26777C3.26339 4.79893 3 4.16304 3 3.5C3 2.83696 3.26339 2.20107 3.73223 1.73223C4.20107 1.26339 4.83696 1 5.5 1C7 1 8.375 2.25 9.375 3.5M12 19V10M3 10H17V18C17 18.2652 16.8946 18.5196 16.7071 18.7071C16.5196 18.8946 16.2652 19 16 19H4C3.73478 19 3.48043 18.8946 3.29289 18.7071C3.10536 18.5196 3 18.2652 3 18V10ZM2 6H18C18.2652 6 18.5196 6.10536 18.7071 6.29289C18.8946 6.48043 19 6.73478 19 7V10H1V7C1 6.73478 1.10536 6.48043 1.29289 6.29289C1.48043 6.10536 1.73478 6 2 6ZM14.155 1C11.155 1 8.655 6 8.655 6H14.155C14.818 6 15.4539 5.73661 15.9228 5.26777C16.3916 4.79893 16.655 4.16304 16.655 3.5C16.655 2.83696 16.3916 2.20107 15.9228 1.73223C15.4539 1.26339 14.818 1 14.155 1Z" stroke="#222326" stroke-width="2" stroke-linecap="round" stroke-linejoin="round" style="mix-blend-mode:luminosity"/>
</svg>
