<svg width="24" height="24" viewBox="0 0 24 24" fill="none" xmlns="http://www.w3.org/2000/svg">
<g clip-path="url(#clip0_3375_9070)">
<path d="M12 23.998C18.6275 23.998 24 18.6255 24 11.998C24 5.37151 18.6275 -0.000488281 12 -0.000488281C5.3725 -0.000488281 0 5.37101 0 11.9985C0 18.626 5.3725 23.998 12 23.998Z" fill="#FABC3D" fill-opacity="0.5"/>
<path d="M5.9275 6.3256C5.92777 5.97851 6.06576 5.64572 6.31119 5.40029C6.55662 5.15486 6.88941 5.01687 7.2365 5.0166H16.8365C17.1836 5.01687 17.5164 5.15486 17.7618 5.40029C18.0072 5.64572 18.1452 5.97851 18.1455 6.3256V17.6706C18.1452 18.0177 18.0072 18.3505 17.7618 18.5959C17.5164 18.8413 17.1836 18.9793 16.8365 18.9796H7.2365C6.88933 18.9795 6.5564 18.8415 6.31087 18.5961C6.06533 18.3506 5.92727 18.0178 5.927 17.6706L5.9275 6.3256Z" fill="#84462D"/>
<path d="M7.23657 7.63523C7.23638 7.5779 7.24752 7.52109 7.26935 7.46807C7.29119 7.41506 7.32329 7.36688 7.36381 7.32632C7.40432 7.28575 7.45246 7.2536 7.50545 7.2317C7.55844 7.2098 7.61524 7.1986 7.67258 7.19873H16.4001C16.4575 7.19853 16.5143 7.20969 16.5674 7.23156C16.6204 7.25342 16.6686 7.28557 16.7092 7.32614C16.7497 7.36671 16.7819 7.41491 16.8038 7.46796C16.8256 7.52101 16.8368 7.57786 16.8366 7.63523V16.7982C16.8366 16.9129 16.814 17.0264 16.7701 17.1322C16.7262 17.2381 16.6619 17.3343 16.5808 17.4154C16.4998 17.4964 16.4035 17.5606 16.2976 17.6045C16.1917 17.6483 16.0782 17.6708 15.9636 17.6707H8.10908C7.87767 17.6707 7.65575 17.5788 7.49212 17.4152C7.3285 17.2516 7.23657 17.0296 7.23657 16.7982V7.63523Z" fill="#CFD3D4"/>
<path d="M16.4001 7.19873C16.4575 7.19853 16.5143 7.20969 16.5674 7.23156C16.6204 7.25342 16.6686 7.28557 16.7092 7.32614C16.7497 7.36671 16.7819 7.41491 16.8038 7.46796C16.8256 7.52101 16.8368 7.57786 16.8366 7.63523V16.5802C16.8364 16.6959 16.7904 16.8068 16.7086 16.8886C16.6267 16.9703 16.5158 17.0162 16.4001 17.0162H7.67258C7.55706 17.0158 7.44639 16.9698 7.36471 16.8881C7.28303 16.8064 7.23697 16.6957 7.23657 16.5802V7.63523C7.23638 7.5779 7.24752 7.52109 7.26935 7.46807C7.29119 7.41506 7.32329 7.36688 7.36381 7.32632C7.40432 7.28575 7.45246 7.2536 7.50545 7.2317C7.55844 7.2098 7.61524 7.1986 7.67258 7.19873H16.4001Z" fill="white"/>
<path d="M13.3455 6.3256C13.3455 5.97843 13.2076 5.64548 12.9621 5.4C12.7166 5.15451 12.3836 5.0166 12.0365 5.0166C11.6893 5.0166 11.3564 5.15451 11.1109 5.4C10.8654 5.64548 10.7275 5.97843 10.7275 6.3256H9.85447C9.7387 6.3256 9.62768 6.37159 9.54582 6.45345C9.46396 6.53531 9.41797 6.64633 9.41797 6.7621V7.8531C9.4181 7.96878 9.46415 8.07968 9.54599 8.16143C9.62784 8.24318 9.73879 8.2891 9.85447 8.2891H14.218C14.2753 8.2893 14.3321 8.27816 14.3851 8.25633C14.4381 8.23449 14.4863 8.20239 14.5269 8.16187C14.5675 8.12135 14.5996 8.07321 14.6215 8.02022C14.6434 7.96723 14.6546 7.91044 14.6545 7.8531V6.7621C14.6547 6.70472 14.6435 6.64787 14.6216 6.59483C14.5998 6.54178 14.5676 6.49358 14.5271 6.45301C14.4865 6.41244 14.4383 6.38029 14.3852 6.35842C14.3322 6.33656 14.2753 6.3254 14.218 6.3256H13.3455Z" fill="#FACB1B"/>
<path d="M15.5274 9.81641H8.54492V10.2529H15.5269L15.5274 9.81641ZM15.5274 11.1249H8.54492V11.5614H15.5269L15.5274 11.1249ZM15.5274 12.4344H8.54492V12.8704H15.5269L15.5274 12.4344ZM12.9094 13.7434H8.54492V14.1799H12.9089L12.9094 13.7434Z" fill="#E2E4E5"/>
<path d="M14.218 6.3256H13.3455C13.3455 5.97843 13.2076 5.64548 12.9621 5.4C12.7166 5.15451 12.3836 5.0166 12.0365 5.0166C11.6893 5.0166 11.3564 5.15451 11.1109 5.4C10.8654 5.64548 10.7275 5.97843 10.7275 6.3256H9.85447C9.7387 6.3256 9.62768 6.37159 9.54582 6.45345C9.46396 6.53531 9.41797 6.64633 9.41797 6.7621V7.1986H14.655V6.7621C14.6552 6.70472 14.644 6.64787 14.6221 6.59483C14.6003 6.54178 14.5681 6.49358 14.5276 6.45301C14.487 6.41244 14.4388 6.38029 14.3857 6.35842C14.3327 6.33656 14.2753 6.3254 14.218 6.3256Z" fill="#FBE158"/>
</g>
<defs>
<clipPath id="clip0_3375_9070">
<rect width="24" height="24" fill="white"/>
</clipPath>
</defs>
</svg>
