<svg width="48" height="48" viewBox="0 0 48 48" fill="none" xmlns="http://www.w3.org/2000/svg">
<g filter="url(#filter0_d_3473_10042)">
<rect x="4" y="3" width="40" height="40" rx="20" fill="white"/>
<path d="M14.0316 26.2719C13.8074 27.8299 14.8084 28.9106 16.0337 29.4493C20.7316 31.5169 27.2684 31.5169 31.9663 29.4493C33.1916 28.9106 34.1926 27.8288 33.9684 26.2719C33.8316 25.3141 33.1505 24.5173 32.6463 23.7383C31.9863 22.7056 31.921 21.5802 31.92 20.3821C31.921 15.7529 28.3758 12 24 12C19.6242 12 16.079 15.7529 16.079 20.3821C16.079 21.5802 16.0137 22.7067 15.3526 23.7383C14.8495 24.5173 14.1695 25.3141 14.0316 26.2719Z" stroke="#0E1114" stroke-width="2" stroke-linecap="round" stroke-linejoin="round"/>
<path d="M20.6313 31C21.017 32.5525 22.3796 33.7 23.9998 33.7C25.6208 33.7 26.9817 32.5525 27.3682 31" stroke="#0E1114" stroke-width="1.5" stroke-linecap="round" stroke-linejoin="round"/>
</g>
<defs>
<filter id="filter0_d_3473_10042" x="0" y="0" width="48" height="48" filterUnits="userSpaceOnUse" color-interpolation-filters="sRGB">
<feFlood flood-opacity="0" result="BackgroundImageFix"/>
<feColorMatrix in="SourceAlpha" type="matrix" values="0 0 0 0 0 0 0 0 0 0 0 0 0 0 0 0 0 0 127 0" result="hardAlpha"/>
<feOffset dy="1"/>
<feGaussianBlur stdDeviation="2"/>
<feComposite in2="hardAlpha" operator="out"/>
<feColorMatrix type="matrix" values="0 0 0 0 0 0 0 0 0 0 0 0 0 0 0 0 0 0 0.02 0"/>
<feBlend mode="normal" in2="BackgroundImageFix" result="effect1_dropShadow_3473_10042"/>
<feBlend mode="normal" in="SourceGraphic" in2="effect1_dropShadow_3473_10042" result="shape"/>
</filter>
</defs>
</svg>
