<svg width="92" height="70" viewBox="0 0 92 70" fill="none" xmlns="http://www.w3.org/2000/svg">
<rect width="92" height="70" rx="12" fill="#DCE2EA"/>
<path d="M46.0868 53.387C65.3516 53.387 80.9688 51.1991 80.9688 48.5C80.9688 45.801 65.3516 43.613 46.0868 43.613C26.822 43.613 11.2048 45.801 11.2048 48.5C11.2048 51.1991 26.822 53.387 46.0868 53.387Z" fill="#F2F2F2"/>
<path d="M66.6576 20.9324C64.3109 22.0518 64.2691 21.4846 62.3384 21.589C60.4078 21.6934 60.1814 22.1403 56.7235 25.4677C53.2666 28.795 51.7285 30.028 50.2423 29.8618C48.7561 29.6947 46.5431 28.3105 44.5832 28.8418C42.6224 29.3722 41.6759 31.4891 40.9725 32.1357C40.269 32.7823 36.7502 34.3495 34.34 36.0478C31.9307 37.7461 31.6257 37.4546 29.8864 37.4888C28.147 37.5231 27.3676 38.4662 23.954 40.4803C20.142 42.7292 18.4427 42.6197 18.3191 42.0375C18.2656 41.7869 16.6683 41.9155 15.3959 42.0684C14.1236 42.2213 13.294 41.786 13.2146 42.8027C13.1353 43.8194 13.5471 46.6087 14.1144 46.7006C14.6816 46.7925 15.3466 46.8894 14.8922 47.3672C14.4377 47.8451 15.4327 49.368 15.7593 50.3412C16.086 51.3152 18.8395 51.885 19.4686 51.4823C20.0985 51.0797 20.5079 49.7898 19.7201 49.7857C18.5923 49.7798 17.7928 47.7891 18.7151 47.1509C19.6374 46.5118 18.969 46.3773 18.8078 45.9086C18.6466 45.44 21.6833 44.4409 24.9699 43.7609C28.2556 43.0809 31.9783 41.7351 33.0785 41.5446C34.1788 41.3533 34.3124 40.8537 35.35 40.9498C36.3868 41.0459 41.6032 40.4018 44.518 39.0109C47.4336 37.62 49.8029 35.4839 51.5782 35.5023C53.3534 35.5198 57.1179 34.2074 58.914 33.3645C60.711 32.5216 62.9951 31.0522 64.0853 29.7047C65.1755 28.3573 65.0043 25.8327 65.742 25.045C66.4805 24.2572 67.6492 24.1795 68.3919 24.1386C69.1346 24.0976 66.6576 20.9324 66.6576 20.9324Z" fill="#FFD1A3"/>
<path d="M18.3433 42.0963C18.335 42.0771 18.3241 42.0579 18.3191 42.037C18.2656 41.7864 16.6683 41.915 15.3959 42.0679C14.1236 42.2208 13.294 41.7855 13.2146 42.8022C13.1353 43.8188 13.5471 46.6082 14.1144 46.7001C14.6816 46.792 15.3466 46.8889 14.8922 47.3667C14.4377 47.8446 15.4327 49.3675 15.7593 50.3407C16.086 51.3147 18.8395 51.8845 19.4686 51.4818C20.0985 51.0792 20.5079 49.7893 19.7201 49.7851C18.5923 49.7793 17.7928 47.7886 18.7151 47.1504C19.1035 46.8814 19.208 46.7018 19.1888 46.5489C19.1996 46.3425 18.6825 45.7001 18.568 45.589C18.1929 45.2265 17.7343 46.1462 17.4954 46.3292C17.2573 46.5121 18.2372 42.9367 18.3433 42.0963Z" fill="#C9C9C9"/>
<path d="M52.5264 29.1223C51.6325 29.7129 50.9315 29.9401 50.244 29.8624C48.7578 29.6954 46.5447 28.3111 44.5848 28.8416C42.6241 29.3721 41.6775 31.4889 40.9741 32.1355C40.2707 32.7821 36.7519 34.3493 34.3417 36.0476C34.0885 36.2264 33.8621 36.3784 33.6516 36.5163C34.2606 38.192 34.8713 39.7626 35.345 40.9513C35.3475 40.9513 35.3492 40.9513 35.3517 40.9513C36.3885 41.0474 41.6049 40.4033 44.5196 39.0124C47.4353 37.6215 49.8045 35.4854 51.5798 35.5029C52.1362 35.5088 52.8873 35.3835 53.7127 35.183C53.4102 33.5014 52.9173 30.8448 52.5264 29.1223Z" fill="#2D2D3D"/>
<path d="M61.9659 21.7093C60.4412 21.5172 60.1622 22.1587 56.7228 25.4685C53.2658 28.7959 49.696 29.7649 49.3953 29.6772L51.473 35.509C51.5072 35.5082 51.5431 35.5023 51.5774 35.5023C53.3527 35.5198 57.1171 34.2075 58.9133 33.3646C60.7103 32.5217 63.6301 31.4031 64.4647 29.8844C67.0703 25.1427 64.4855 22.0276 61.9659 21.7093Z" fill="#5D5D5D"/>
<path d="M74.2558 21.9845C73.7361 22.9176 73.0235 23.8273 72.8205 24.0019C72.6175 24.1765 72.2908 23.9092 72.0586 24.2225C71.8263 24.5357 71.5624 25.0913 71.407 25.5875C71.2558 26.0728 70.9725 26.0302 70.7202 25.7654C70.4679 25.4998 70.4663 25.5156 70.2599 25.6777C70.0544 25.8398 70.0577 25.808 69.9608 25.7395C69.8631 25.671 69.7278 25.9225 69.5983 25.8506C69.4688 25.7788 69.2841 25.7646 69.046 25.9225C68.808 26.0804 68.6542 26.346 68.3176 26.0461C67.9801 25.7462 67.7077 24.565 67.2699 24.4923C66.6225 24.3862 65.5272 24.7437 65.5272 24.7437L64.5439 21.7389C64.5439 21.7389 65.6701 21.3153 65.9424 21.0714C66.2148 20.8283 67.4922 18.5627 68.1864 18.1183C68.8806 17.6739 70.2566 17.0265 71.7938 17.4701C73.3301 17.9137 75.0076 20.6353 74.2558 21.9845Z" fill="#FFD1A3"/>
<path d="M62.6742 44.8929C63.2481 45.4835 64.1595 45.075 65.3108 45.3766C66.5305 45.6957 70.6675 45.0374 68.3743 44.4877C67.1286 44.1887 65.7819 43.9188 65.0008 43.8186C64.2197 43.7183 63.751 42.7368 63.7026 41.964C63.68 41.6023 63.7477 40.371 63.8563 38.9834C62.8571 39.0444 61.8563 39.2749 60.9448 39.6166C61.4319 41.8053 62.2498 44.456 62.6742 44.8929Z" fill="#FFD1A3"/>
<path d="M62.6742 44.8929C63.2481 45.4835 64.1595 45.075 65.3108 45.3766C66.5305 45.6957 70.6675 45.0374 68.3743 44.4877C67.1286 44.1887 65.7819 43.9188 65.0008 43.8186C64.2197 43.7183 63.751 42.7368 63.7026 41.964C63.68 41.6023 63.7477 40.371 63.8563 38.9834C62.8571 39.0444 61.8563 39.2749 60.9448 39.6166C61.4319 41.8053 62.2498 44.456 62.6742 44.8929Z" fill="#8A8A8A"/>
<path d="M74.2174 19.8276C74.6125 20.7775 74.3727 22.0397 74.285 22.3697C74.1965 22.6997 74.219 22.8567 74.219 22.8567C74.219 22.8567 74.265 23.0814 74.0778 22.6771C73.8907 22.2736 74.0244 22.9227 73.9567 22.8734C73.8899 22.825 73.7069 22.2611 73.3986 22.0163C73.0904 21.7716 72.813 21.7139 72.8364 21.8551C72.8606 21.9963 72.6351 21.7089 72.3393 21.6663C72.0444 21.6229 71.7654 21.9871 71.4822 21.9779C71.199 21.9687 70.671 22.5869 70.4805 22.4181C70.29 22.2494 70.1154 22.0096 70.5072 21.5126C70.899 21.0155 70.1021 20.7582 69.6259 21.1475C69.1497 21.5368 69.2265 21.8384 68.5097 21.5903C67.7929 21.3422 66.5005 21.1617 66.1229 21.1918C65.7453 21.221 65.4705 20.9596 65.4705 20.9596C65.4705 20.9596 65.7913 20.856 65.8497 20.7741C65.9082 20.6922 67.1204 17.9564 68.5348 17.1143C69.9492 16.2722 72.2733 16.3198 73.6869 18.6004C74.2048 19.4358 74.5039 20.0824 74.3811 20.0373C74.26 19.993 74.2174 19.8276 74.2174 19.8276Z" fill="#3D311E"/>
<path d="M50.1886 31.9004C47.8703 31.8854 45.0532 32.1828 42.7391 34.2679C40.425 36.353 40.4058 36.7974 40.4058 36.7974C40.4058 36.7974 43.4734 33.4016 45.7182 33.2295C47.9622 33.0574 50.7274 33.4125 50.7274 33.4125L50.1886 31.9004Z" fill="#595959"/>
<path d="M63.5279 22.2268C65.0275 23.352 65.284 25.5157 64.5488 27.5891C63.8137 29.6625 63.7903 31.36 63.4669 33.3482C63.1436 35.3356 64.3617 36.6906 64.0551 38.4691C63.7485 40.2468 63.3884 44.9801 63.4369 45.752C63.4853 46.5239 63.9532 47.5063 64.7351 47.6065C65.5162 47.7068 66.8629 47.9766 68.1086 48.2757C70.401 48.8253 66.2648 49.4836 65.0451 49.1645C63.8938 48.8638 62.9816 49.2714 62.4085 48.6808C61.8345 48.0902 60.543 43.4639 60.3241 41.3904C60.1052 39.317 60.2865 37.6045 60.3917 35.4809C60.4978 33.3574 59.6232 31.1278 59.7217 29.4286C59.8195 27.7294 58.9966 25.5516 60.142 23.8399C61.2865 22.1282 63.1737 21.9603 63.5279 22.2268Z" fill="#FFD1A3"/>
</svg>
