<svg width="20" height="20" viewBox="0 0 20 20" fill="none" xmlns="http://www.w3.org/2000/svg">
<rect width="20" height="20" rx="10" fill="#A3B7CA" fill-opacity="0.2"/>
<path d="M9.23011 6.31178L3.40698 8.29694C3.40698 8.29694 3.44745 8.68303 3.61808 9.01553C3.83136 9.43007 4.25026 9.93647 5.05745 10.118C6.25073 10.386 7.6737 9.95178 9.04854 9.03085C10.4234 8.10991 11.1704 6.58085 10.8959 5.38428C10.641 4.27522 9.94979 3.98866 9.44011 3.93725C9.23995 3.91757 8.90745 3.93397 8.75979 3.98647C8.53011 4.06632 9.23011 6.31178 9.23011 6.31178Z" fill="#871E0C"/>
<path d="M6.60946 5.53304C5.80227 6.11164 4.34649 5.94429 3.61258 7.23054C2.95852 8.37898 3.80946 9.60398 4.9043 9.60398C5.98711 9.60398 7.41993 9.10304 8.48852 8.39539C9.60415 7.65601 11.1059 5.32632 9.90383 4.3507C8.54868 3.25039 7.65836 4.78164 6.60946 5.53304Z" fill="#A62714"/>
<path d="M7.5357 5.24772C7.41101 5.22585 7.30273 5.52116 6.74273 5.88757C5.98585 6.38304 5.52538 6.29335 5.58007 6.546C5.62382 6.74835 6.05695 6.87632 6.63445 6.69038C7.61663 6.37429 7.84195 5.30241 7.5357 5.24772Z" fill="#FBCB89"/>
<path d="M8.09574 5.18307C7.84855 5.04854 7.98417 4.72041 8.28495 4.45244C8.6098 4.16369 8.98824 4.19104 9.07792 4.33541C9.19167 4.51697 8.90949 4.74447 8.74433 4.89432C8.54636 5.07588 8.39324 5.34604 8.09574 5.18307ZM4.86589 6.9276C4.66683 6.67822 4.27636 6.91557 4.04558 7.2251C3.78417 7.57619 3.64964 8.4326 4.00949 8.46869C4.27964 8.49604 4.27964 7.99073 4.46011 7.75666C4.64058 7.5226 5.08136 7.19776 4.86589 6.9276Z" fill="#D16250"/>
<path d="M12.4643 6.83478C12.4643 6.83478 12.682 6.16322 12.986 6.19494C13.3021 6.22775 13.6062 6.26494 14.0141 6.82056C14.4735 7.44509 14.642 8.32337 14.981 8.74884C15.8954 9.894 16.4466 9.99791 16.5866 11.1704C16.7201 12.286 15.9282 13.732 14.2963 13.4268C12.3221 13.0582 11.4668 10.6629 11.4668 10.6629L12.4643 6.83478Z" fill="#871E0C"/>
<path d="M11.4218 6.78776C10.9209 7.39041 10.9154 8.35401 10.9876 8.91291C11.0598 9.47182 11.4864 11.2623 12.2345 12.0465C12.9826 12.8307 14.0753 13.2912 14.8595 13.021C15.6437 12.7509 16.0528 12.1592 15.9106 11.2218C15.834 10.7165 15.5135 10.2779 15.0542 9.94432C14.5948 9.61072 13.8007 8.73682 13.8007 8.73682C13.8007 8.73682 13.5754 7.56541 13.5306 7.15088C13.4857 6.73635 13.489 6.34479 13.1489 6.22776C12.8995 6.14026 11.9534 6.14791 11.4218 6.78776Z" fill="#A62714"/>
<path d="M12.3855 6.83457C12.216 6.67926 12.0092 6.7941 11.9283 6.93519C11.8561 7.06098 11.8145 7.21629 11.9458 7.3191C12.1077 7.44488 12.2389 7.34863 12.3669 7.2141C12.4631 7.11129 12.4938 6.93301 12.3855 6.83457ZM11.6286 7.67676C11.4624 7.7041 11.2841 7.94691 11.3891 8.87441C11.5149 9.98238 12.0366 10.8629 12.4074 11.3725C12.7913 11.8997 13.1642 11.8111 13.1686 11.7564C13.1806 11.6011 12.9345 11.3671 12.636 10.7918C12.1875 9.93098 11.9195 9.03519 11.8813 8.56379C11.8266 7.89332 11.8441 7.64176 11.6286 7.67676Z" fill="#D16250"/>
<path d="M13.4945 7.75454C13.4059 7.82673 13.2834 8.36595 13.839 9.27923C14.4876 10.3456 15.0487 10.1597 15.0969 10.0459C15.145 9.9322 14.7097 9.57126 14.5161 9.30439C14.1694 8.82642 14.0611 8.59017 13.8358 8.14283C13.7384 7.94923 13.5897 7.67689 13.4945 7.75454Z" fill="#FBCB89"/>
<path d="M8.51457 13.4563C8.48722 13.4475 4.58363 12.2947 4.58363 12.2947C4.58363 12.2947 4.54425 12.4118 4.52238 12.6032C4.47754 12.9925 4.52238 13.6565 4.85488 14.2307C5.13707 14.7174 5.59972 15.0991 6.2341 15.3857C6.62457 15.5629 7.12441 15.7105 7.808 15.8527C9.79972 16.2661 12.2147 15.7061 12.4619 13.8325C12.5625 13.0724 12.1228 12.4763 11.7433 12.1832C11.1877 11.7533 10.5894 11.8321 10.5894 11.8321L8.51457 13.4563Z" fill="#871E0C"/>
<path d="M9.12927 11.8409C7.83536 11.8409 7.25677 11.0052 6.13677 11.0785C5.36348 11.1288 4.9063 11.5652 4.72255 11.9327C4.5388 12.3002 4.34958 12.9412 4.79583 13.4476C5.28255 13.9988 6.0438 14.7973 8.39427 15.2009C10.7797 15.611 11.9566 14.1727 12.0572 13.347C12.1579 12.5212 11.6996 11.9612 11.0204 11.8595C10.3411 11.7577 9.37864 11.8409 9.12927 11.8409Z" fill="#A62714"/>
<path d="M7.64193 11.9053C7.51943 12.0311 7.86834 12.7234 8.73787 12.7748C9.6074 12.8262 9.94318 12.2695 9.83381 12.1973C9.76928 12.1547 9.08349 12.1798 8.75318 12.1459C8.18224 12.0891 7.71303 11.8331 7.64193 11.9053Z" fill="#FBCB89"/>
<path d="M6.81173 11.8222C6.6958 12.2258 5.9958 11.8977 5.57142 12.1613C5.11642 12.4424 4.97205 12.9619 4.86486 12.9619C4.70626 12.9619 4.69533 12.0453 5.50689 11.5914C6.11283 11.2524 6.89376 11.5378 6.81173 11.8222Z" fill="#D16250"/>
</svg>
