<svg width="92" height="70" viewBox="0 0 92 70" fill="none" xmlns="http://www.w3.org/2000/svg">
<rect width="92" height="70" rx="12" fill="#DCE2EA"/>
<path d="M75.6461 41.4114C75.6461 42.9853 61.5999 44.2615 44.2733 44.2615C26.9467 44.2615 12.9004 42.9853 12.9004 41.4114C12.9004 39.8374 26.9467 38.5613 44.2733 38.5613C61.6005 38.5613 75.6461 39.8367 75.6461 41.4114Z" fill="#F2F2F2"/>
<path d="M17.4328 37.738C18.0648 37.6396 22.0627 37.5904 24.9237 37.6208C25.9519 36.0751 27.3181 34.4062 29.1939 32.6294C29.1912 32.6287 29.1886 32.6274 29.1859 32.6267C27.1671 32.0041 22.8465 34.3711 19.1408 35.2302C15.4351 36.0893 16.4707 34.9903 15.9837 34.6427C15.4968 34.2957 12.5272 33.7506 12.1873 34.8232C11.8474 35.8959 11.744 38.4899 11.9892 38.6314C12.2343 38.7729 12.8472 39.1267 12.547 40.0417C12.2469 40.956 11.589 42.6856 13.3686 43.6484C15.1489 44.6106 16.4694 44.1046 15.9692 43.4031C15.4689 42.7024 15.2092 42.2389 15.7214 40.8866C16.2335 39.5343 16.5867 38.8154 17.0438 38.5189C17.5023 38.2231 16.6695 37.8573 17.4328 37.738Z" fill="#FFD1A3"/>
<path d="M17.4328 37.738C18.0648 37.6396 22.0627 37.5904 24.9237 37.6208C25.9519 36.0751 27.3181 34.4062 29.1939 32.6294C29.1912 32.6287 29.1886 32.6274 29.1859 32.6267C27.1671 32.0041 22.8465 34.3711 19.1408 35.2302C15.4351 36.0893 16.4707 34.9903 15.9837 34.6427C15.4968 34.2957 12.5272 33.7506 12.1873 34.8232C11.8474 35.8959 11.744 38.4899 11.9892 38.6314C12.2343 38.7729 12.8472 39.1267 12.547 40.0417C12.2469 40.956 11.589 42.6856 13.3686 43.6484C15.1489 44.6106 16.4694 44.1046 15.9692 43.4031C15.4689 42.7024 15.2092 42.2389 15.7214 40.8866C16.2335 39.5343 16.5867 38.8154 17.0438 38.5189C17.5023 38.2231 16.6695 37.8573 17.4328 37.738Z" fill="#E6E6E6"/>
<path d="M17.0513 38.5186C17.4263 38.2753 16.9347 37.9863 17.1666 37.8239C17.1216 37.6373 17.0341 37.5045 16.8512 37.3974C16.4603 37.1683 15.4069 38.0961 15.442 37.6379C15.4744 37.2162 15.8011 35.7446 16.2218 35.1948C16.1436 34.9988 16.1695 34.7697 15.9906 34.6423C15.5036 34.2953 12.534 33.7502 12.1941 34.8229C11.8542 35.8956 11.7509 38.4896 11.996 38.6311C12.2411 38.7726 12.854 39.1263 12.5539 40.0413C12.2537 40.9556 11.5958 42.6852 13.3754 43.6481C15.1557 44.6102 16.4762 44.1042 15.976 43.4028C15.4758 42.7021 15.216 42.2385 15.7282 40.8862C16.241 39.534 16.5942 38.815 17.0513 38.5186Z" fill="#C9C9C9"/>
<path d="M63.9974 38.4006C65.9288 38.4168 66.1839 38.5953 65.673 38.0112C65.1622 37.427 63.9285 36.9857 62.449 36.7128C62.1018 36.6488 60.9973 36.1973 60.3275 33.8923C60.0764 33.0292 59.6166 32.2396 59.5669 31.0315C58.74 30.9776 58.0907 31.0207 57.0684 31.7349C57.6587 33.321 58.5174 33.825 58.7996 34.589C59.4059 36.2283 60.2308 37.398 61.1405 38.0037C62.2933 38.7698 62.066 38.3844 63.9974 38.4006Z" fill="#FFD1A3"/>
<path d="M63.9974 38.4006C65.9288 38.4168 66.1839 38.5953 65.673 38.0112C65.1622 37.427 63.9285 36.9857 62.449 36.7128C62.1018 36.6488 60.9973 36.1973 60.3275 33.8923C60.0764 33.0292 59.6166 32.2396 59.5669 31.0315C58.74 30.9776 58.0907 31.0207 57.0684 31.7349C57.6587 33.321 58.5174 33.825 58.7996 34.589C59.4059 36.2283 60.2308 37.398 61.1405 38.0037C62.2933 38.7698 62.066 38.3844 63.9974 38.4006Z" fill="#E6E6E6"/>
<path d="M60.7324 37.2681C61.277 38.1763 62.3193 39.0516 62.7691 39.065C63.219 39.0785 62.9586 38.8205 62.5558 38.1669C62.1529 37.5126 60.7324 37.2681 60.7324 37.2681Z" fill="#FFD1A3"/>
<path d="M60.7324 37.2681C61.277 38.1763 62.3193 39.0516 62.7691 39.065C63.219 39.0785 62.9586 38.8205 62.5558 38.1669C62.1529 37.5126 60.7324 37.2681 60.7324 37.2681Z" fill="#E6E6E6"/>
<path d="M17.0513 38.5186C17.4263 38.2753 16.9347 37.9863 17.1666 37.8239C17.1216 37.6373 17.0341 37.5045 16.8512 37.3974C16.4603 37.1683 15.4069 38.0961 15.442 37.6379C15.4744 37.2162 15.8011 35.7446 16.2218 35.1948C16.1436 34.9988 16.1695 34.7697 15.9906 34.6423C15.5036 34.2953 12.534 33.7502 12.1941 34.8229C11.8542 35.8956 11.7509 38.4896 11.996 38.6311C12.2411 38.7726 12.854 39.1263 12.5539 40.0413C12.2537 40.9556 11.5958 42.6852 13.3754 43.6481C15.1557 44.6102 16.4762 44.1042 15.976 43.4028C15.4758 42.7021 15.216 42.2385 15.7282 40.8862C16.241 39.534 16.5942 38.815 17.0513 38.5186Z" fill="#E6E6E6"/>
<path d="M55.5168 27.7655C55.3392 28.5194 55.593 31.4888 56.2721 34.1576C57.413 34.2587 58.6984 34.159 59.9679 33.9023C60.0315 32.7676 60.1978 31.8796 60.1368 31.6094C60.0282 31.1297 60.0282 31.1297 60.0282 31.1297C60.0282 31.1297 62.0145 31.8001 62.9269 31.8425C63.0938 31.8499 63.2886 31.8499 63.4967 31.8459C63.8909 30.6944 63.8445 29.1191 63.3204 26.9812C62.7095 27.0607 61.7979 27.0701 61.2612 27.1126C58.4844 27.3309 55.7706 26.6861 55.5168 27.7655Z" fill="#FFD1A3"/>
<path d="M55.5168 27.7655C55.3392 28.5194 55.593 31.4888 56.2721 34.1576C57.413 34.2587 58.6984 34.159 59.9679 33.9023C60.0315 32.7676 60.1978 31.8796 60.1368 31.6094C60.0282 31.1297 60.0282 31.1297 60.0282 31.1297C60.0282 31.1297 62.0145 31.8001 62.9269 31.8425C63.0938 31.8499 63.2886 31.8499 63.4967 31.8459C63.8909 30.6944 63.8445 29.1191 63.3204 26.9812C62.7095 27.0607 61.7979 27.0701 61.2612 27.1126C58.4844 27.3309 55.7706 26.6861 55.5168 27.7655Z" fill="#E6E6E6"/>
<path d="M72.4921 28.7683C71.7772 29.0849 70.845 29.8948 68.9964 28.1349C67.1479 26.375 59.0786 29.529 55.9652 29.783C52.8512 30.037 52.5994 29.69 49.3429 28.3276C46.0864 26.9652 44.269 29.0175 43.1202 29.8611C41.9706 30.7054 39.7517 31.1602 36.4614 32.6526C33.1712 34.145 30.3811 32.4511 28.2351 32.0718C26.0891 31.6925 21.9547 34.6706 18.2636 36.0255C14.5724 37.3805 15.498 36.1212 14.9561 35.8274C14.4141 35.5337 11.3034 35.3551 11.088 36.4985C10.8727 37.6413 11.0874 40.3128 11.3557 40.4267C11.6241 40.5405 12.2959 40.8249 12.1018 41.8005C11.9076 42.7761 11.4472 44.6331 13.3904 45.3911C15.3337 46.1491 16.6244 45.4612 16.0248 44.8069C15.4258 44.1527 15.1018 43.7113 15.4596 42.2594C15.8174 40.808 16.0897 40.0258 16.5217 39.6639C16.9537 39.3015 16.0546 39.0333 16.8225 38.8136C17.5904 38.594 23.4083 37.8185 26.1301 37.5597C28.8519 37.3017 30.0585 36.8186 31.7937 37.3926C33.5289 37.9667 39.1137 39.0319 43.6582 38.7112C48.2027 38.3905 49.7219 36.7579 51.3405 36.5774C52.9592 36.3968 57.8157 36.353 60.3958 36.4029C62.9758 36.4527 63.5615 36.9089 65.1516 36.797C66.7417 36.6845 68.7255 35.1564 69.7597 34.0696C70.7946 32.9827 71.8408 32.5441 73.2646 32.377C74.6885 32.2106 72.4921 28.7683 72.4921 28.7683Z" fill="#FFD1A3"/>
<path d="M16.523 39.665C16.6072 39.5949 16.6396 39.5282 16.6449 39.4642C16.5866 39.2587 16.5277 39.1421 16.3216 38.7587C16.0791 38.3073 15.5279 39.2883 15.3563 39.3672C15.1847 39.4453 14.9892 38.44 14.9713 38.0122C14.9534 37.585 15.3205 36.5124 15.3066 36.4349C15.1535 36.2361 15.18 35.9498 14.9561 35.8285C14.4141 35.5347 11.3034 35.3562 11.088 36.4996C10.8727 37.6423 11.0874 40.3138 11.3557 40.4277C11.6241 40.5416 12.2959 40.8259 12.1018 41.8015C11.9076 42.7772 11.4471 44.6341 13.3904 45.3921C15.3337 46.1501 16.6244 45.4622 16.0248 44.8079C15.4258 44.1537 15.1018 43.7124 15.4596 42.2604C15.8181 40.8091 16.091 40.0268 16.523 39.665Z" fill="#C9C9C9"/>
<path d="M16.1666 45.1048C15.6027 45.2261 14.7719 45.4215 13.939 45.2773C12.5496 45.0368 12.0203 44.0099 12.1866 42.4838C12.3529 40.957 12.4549 40.7179 11.8586 40.3324C11.3332 39.9929 11.4611 38.1851 11.5744 35.9387C11.3173 36.0742 11.1338 36.2547 11.088 36.4993C10.8727 37.642 11.0874 40.3136 11.3557 40.4274C11.6241 40.5413 12.2959 40.8257 12.1018 41.8013C11.9076 42.7769 11.4472 44.6339 13.3904 45.3919C15.0356 46.0326 16.2076 45.6378 16.1666 45.1048Z" fill="#2D2D3D"/>
<path d="M54.4112 29.8591C52.6349 29.8598 51.9545 29.4212 49.34 28.3276C46.0835 26.9652 44.2661 29.0176 43.1172 29.8611C41.9677 30.7054 39.7488 31.1602 36.4585 32.6526C36.4327 32.664 36.4075 32.6715 36.3823 32.6829C36.5022 34.6807 36.6043 36.8051 36.7759 38.402C38.9332 38.6917 41.4198 38.8696 43.6559 38.7119C48.2004 38.3912 49.7197 36.7586 51.3383 36.578C52.0148 36.5026 53.2584 36.4514 54.6624 36.4204L54.4112 29.8591Z" fill="#2D2D3D"/>
<path d="M69.7065 28.7177C69.4859 28.5654 69.2513 28.3761 68.9976 28.1349C67.149 26.375 59.0797 29.529 55.9663 29.783C54.0058 29.9427 53.1789 29.8638 52.0234 29.4441V36.5214C54.0502 36.3887 58.113 36.3591 60.3969 36.4035C62.9769 36.4541 63.5626 36.9102 65.1527 36.7977C66.7429 36.6852 68.286 35.4676 68.9333 34.7137C69.1314 34.4833 70.6626 29.9952 69.7065 28.7177Z" fill="#5D5D5D"/>
<path d="M67.6262 32.0884C65.7187 32.9649 64.717 33.0134 63.7377 32.4839C62.7584 31.9543 62.7465 31.015 64.3691 30.8102C65.991 30.6054 67.6262 32.0884 67.6262 32.0884Z" fill="#FFD1A3"/>
<path d="M67.6262 32.0884C65.7187 32.9649 64.717 33.0134 63.7377 32.4839C62.7584 31.9543 62.7465 31.015 64.3691 30.8102C65.991 30.6054 67.6262 32.0884 67.6262 32.0884Z" fill="#E6E6E6"/>
<path d="M68.8095 30.736C69.5834 28.6507 68.8725 27.8078 67.5427 26.8308C66.213 25.8538 62.1806 27.3927 59.4542 27.9722C56.7278 28.5516 53.9549 28.268 53.8397 29.371C53.7244 30.4746 55.7538 35.8689 57.5897 38.4272C59.4264 40.9856 60.4944 41.6007 60.5534 42.4733C60.6123 43.3452 62.0653 40.9782 62.0653 40.9782C62.0653 40.9782 61.2517 39.6845 60.4447 37.4772C59.6377 35.2699 59.0752 33.0397 58.9069 32.5788C58.7386 32.118 58.7386 32.118 58.7386 32.118C58.7386 32.118 60.7932 32.5229 61.7036 32.4454C62.6139 32.3679 64.3008 31.9502 64.7262 32.1436C65.1515 32.3363 67.9581 33.0296 68.8095 30.736Z" fill="#FFD1A3"/>
<path d="M80.5485 31.1321C79.8846 32.0074 79.0312 32.8287 78.8006 32.9756C78.5694 33.1232 78.2819 32.7997 78.0009 33.0847C77.72 33.3698 77.3708 33.8973 77.1403 34.3818C76.915 34.8548 76.6367 34.7685 76.4227 34.4579C76.2087 34.148 76.2047 34.1642 75.9728 34.2982C75.7409 34.4323 75.7496 34.4 75.6621 34.3151C75.5746 34.2302 75.4004 34.4667 75.2811 34.373C75.1619 34.2794 74.9777 34.2369 74.7146 34.3622C74.4516 34.4876 74.2568 34.7362 73.9626 34.3771C73.6685 34.0186 73.5724 32.7681 73.1424 32.6273C72.507 32.4191 71.7503 32.7189 71.7503 32.7189L70.8738 29.3345C70.8738 29.3345 72.0107 29.1317 72.3221 28.9248C72.6329 28.7173 74.2588 26.5956 75.0241 26.2472C75.7893 25.8989 77.2708 25.4475 78.7503 26.1367C80.2311 26.8267 81.5072 29.8675 80.5485 31.1321Z" fill="#FFD1A3"/>
<path d="M80.8327 28.9183C81.0872 29.9512 80.6558 31.2045 80.5174 31.5292C80.3789 31.8533 80.3769 32.017 80.3769 32.017C80.3769 32.017 80.3895 32.2542 80.2623 31.8122C80.1351 31.3702 80.1715 32.0548 80.1112 31.9948C80.0509 31.9348 79.9529 31.3305 79.6792 31.0326C79.4056 30.7348 79.1359 30.6338 79.1386 30.7813C79.1412 30.9289 78.9577 30.6014 78.6675 30.5118C78.3773 30.4222 78.042 30.7524 77.7585 30.6991C77.4755 30.6459 76.8508 31.1977 76.6845 30.9956C76.5181 30.7935 76.379 30.5212 76.8481 30.0732C77.3172 29.6251 76.5546 29.2397 76.0166 29.5645C75.4786 29.8899 75.5111 30.21 74.8273 29.8461C74.1435 29.4823 72.8708 29.1002 72.4865 29.0726C72.1022 29.045 71.865 28.7351 71.865 28.7351C71.865 28.7351 72.2029 28.6778 72.2744 28.603C72.346 28.5282 73.9772 25.916 75.527 25.2712C77.0767 24.6263 79.4076 25.0313 80.4856 27.5815C80.8804 28.5154 81.0838 29.2229 80.9672 29.1582C80.8513 29.0942 80.8327 28.9183 80.8327 28.9183Z" fill="#3D311E"/>
<path d="M52.007 32.4164C50.1088 31.7406 47.7143 31.1821 45.2297 32.2594C42.7451 33.3368 42.6033 33.7013 42.6033 33.7013C42.6033 33.7013 46.0757 31.7467 47.9654 32.2453C49.855 32.7439 52.0235 33.8314 52.0235 33.8314L52.007 32.4164Z" fill="#595959"/>
<path d="M61.8285 40.5686C62.3215 41.4728 63.2789 42.1648 64.2164 42.2807C65.8582 42.4842 67.2476 43.5966 66.5532 43.7529C65.8582 43.9092 64.8637 43.7691 63.2848 43.8654C61.7059 43.9618 61.4383 43.9294 61.0195 43.4477C60.6008 42.9659 60.6386 42.8702 60.4537 42.0833C60.2688 41.2963 61.8285 40.5686 61.8285 40.5686Z" fill="#FFD1A3"/>
</svg>
