<svg width="92" height="70" viewBox="0 0 92 70" fill="none" xmlns="http://www.w3.org/2000/svg">
<g clip-path="url(#clip0_3434_32896)">
<rect width="92" height="70" rx="12" fill="#DCE2EA"/>
<path d="M47.2875 35.3906C45.539 37.0872 44.6134 39.7613 44.5364 41.6125C44.4594 43.4637 45.2048 46.549 45.6936 49.9429C46.1824 53.3367 45.4363 55.6247 44.0996 57.5015C42.7629 59.3784 42.9425 60.998 43.5852 62.5663C44.2279 64.1346 44.2279 67.1686 45.1791 70.5881C46.1304 74.0076 46.3106 74.522 46.0534 75.4476C45.7962 76.3732 45.4107 78.3527 44.6134 80.59C43.8167 82.8267 43.9194 84.2411 44.3305 87.5573C44.7416 90.8742 41.6125 96.1483 40.8672 96.4055C41.3377 96.2429 41.6292 97.1873 41.2052 96.743C41.6272 97.5248 43.3279 100.412 44.0355 100.207C44.7423 100.001 44.4594 100.207 45.0252 100.824C45.5909 101.441 46.0278 99.1093 47.802 99.4435C49.5762 99.7777 51.5118 99.4368 51.3315 98.7684C51.1513 98.1 49.0104 99.8985 48.7019 98.3559C48.3934 96.8132 47.3031 96.531 46.9433 96.0679C46.5834 95.6048 47.1849 95.7594 47.6474 91.5682C48.1105 87.3777 50.013 80.59 50.0899 79.6901C50.1669 78.7901 51.3045 76.8877 51.3139 75.5766C51.3241 74.2655 52.1977 68.3777 52.224 65.8582C52.2496 63.3386 51.401 59.6619 51.6839 57.9653C51.9668 56.2687 52.6352 51.6408 53.3292 48.4265C54.0232 45.2129 54.0745 43.7473 53.5094 42.2303C52.9437 40.7133 52.147 39.839 51.3241 38.0911C50.5011 36.3425 49.8584 35.4426 50.2959 34.9288C50.7327 34.4137 47.2875 35.3906 47.2875 35.3906Z" fill="#FFD1A3"/>
<path d="M52.0408 55.7065H45.112C44.8366 56.352 44.4943 56.9454 44.0987 57.501C42.7619 59.3779 42.9415 60.9975 43.5842 62.5658C44.2269 64.1341 44.2269 67.1681 45.1782 70.5876C45.5947 72.0857 45.8634 73.0255 46.0126 73.6871H51.475C51.7316 71.3491 52.2048 67.7014 52.2237 65.8563C52.2494 63.3368 51.4008 59.6601 51.6836 57.9635C51.7694 57.445 51.8922 56.6497 52.0408 55.7065Z" fill="#2D2D3D"/>
<path d="M50.1944 17.6761C49.7833 16.6735 49.2945 16.365 49.3715 14.848C49.4484 13.331 49.6334 12.3784 49.4525 12.1961C48.7234 11.4602 47.5594 15.6325 47.5594 16.6735C47.5594 17.7146 48.4466 18.6793 48.3885 20.2213C48.3304 21.7639 47.9449 24.1552 47.174 26.3149C46.7074 27.6206 46.4111 28.659 46.2578 29.6764C47.7066 30.9173 49.0974 31.6288 50.2701 31.7159C50.3835 31.1218 50.5138 30.5021 50.6576 29.8634C51.2233 27.3438 50.2977 21.0193 50.1951 19.9134C50.0918 18.8076 50.6056 18.6786 50.1944 17.6761Z" fill="#FFD1A3"/>
<path d="M50.1944 17.6761C49.7833 16.6735 49.2945 16.365 49.3715 14.848C49.4484 13.331 49.6334 12.3784 49.4525 12.1961C48.7234 11.4602 47.5594 15.6325 47.5594 16.6735C47.5594 17.7146 48.4466 18.6793 48.3885 20.2213C48.3304 21.7639 47.9449 24.1552 47.174 26.3149C46.7074 27.6206 46.4111 28.659 46.2578 29.6764C47.7066 30.9173 49.0974 31.6288 50.2701 31.7159C50.3835 31.1218 50.5138 30.5021 50.6576 29.8634C51.2233 27.3438 50.2977 21.0193 50.1951 19.9134C50.0918 18.8076 50.6056 18.6786 50.1944 17.6761Z" fill="#9C9999"/>
<path d="M51.6328 28.669C52.3835 29.5177 53.174 30.4993 53.2767 30.7646C53.3793 31.0293 53.1153 31.2277 53.3462 31.57C53.5778 31.9123 53.8971 32.3653 54.2326 32.7873C54.5675 33.2092 54.5229 33.378 54.1685 33.5367C53.814 33.6953 53.8296 33.7027 53.9187 33.966C54.0085 34.2293 53.9774 34.2138 53.8748 34.2874C53.7722 34.3603 53.9761 34.5851 53.8579 34.6884C53.7398 34.7924 53.6608 34.9726 53.7351 35.2663C53.8093 35.56 54.0213 35.8071 53.6021 36.0393C53.1835 36.2709 51.9102 36.1298 51.6793 36.5403C51.4491 36.9508 51.2034 38.1059 51.2034 38.1059L47.7123 37.634C47.7123 37.634 47.9378 37.021 47.7906 36.6631C47.6435 36.3047 45.8274 34.23 45.6276 33.3787C45.4277 32.528 45.265 30.9239 46.25 29.5426C47.2357 28.1613 50.5478 27.4423 51.6328 28.669Z" fill="#FFD1A3"/>
<path d="M49.4201 27.8836C50.5098 27.8229 51.6872 28.5074 51.9862 28.712C52.2853 28.9166 52.4501 28.9497 52.4501 28.9497C52.4501 28.9497 52.6911 28.9827 52.2212 29.0273C51.7513 29.0725 52.4474 29.167 52.3751 29.2177C52.3029 29.2676 51.675 29.2514 51.3219 29.4735C50.9682 29.6957 50.8129 29.9529 50.9621 29.9785C51.1113 30.0042 50.7454 30.1291 50.5982 30.4086C50.451 30.6881 50.717 31.0959 50.6076 31.3754C50.4983 31.6549 50.931 32.4016 50.6947 32.5325C50.4584 32.6642 50.1573 32.7533 49.7989 32.1862C49.4404 31.6191 48.9016 32.3253 49.1231 32.939C49.3445 33.5526 49.6733 33.581 49.173 34.2109C48.6728 34.8408 48.0368 36.0695 47.9335 36.4577C47.8295 36.8452 47.7188 36.802 47.7188 36.802C47.7188 36.802 47.7323 36.5576 47.6709 36.4698C47.6094 36.3821 45.8197 34.672 45.4754 32.9606C45.1317 31.2491 45.8663 30.0616 46.1215 29.5728C46.3767 29.084 47.1841 28.5034 48.1705 28.1679C49.1568 27.8323 49.7772 27.6852 49.6888 27.7918C49.601 27.8992 49.4201 27.8836 49.4201 27.8836Z" fill="#3D311E"/>
<path d="M53.5062 42.2288C53.1606 41.3019 52.7285 40.6139 52.2573 39.8213C50.5472 38.2955 48.4097 36.8812 46.4337 36.3755C45.236 38.01 44.5973 40.0887 44.5339 41.6117C44.4569 43.4629 45.2023 46.5482 45.691 49.9421C46.1704 53.2738 45.4595 55.5388 44.168 57.3968L51.6787 57.9868C51.68 57.9794 51.68 57.9706 51.6814 57.9632C51.9643 56.2666 52.6326 51.6387 53.3267 48.4244C54.0207 45.2108 54.072 43.7458 53.5062 42.2288Z" fill="#5D5D5D"/>
<path d="M51.9345 28.7275L51.4336 36.6001C51.4336 36.6001 51.6982 36.4395 52.0074 36.3321C52.314 34.0718 52.7197 31.3146 52.5793 29.9407C52.5739 29.8887 52.5739 29.8293 52.5698 29.776L52.1364 29.2602L51.9345 28.7275Z" fill="#9C9999"/>
<path d="M51.7667 6.02595C51.0376 5.29006 49.873 9.46232 49.873 10.5034C49.873 11.5444 50.7601 12.5091 50.702 14.0511C50.644 15.5938 50.2585 17.9851 49.4875 20.1448C48.7165 22.3045 48.4073 23.731 48.4465 25.5437C48.4849 27.3564 48.6011 28.7445 47.714 31.6759C46.8269 34.6066 45.7473 38.0389 45.8628 39.6207C45.9782 41.2018 46.3941 43.5162 48.6929 43.2076C50.9917 42.8991 51.2232 39.3122 51.5318 36.96C51.8403 34.6072 52.3419 31.445 52.1873 29.9408C52.0327 28.4366 52.406 26.2128 52.9711 23.6932C53.5369 21.1737 52.6113 14.8491 52.508 13.7433C52.4054 12.6374 52.9191 12.5091 52.508 11.5066C52.0968 10.504 51.608 10.1955 51.685 8.6785C51.7633 7.16083 51.9476 6.20823 51.7667 6.02595Z" fill="#FFD1A3"/>
<path d="M46.7767 57.603C46.2373 60.3832 45.7593 64.4177 47.6604 67.5962C49.5623 70.7747 50.7849 71.3127 50.7849 71.3127C50.7849 71.3127 48.1445 67.9385 47.998 64.9315C47.8515 61.9245 49.5926 57.8245 49.5926 57.8245L46.7767 57.603Z" fill="#595959"/>
</g>
<defs>
<clipPath id="clip0_3434_32896">
<rect width="92" height="70" rx="12" fill="white"/>
</clipPath>
</defs>
</svg>
