<svg width="14" height="14" viewBox="0 0 14 14" fill="none" xmlns="http://www.w3.org/2000/svg">
<g clip-path="url(#clip0_3511_9629)">
<path d="M2.75825 9.41323C1.857 8.5114 1.40608 8.06106 1.23866 7.47598C1.07066 6.8909 1.21416 6.26965 1.50116 5.02773L1.66625 4.3114C1.90716 3.26606 2.02791 2.7434 2.3855 2.38523C2.74308 2.02706 3.26633 1.9069 4.31166 1.66598L5.028 1.50031C6.2705 1.2139 6.89116 1.0704 7.47625 1.23781C8.06133 1.40581 8.51166 1.85673 9.41291 2.75798L10.4804 3.82548C12.0502 5.39465 12.8336 6.17865 12.8336 7.15281C12.8336 8.12756 12.0496 8.91156 10.481 10.4801C8.91183 12.0493 8.12783 12.8333 7.15308 12.8333C6.17891 12.8333 5.39433 12.0493 3.82575 10.4807L2.75825 9.41323Z" stroke="#E31F15"/>
<path d="M5.84597 6.00416C6.30158 5.54855 6.30158 4.80985 5.84597 4.35424C5.39036 3.89863 4.65166 3.89863 4.19605 4.35424C3.74044 4.80985 3.74044 5.54855 4.19605 6.00416C4.65166 6.45977 5.39036 6.45977 5.84597 6.00416Z" stroke="#E31F15"/>
<path d="M6.7334 10.7919L10.8045 6.72021" stroke="#E31F15" stroke-linecap="round"/>
</g>
<defs>
<clipPath id="clip0_3511_9629">
<rect width="14" height="14" fill="white"/>
</clipPath>
</defs>
</svg>
