<svg width="32" height="32" viewBox="0 0 32 32" fill="none" xmlns="http://www.w3.org/2000/svg">
<rect width="32" height="32" rx="16" fill="#FFEFB0" fill-opacity="0.6"/>
<path d="M10.5 6C11.5193 6 12.3577 6.49467 13.015 7.484C13.6717 8.47267 14 9.64467 14 11C14 11.7733 13.8877 12.5547 13.663 13.344C13.4377 14.134 13.201 14.809 12.953 15.369L8.58 16.43C8.09933 15.652 7.716 14.821 7.43 13.937C7.144 13.053 7.00067 12.074 7 11C7 9.56533 7.332 8.37333 7.996 7.424C8.66 6.47467 9.49467 6 10.5 6ZM11.875 21C10.9997 21 10.303 20.655 9.785 19.965C9.26833 19.2743 9.00667 18.4 9 17.342L13.162 16.35C13.3593 16.6847 13.5483 17.0537 13.729 17.457C13.9097 17.8603 14 18.2663 14 18.675C14 19.343 13.8003 19.8977 13.401 20.339C13.0017 20.7803 12.493 21.0007 11.875 21ZM21.5 11C22.5053 11 23.34 11.4747 24.004 12.424C24.668 13.3733 25 14.5653 25 16C25 17.1113 24.8443 18.1157 24.533 19.013C24.2217 19.9103 23.8127 20.767 23.306 21.583L19.008 20.293C18.7733 19.7323 18.5467 19.0667 18.328 18.296C18.1093 17.526 18 16.7607 18 16C18 14.6447 18.3287 13.4727 18.986 12.484C19.642 11.4947 20.48 11 21.5 11ZM20.125 26C19.507 26 18.9983 25.7793 18.599 25.338C18.1997 24.8967 18 24.3427 18 23.676C18 23.254 18.0967 22.835 18.29 22.419C18.4833 22.003 18.679 21.6213 18.877 21.274L22.994 22.536C22.962 23.516 22.6883 24.3387 22.173 25.004C21.6577 25.668 20.975 26 20.125 26Z" fill="#E7B900"/>
</svg>
