<svg width="24" height="24" viewBox="0 0 24 24" fill="none" xmlns="http://www.w3.org/2000/svg">
<path d="M12 1C5.925 1 1 5.925 1 12C1 14.662 1.946 17.104 3.52 19.006L1.3 23H12C18.075 23 23 18.075 23 12C23 5.925 18.075 1 12 1ZM10.114 8.833L9.78 9.776L7.895 9.11L8.228 8.167C8.43445 7.58155 8.77431 7.05216 9.22068 6.62073C9.66705 6.1893 10.2077 5.86765 10.7998 5.68124C11.392 5.49483 12.0194 5.44876 12.6324 5.54668C13.2454 5.64461 13.8272 5.88383 14.3318 6.24544C14.8364 6.60704 15.25 7.08111 15.5397 7.63013C15.8295 8.17915 15.9875 8.78806 16.0013 9.4087C16.0151 10.0293 15.8843 10.6447 15.6192 11.206C15.3541 11.7674 14.962 12.2593 14.474 12.643C14.042 12.983 13.657 13.309 13.378 13.652C13.103 13.99 13 14.262 13 14.5V15.75H11V14.5C11 13.633 11.39 12.927 11.826 12.39C12.258 11.86 12.8 11.416 13.236 11.072C13.4794 10.8801 13.6749 10.6341 13.807 10.3537C13.9391 10.0733 14.0041 9.76594 13.9971 9.45603C13.99 9.14611 13.911 8.84208 13.7663 8.56793C13.6216 8.29379 13.4152 8.05703 13.1633 7.87635C12.9114 7.69568 12.6209 7.57603 12.3149 7.52685C12.0088 7.47768 11.6955 7.50033 11.3997 7.59301C11.1038 7.68568 10.8336 7.84586 10.6103 8.06088C10.387 8.27591 10.2168 8.53989 10.113 8.832M13.003 16.749V18.753H11V16.75L13.003 16.749Z" fill="#222326" style="mix-blend-mode:luminosity"/>
</svg>
