<svg width="32" height="32" viewBox="0 0 32 32" fill="none" xmlns="http://www.w3.org/2000/svg">
<rect width="32" height="32" rx="16" fill="#B0DAFF" fill-opacity="0.5"/>
<path d="M9.68 12.933C10.5187 12.457 11.392 12.0993 12.3 11.86C13.2087 11.62 14.138 11.5 15.088 11.5C15.5747 11.5 16.0607 11.53 16.546 11.59C17.0313 11.65 17.5093 11.7467 17.98 11.88C18.8647 12.1267 19.5373 12.2917 19.998 12.375C20.4593 12.4583 20.9593 12.5 21.498 12.5H22.384L22.867 8H9.116L9.68 12.933ZM11.476 25C11.0493 25 10.6837 24.8653 10.379 24.596C10.0743 24.3267 9.90333 23.985 9.866 23.571L8 7H24L22.154 23.571C22.1167 23.985 21.9457 24.3267 21.641 24.596C21.337 24.8653 20.9713 25 20.544 25H11.476Z" fill="#0088FF"/>
</svg>
