<svg width="64" height="58" viewBox="0 0 64 58" fill="none" xmlns="http://www.w3.org/2000/svg">
<path d="M34.6265 52.7829C34.6265 52.7829 36.3189 44.8298 33.5496 39.9653C30.7802 35.1009 29.5494 39.9653 29.5494 39.9653C29.5494 39.9653 28.0109 30.9531 22.9337 31.2789C17.8565 31.6046 18.4719 43.0945 18.4719 43.0945C18.4719 43.0945 16.7796 38.9402 14.4717 39.2249C12.1639 39.5093 14.4717 45.8973 14.4717 45.8973C14.4717 45.8973 12.6256 37.4282 8.1639 36.8728C3.70216 36.3173 4.45129 43.766 4.45129 43.766C4.45129 43.766 2.4332 40.9739 0.54187 42.2133C-1.34946 43.4526 2.31762 52.7834 2.31762 52.7834H34.6265V52.7829Z" fill="#63924D"/>
<path d="M14.1388 36.8348C14.1388 36.8348 11.2155 34.9347 11.2925 34.0224C11.3695 33.1104 13.3695 34.0224 13.3695 34.0224C13.3695 34.0224 12.1386 31.9277 13.6003 31.0749C15.0618 30.2221 16.0618 34.3264 16.0618 34.3264C16.0618 34.3264 16.5234 32.1982 17.2927 32.4263C18.0621 32.6544 16.9851 36.8348 16.9851 36.8348H14.1388Z" fill="#63924D"/>
<path d="M25.1758 52.784C25.1758 52.784 25.3297 45.7332 27.3297 43.6531C29.3297 41.5731 29.7912 44.9554 29.7912 44.9554C29.7912 44.9554 31.6125 40.2248 36.4068 38.3558C41.2012 36.4868 40.4494 43.6531 40.4494 43.6531C40.4494 43.6531 46.0464 35.4427 51.3806 38.3558C56.715 41.2689 54.4749 46.2665 54.4749 46.2665C54.4749 46.2665 57.1766 42.4996 59.1949 44.4133C59.9656 45.144 58.1963 48.2984 58.1963 48.2984C58.1963 48.2984 60.8689 47.4546 62.8692 48.0861C64.8692 48.7176 63.7922 51.5299 62.8692 52.784H25.1758Z" fill="#8BBD71"/>
<path d="M29.946 40.4463C29.946 40.4463 28.869 36.7359 31.3305 36.2665C33.7923 35.797 29.946 40.4463 29.946 40.4463Z" fill="#8BBD71"/>
<path d="M56.8691 41.5722C56.8691 41.5722 59.023 39.4695 60.4076 40.445C61.7921 41.4204 56.8691 41.5722 56.8691 41.5722Z" fill="#8BBD71"/>
<path d="M35.0751 11.623C35.0751 11.623 34.9305 10.11 33.993 9.78112C33.0556 9.45221 30.8644 9.64955 29.1526 10.8776C27.441 12.1056 25.2882 12.6098 24.5337 12.6537C23.7793 12.6976 23.8235 14.3467 26.2426 15.3311C26.2426 15.3311 24.3596 14.9998 24.1026 16.1402C23.8458 17.2803 24.6448 19.1443 26.7308 20.3284C26.7308 20.3284 25.9763 20.7671 26.5755 21.4249C27.1747 22.0827 28.2844 22.6308 31.4357 22.7076C34.5869 22.7845 35.3003 22.0827 35.6426 21.8196C35.985 21.5564 35.3888 20.811 35.3888 20.811C35.3888 20.811 37.4276 21.2178 38.8034 19.7756C40.1794 18.3334 40.1397 17.4385 39.1142 17.4471C39.1142 17.4471 40.1794 16.7327 40.4236 15.6363C40.6678 14.5398 39.4249 14.6277 38.515 13.9917C37.605 13.3557 37.4441 12.1059 36.7589 11.6017C36.0737 11.0968 35.0751 11.623 35.0751 11.623Z" fill="#2B1B1B"/>
<path d="M24.0723 16.876C24.0723 16.876 26.5958 19.4304 30.5684 18.7508C30.5684 18.7508 27.1316 19.7701 24.9774 18.8658" stroke="#4F2626" stroke-width="0.5" stroke-miterlimit="10" stroke-linecap="round" stroke-linejoin="round"/>
<path d="M39.7611 18.4417C39.7611 18.4417 37.2719 19.4968 34.4312 18.9705C34.4312 18.9705 36.4402 20.0354 38.8644 19.7113" stroke="#4F2626" stroke-width="0.5" stroke-miterlimit="10" stroke-linecap="round" stroke-linejoin="round"/>
<path d="M39.4926 29.2087C43.2209 24.4066 47.3487 15.7891 46.8606 14.6708C45.8542 12.3655 34.8322 7.08396 34.6769 6.79873C34.5217 6.51376 34.1443 3.07097 34.0333 2.786C33.9222 2.50103 32.9901 0.461772 32.8349 0.13286C32.6796 -0.196053 32.5686 0.1547 32.4799 0.439932C32.3912 0.724902 32.968 3.44409 32.8349 4.05797C32.7017 4.67185 32.1912 8.92587 32.5241 9.0356C32.857 9.14532 33.7004 8.88219 34.1664 9.23294C34.6325 9.5837 42.6801 15.7112 42.5911 16.0804C42.5024 16.4495 38.5826 22.9157 38.1022 23.0691C37.6218 23.2225 36.4745 23.0909 35.6436 23.398C34.813 23.7051 33.5579 24.7137 33.5579 24.7137C33.2602 24.0558 33.5579 21.8192 33.5579 21.8192H32.0024H30.4469C30.4469 21.8192 30.7446 24.0558 30.4469 24.7137C30.4469 24.7137 29.1917 23.7051 28.3611 23.398C27.5305 23.0909 26.3832 23.2225 25.9028 23.0691C25.4224 22.9157 21.5026 16.4495 21.4137 16.0804C21.325 15.7112 29.3723 9.5837 29.8383 9.23294C30.3044 8.88219 31.1478 9.14532 31.4807 9.0356C31.8136 8.92587 31.303 4.67211 31.1699 4.05797C31.0367 3.44409 31.6138 0.724902 31.5249 0.439932C31.4362 0.154963 31.3252 -0.196053 31.1699 0.13286C31.0146 0.461772 30.0826 2.50103 29.9715 2.786C29.8605 3.07097 29.4834 6.77689 29.3278 7.06186C29.1726 7.34683 17.8843 12.3655 16.8779 14.6708C16.3897 15.7891 21.3165 24.9329 25.0448 29.735C25.0448 29.735 24.6786 33.8135 26.4429 36.8724C26.4429 36.8724 26.9476 39.701 26.9782 40.1286C27.0088 40.5562 25.9103 42.0692 25.2112 43.5822C25.2112 43.5822 27.8743 45.753 32.0021 45.753C36.1299 45.753 38.793 43.5822 38.793 43.5822C38.0939 42.0692 36.9954 40.5562 37.026 40.1286C37.0567 39.701 37.5613 36.8724 37.5613 36.8724C39.3262 33.8135 39.4926 29.2087 39.4926 29.2087Z" fill="#F8D9D4"/>
<path d="M32.1145 41.3575C32.1145 41.6419 32.0055 41.8724 31.8707 41.8724C31.7362 41.8724 31.627 41.6419 31.627 41.3575C31.627 41.073 31.7359 40.8425 31.8707 40.8425C32.0053 40.8425 32.1145 41.073 32.1145 41.3575Z" fill="#D7887B"/>
<path d="M33.4579 22.8389C33.4971 22.2774 33.5578 21.8196 33.5578 21.8196H32.0023H30.4468C30.4468 21.8196 30.5064 22.2708 30.5458 22.8268C30.9618 23.1721 31.5613 23.5957 32.0023 23.5957C32.438 23.5954 33.0361 23.1818 33.4579 22.8389Z" fill="#D7887B"/>
<path d="M31.4081 1.60195C31.4081 1.60195 31.3027 1.18621 31.0364 1.44934C30.9139 1.57038 30.3706 3.35703 30.3706 3.62016C30.3706 3.79567 30.3706 4.73846 30.3706 4.73846" stroke="#D7887B" stroke-width="0.1" stroke-miterlimit="10" stroke-linecap="round" stroke-linejoin="round"/>
<path d="M32.5874 1.55527C32.5874 1.55527 32.7219 1.18558 32.8774 1.2732C33.0327 1.36082 33.4545 3.09327 33.5211 3.3343C33.5877 3.57559 33.6321 4.73757 33.6321 4.73757" stroke="#D7887B" stroke-width="0.1" stroke-miterlimit="10" stroke-linecap="round" stroke-linejoin="round"/>
<path d="M25.0435 29.7354C25.0435 29.7354 25.7092 30.9258 26.0754 32.6548" stroke="#D7887B" stroke-width="0.1" stroke-miterlimit="10" stroke-linecap="round" stroke-linejoin="round"/>
<path d="M39.4917 29.2083C39.4917 29.2083 38.5868 30.4223 38.063 32.7537" stroke="#D7887B" stroke-width="0.1" stroke-miterlimit="10" stroke-linecap="round" stroke-linejoin="round"/>
<path d="M55.5051 47.5292C55.0723 46.9042 48.348 44.9308 46.151 45.0294C43.9539 45.1281 40.4586 45.9175 40.4586 45.9175C40.0925 45.3255 39.3934 43.6151 39.1604 43.2236C38.9273 42.832 38.6211 43.2236 38.6211 43.2236C38.6211 43.2236 35.0659 45.161 32.0033 45.161C28.9408 45.161 25.3855 43.2236 25.3855 43.2236C25.3855 43.2236 25.0793 42.832 24.8462 43.2236C24.6132 43.6151 23.9142 45.3255 23.548 45.9175C23.548 45.9175 20.0527 45.1281 17.8556 45.0294C15.6586 44.9308 8.93426 46.9042 8.50151 47.5292C8.06876 48.1541 7.46956 51.1143 7.83574 51.6406C8.20191 52.1668 9.50017 52.4629 9.50017 52.4629C9.50017 52.4629 11.9635 54.6666 14.094 55.1599C16.2245 55.6533 22.5493 56.4756 32.0033 56.4756C41.4573 56.4756 47.7821 55.6533 49.9126 55.1599C52.0431 54.6666 54.5064 52.4629 54.5064 52.4629C54.5064 52.4629 55.8047 52.1668 56.1709 51.6406C56.5371 51.1143 55.9379 48.1541 55.5051 47.5292Z" fill="#E8A363"/>
<path d="M24.519 43.8972C24.519 43.8972 31.1837 49.2877 39.4888 43.8972" stroke="#9A5A1E" stroke-width="0.5" stroke-miterlimit="10" stroke-linecap="round" stroke-linejoin="round"/>
<path d="M28.8853 54.0708C28.8853 54.0708 27.7202 51.5053 26.7548 51.4724C25.7895 51.4395 25.0238 52.3276 24.6909 52.7715C24.3581 53.2154 23.8728 54.6768 23.1 54.9823C22.3274 55.2878 19.8308 55.0575 18.932 55.6496C18.0332 56.2416 17.1869 56.8337 17.32 57.031C17.4532 57.2284 25.157 57.5244 29.8507 57.1626C29.8507 57.1626 42.9997 56.6363 48.4258 55.5509C53.8518 54.4655 56.2486 52.8191 56.2819 51.4716C56.3152 50.1238 53.8851 46.8018 52.3205 46.5716C50.756 46.3414 44.9009 47.512 44.1648 47.7228C41.8679 48.3806 34.0741 53.123 28.8853 54.0708Z" fill="#F4D2CC"/>
<path d="M56.2816 51.4716C56.3149 50.1239 53.8848 46.8019 52.3202 46.5716C50.7815 46.3451 45.0969 47.4729 44.209 47.711C45.8755 47.9028 48.4862 48.5106 49.7237 50.4199C50.7059 51.9353 50.6707 53.7227 50.4087 55.0955C54.4395 54.0377 56.2528 52.642 56.2816 51.4716Z" fill="#E8A363"/>
<path d="M35.1191 54.0708C35.1191 54.0708 36.2842 51.5053 37.2496 51.4724C38.2149 51.4395 38.9806 52.3276 39.3135 52.7715C39.6463 53.2154 40.1316 54.6768 40.9044 54.9823C41.677 55.2878 44.1736 55.0575 45.0724 55.6496C45.9712 56.2416 46.8175 56.8337 46.6844 57.031C46.5512 57.2284 38.8474 57.5244 34.1537 57.1626C34.1537 57.1626 21.0047 56.6363 15.5786 55.5509C10.1526 54.4655 7.7558 52.8191 7.72251 51.4716C7.68922 50.1238 10.1193 46.8018 11.6839 46.5716C13.2484 46.3414 19.1035 47.512 19.8396 47.7228C22.1365 48.3806 29.9303 53.123 35.1191 54.0708Z" fill="#F8D9D4"/>
<path d="M7.72251 51.4716C7.68922 50.1239 10.1193 46.8019 11.6839 46.5716C13.2226 46.3451 18.9072 47.4729 19.7951 47.711C18.1285 47.9028 15.5179 48.5106 14.2804 50.4199C13.2982 51.9353 13.3334 53.7227 13.5954 55.0955C9.56457 54.0377 7.75127 52.642 7.72251 51.4716Z" fill="#E8A363"/>
<path d="M37.4531 37.4789C37.516 37.1202 37.5602 36.8726 37.5602 36.8726C38.2369 35.6993 38.6779 34.2992 38.9652 33.018C38.4127 32.9883 37.8574 32.772 37.5935 32.2349C35.9291 28.8471 36.2287 23.252 36.2287 23.252C36.0249 23.2848 35.8257 23.3304 35.642 23.3983C35.2843 23.5303 34.8484 23.7927 34.4673 24.0484C34.3293 25.6104 33.3323 28.88 32.0007 28.88C30.6692 28.88 29.6721 25.6104 29.5342 24.0484C29.1533 23.7927 28.7171 23.5303 28.3595 23.3983C28.176 23.3304 27.9768 23.2848 27.7731 23.252C27.7731 23.252 28.0727 28.8471 26.4082 32.2349C26.1675 32.7249 25.6844 32.9454 25.1821 33.0036C25.364 34.2358 25.7289 35.6372 26.4415 36.8726C26.4415 36.8726 26.4857 37.1202 26.5486 37.4789C27.4117 37.2352 29.1682 36.8726 32.0007 36.8726C34.8334 36.8726 36.59 37.2352 37.4531 37.4789Z" fill="#E8A363"/>
<path d="M26.4409 36.8719C26.4409 36.8719 31.9889 35.282 37.5593 36.8719" stroke="#9A5A1E" stroke-width="0.5" stroke-miterlimit="10" stroke-linecap="round" stroke-linejoin="round"/>
<path d="M29.1499 23.8028C29.1499 23.8028 29.5243 29.2962 31.9989 29.4277C34.4734 29.5593 34.9331 23.7512 34.9331 23.7512" stroke="#9A5A1E" stroke-width="0.5" stroke-miterlimit="10" stroke-linecap="round" stroke-linejoin="round"/>
<path d="M32.0015 11.4807C29.3052 11.4807 27.6074 13.5529 27.7073 15.8224C27.8072 18.0919 28.0607 19.6391 28.8391 20.5587C29.6617 21.531 31.0362 22.269 32.0015 22.269C32.9669 22.269 34.3413 21.531 35.164 20.5587C35.9424 19.6391 36.1959 18.0919 36.2958 15.8224C36.3956 13.5529 34.6979 11.4807 32.0015 11.4807Z" fill="#F8D9D4"/>
<path d="M29.4399 16.8811C29.4399 16.8811 29.5409 16.9622 29.6841 17.0616C29.8295 17.1582 30.0261 17.2661 30.2173 17.2585C30.2652 17.265 30.3129 17.2474 30.3608 17.2435C30.4058 17.2219 30.4564 17.2174 30.5009 17.1942C30.5441 17.1687 30.5907 17.1511 30.633 17.1282C30.6721 17.1 30.7121 17.0756 30.7499 17.0527C30.8261 17.008 30.8817 16.9561 30.9291 16.928C30.9747 16.8974 31.0035 16.8809 31.0035 16.8809C31.0035 16.8809 30.9931 16.9103 30.9704 16.9609C30.9449 17.009 30.9182 17.0869 30.8567 17.1608C30.8011 17.24 30.7225 17.3245 30.6152 17.3963C30.5627 17.4319 30.4977 17.46 30.4341 17.4868C30.3646 17.5 30.2935 17.525 30.2194 17.5211L30.1094 17.5145L30.0048 17.4884C29.9361 17.4708 29.8764 17.4342 29.821 17.4021C29.7113 17.3329 29.6341 17.245 29.5763 17.1677C29.4639 17.0093 29.4399 16.8811 29.4399 16.8811Z" fill="#472014"/>
<path d="M28.3573 19.7773L27.8233 17.4794C27.8233 17.4794 27.0457 15.8554 26.1083 16.619C25.3951 17.2005 26.593 20.4249 28.3573 19.7773Z" fill="#F8D9D4"/>
<path d="M26.1265 18.2727C26.5073 19.229 27.3379 20.1518 28.3592 19.7771L27.8252 17.4791C27.8252 17.4791 27.8045 17.437 27.7693 17.3739C27.503 17.2881 26.1906 16.9355 26.1265 18.2727Z" fill="#FBC7BF"/>
<path d="M34.5613 16.8809C34.5613 16.8809 34.5373 17.009 34.4249 17.1677C34.3672 17.245 34.2899 17.3329 34.1802 17.4021C34.1248 17.4342 34.0652 17.4708 33.9964 17.4884L33.8918 17.5145L33.7818 17.5211C33.7078 17.525 33.6369 17.4997 33.5674 17.4868C33.5035 17.46 33.4388 17.4319 33.3863 17.3963C33.279 17.3242 33.2004 17.24 33.1448 17.1608C33.0833 17.0869 33.0566 17.009 33.0311 16.9609C33.0084 16.9106 32.998 16.8809 32.998 16.8809C32.998 16.8809 33.0266 16.8974 33.0724 16.928C33.1198 16.9561 33.1754 17.008 33.2516 17.0527C33.2894 17.0756 33.3293 17.0998 33.3685 17.1282C33.4111 17.1508 33.4574 17.1687 33.5006 17.1942C33.5451 17.2174 33.5954 17.2219 33.6407 17.2435C33.6886 17.2471 33.7363 17.2648 33.7842 17.2585C33.9754 17.2661 34.1719 17.1582 34.3174 17.0616C34.4604 16.9619 34.5613 16.8809 34.5613 16.8809Z" fill="#472014"/>
<path d="M35.6431 19.7773L36.177 17.4794C36.177 17.4794 36.9546 15.8554 37.8921 16.619C38.6055 17.2005 37.4076 20.4249 35.6431 19.7773Z" fill="#F8D9D4"/>
<path d="M37.8761 18.2727C37.4953 19.229 36.6646 20.1518 35.6431 19.7771L36.177 17.4791C36.177 17.4791 36.1978 17.437 36.2329 17.3739C36.4995 17.2881 37.8119 16.9355 37.8761 18.2727Z" fill="#FBC7BF"/>
<path d="M32.1017 15.1963C32.1017 15.1963 31.9465 17.5863 32.1017 17.8057C32.257 18.0249 32.9006 18.0907 32.9006 18.0907L32.1462 19.1214" stroke="#D7887B" stroke-width="0.1" stroke-miterlimit="10" stroke-linecap="round" stroke-linejoin="round"/>
<path d="M30.7456 19.5173C30.7456 19.5173 32.0106 20.6796 33.4087 19.5173" stroke="#D7887B" stroke-width="0.1" stroke-miterlimit="10" stroke-linecap="round" stroke-linejoin="round"/>
<path d="M39.3345 14.8685C39.6008 14.5395 38.8722 14.2025 38.8722 14.2025C38.7497 14.1412 38.6288 14.0722 38.5132 13.9914C37.6032 13.3555 37.4424 12.1056 36.7571 11.6014C36.0719 11.097 35.0733 11.6233 35.0733 11.6233C35.0733 11.6233 34.9284 10.1103 33.9912 9.78136C33.0538 9.45245 30.8626 9.6498 29.1508 10.8778C28.0049 11.6998 26.6632 12.1964 25.6736 12.4487C25.672 12.4492 25.6707 12.4503 25.6688 12.4508C24.0174 13.0108 24.9977 13.9696 26.5069 14.4301C28.0161 14.8906 29.8137 14.5398 29.8137 14.5398C28.7929 15.5265 31.012 15.2853 32.6099 14.7153C34.2078 14.1451 34.807 13.0707 34.807 13.0707C34.807 13.0707 34.3188 14.9127 35.8943 15.5265C37.4703 16.1402 39.0682 15.1974 39.3345 14.8685Z" fill="#4F2626"/>
<path d="M29.814 14.5378C29.814 14.5378 33.5868 13.5103 34.9849 11.1516" stroke="#2B1B1B" stroke-width="0.5" stroke-miterlimit="10" stroke-linecap="round" stroke-linejoin="round"/>
<path d="M25.8979 14.2023C25.8979 14.2023 30.2889 14.4457 32.8132 13.2087" stroke="#2B1B1B" stroke-width="0.5" stroke-miterlimit="10" stroke-linecap="round" stroke-linejoin="round"/>
<path d="M34.5614 10.2141C34.5614 10.2141 32.4961 9.54045 30.6349 11.0519C28.5015 12.7841 26.8794 13.2393 25.1812 13.7161" stroke="#2B1B1B" stroke-width="0.5" stroke-miterlimit="10" stroke-linecap="round" stroke-linejoin="round"/>
<path d="M35.3853 11.4938C35.3853 11.4938 36.4864 11.3535 36.7554 12.6823C37.0244 14.0111 37.3083 15.3226 38.5202 15.3905" stroke="#2B1B1B" stroke-width="0.5" stroke-miterlimit="10" stroke-linecap="round" stroke-linejoin="round"/>
<path d="M28.9277 15.6356C29.2553 14.9346 30.3613 14.6928 31.0034 15.0654C30.4337 15.4356 29.6018 15.6175 28.9277 15.6356Z" fill="#2B1B1B"/>
<path d="M32.998 15.0655C33.5791 14.4653 34.7096 14.9842 34.9847 15.6362C34.3123 15.6088 33.6292 15.2733 32.998 15.0655Z" fill="#2B1B1B"/>
</svg>
