<svg width="32" height="32" viewBox="0 0 32 32" fill="none" xmlns="http://www.w3.org/2000/svg">
<circle cx="16" cy="16" r="15" stroke="#DDE5F0" stroke-width="2"/>
<path d="M9.33086 7.2339C9.3908 7.23374 9.45074 7.23353 9.51068 7.23327C9.67458 7.2327 9.83846 7.23287 10.0024 7.23316C10.1794 7.23334 10.3565 7.23285 10.5336 7.23245C10.8802 7.23178 11.2268 7.23175 11.5734 7.23195C11.8551 7.23211 12.1369 7.23205 12.4187 7.23185C12.4789 7.2318 12.4789 7.2318 12.5403 7.23176C12.6219 7.2317 12.7035 7.23164 12.785 7.23158C13.5494 7.23104 14.3138 7.23125 15.0782 7.2317C15.777 7.23209 16.4759 7.23158 17.1747 7.23065C17.8928 7.2297 18.6109 7.22932 19.329 7.22958C19.732 7.22972 20.1349 7.22963 20.5379 7.22895C20.8809 7.22837 21.2239 7.22835 21.5669 7.22903C21.7418 7.22936 21.9167 7.22944 22.0916 7.22885C22.252 7.2283 22.4123 7.22849 22.5726 7.22925C22.6304 7.22939 22.6882 7.22928 22.746 7.22887C23.3671 7.22479 23.8162 7.38482 24.2725 7.80813C24.6927 8.25212 24.7688 8.7382 24.7661 9.32891C24.7663 9.38885 24.7665 9.44879 24.7668 9.50873C24.7673 9.67262 24.7672 9.83651 24.7669 10.0004C24.7667 10.1775 24.7672 10.3546 24.7676 10.5316C24.7683 10.8782 24.7683 11.2248 24.7681 11.5714C24.7679 11.8532 24.768 12.135 24.7682 12.4168C24.7682 12.4569 24.7683 12.497 24.7683 12.5384C24.7684 12.6199 24.7684 12.7015 24.7685 12.7831C24.769 13.5474 24.7688 14.3118 24.7683 15.0762C24.768 15.7751 24.7685 16.4739 24.7694 17.1728C24.7704 17.8909 24.7707 18.609 24.7705 19.3271C24.7703 19.73 24.7704 20.133 24.7711 20.5359C24.7717 20.8789 24.7717 21.222 24.771 21.565C24.7707 21.7399 24.7706 21.9148 24.7712 22.0897C24.7717 22.25 24.7716 22.4103 24.7708 22.5707C24.7707 22.6285 24.7708 22.6862 24.7712 22.744C24.7753 23.3651 24.6152 23.8143 24.1919 24.2705C23.7479 24.6907 23.2618 24.7668 22.6711 24.7642C22.6112 24.7644 22.5513 24.7646 22.4913 24.7648C22.3274 24.7654 22.1635 24.7652 21.9996 24.7649C21.8226 24.7648 21.6455 24.7652 21.4684 24.7656C21.1218 24.7663 20.7752 24.7663 20.4286 24.7661C20.1469 24.766 19.8651 24.766 19.5833 24.7662C19.5231 24.7663 19.5231 24.7663 19.4617 24.7663C19.3801 24.7664 19.2986 24.7665 19.217 24.7665C18.4526 24.7671 17.6882 24.7668 16.9238 24.7664C16.225 24.766 15.5261 24.7665 14.8273 24.7674C14.1092 24.7684 13.3911 24.7688 12.673 24.7685C12.27 24.7684 11.8671 24.7685 11.4641 24.7691C11.1211 24.7697 10.7781 24.7697 10.4351 24.7691C10.2602 24.7687 10.0853 24.7687 9.91036 24.7693C9.75002 24.7698 9.5897 24.7696 9.42937 24.7689C9.37159 24.7687 9.31381 24.7688 9.25604 24.7692C8.63493 24.7733 8.18578 24.6133 7.72952 24.19C7.30931 23.746 7.23323 23.2599 7.23586 22.6692C7.23569 22.6092 7.23548 22.5493 7.23522 22.4894C7.23466 22.3255 7.23482 22.1616 7.23511 21.9977C7.23529 21.8206 7.23481 21.6435 7.23441 21.4665C7.23373 21.1199 7.2337 20.7733 7.23391 20.4267C7.23406 20.1449 7.23401 19.8631 7.2338 19.5813C7.23377 19.5412 7.23374 19.5011 7.23371 19.4597C7.23365 19.3781 7.23359 19.2966 7.23353 19.215C7.23299 18.4507 7.23321 17.6863 7.23365 16.9219C7.23404 16.223 7.23354 15.5242 7.2326 14.8253C7.23165 14.1072 7.23127 13.3891 7.23153 12.671C7.23167 12.2681 7.23158 11.8651 7.2309 11.4622C7.23032 11.1191 7.2303 10.7761 7.23098 10.4331C7.23131 10.2582 7.2314 10.0833 7.2308 9.90841C7.23026 9.74807 7.23045 9.58775 7.2312 9.42741C7.23135 9.36964 7.23123 9.31186 7.23082 9.25409C7.22674 8.63298 7.38677 8.18383 7.81008 7.72756C8.25407 7.30736 8.74015 7.23128 9.33086 7.2339ZM8.65969 8.72366C8.46859 9.02479 8.4898 9.33012 8.49082 9.67657C8.4907 9.73327 8.49055 9.78997 8.49037 9.84667C8.48996 10.0021 8.49005 10.1576 8.49022 10.3131C8.49031 10.4809 8.48996 10.6487 8.48967 10.8165C8.48917 11.1452 8.4891 11.4738 8.48919 11.8024C8.48926 12.0695 8.48919 12.3367 8.48903 12.6038C8.489 12.6418 8.48898 12.6798 8.48896 12.719C8.48891 12.7963 8.48886 12.8735 8.48881 12.9508C8.48839 13.6751 8.48847 14.3995 8.48871 15.1239C8.48891 15.7864 8.48847 16.449 8.48773 17.1116C8.48697 17.792 8.48665 18.4724 8.4868 19.1529C8.48687 19.5349 8.48678 19.9168 8.48622 20.2988C8.48576 20.624 8.4857 20.9491 8.48618 21.2743C8.48641 21.4402 8.48645 21.606 8.48598 21.7719C8.48556 21.9239 8.48568 22.0758 8.48623 22.2277C8.48633 22.2826 8.48624 22.3375 8.48592 22.3923C8.47545 22.8666 8.47545 22.8666 8.66799 23.2872C8.95176 23.549 9.31892 23.5103 9.67852 23.5092C9.73522 23.5093 9.79192 23.5095 9.84863 23.5097C10.0041 23.5101 10.1596 23.51 10.3151 23.5098C10.4829 23.5097 10.6507 23.5101 10.8185 23.5104C11.1471 23.5109 11.4757 23.511 11.8044 23.5109C12.0715 23.5108 12.3386 23.5109 12.6058 23.511C12.6438 23.511 12.6818 23.5111 12.721 23.5111C12.7982 23.5111 12.8755 23.5112 12.9527 23.5112C13.6771 23.5117 14.4014 23.5116 15.1258 23.5113C15.7884 23.5111 16.4509 23.5116 17.1135 23.5123C17.7939 23.5131 18.4744 23.5134 19.1548 23.5133C19.5368 23.5132 19.9188 23.5133 20.3007 23.5138C20.6259 23.5143 20.9511 23.5143 21.2763 23.5139C21.4421 23.5136 21.608 23.5136 21.7739 23.5141C21.9258 23.5145 22.0777 23.5144 22.2297 23.5138C22.2846 23.5137 22.3394 23.5138 22.3943 23.5141C22.8685 23.5246 22.8685 23.5246 23.2891 23.3321C23.551 23.0483 23.5122 22.6811 23.5112 22.3215C23.5113 22.2648 23.5115 22.2081 23.5116 22.1514C23.512 21.9959 23.512 21.8405 23.5118 21.685C23.5117 21.5172 23.512 21.3494 23.5123 21.1816C23.5128 20.8529 23.5129 20.5243 23.5128 20.1957C23.5127 19.9286 23.5128 19.6614 23.513 19.3943C23.513 19.3373 23.513 19.3373 23.513 19.2791C23.5131 19.2018 23.5131 19.1246 23.5132 19.0473C23.5136 18.323 23.5135 17.5986 23.5133 16.8742C23.5131 16.2117 23.5135 15.5491 23.5143 14.8865C23.515 14.2061 23.5154 13.5257 23.5152 12.8452C23.5151 12.4632 23.5152 12.0813 23.5158 11.6993C23.5162 11.3741 23.5163 11.049 23.5158 10.7238C23.5156 10.5579 23.5156 10.3921 23.516 10.2262C23.5164 10.0742 23.5163 9.9223 23.5158 9.77035C23.5157 9.7155 23.5158 9.66064 23.5161 9.60578C23.5266 9.13151 23.5266 9.13151 23.334 8.71091C23.0502 8.44906 22.6831 8.48781 22.3235 8.48886C22.2668 8.48875 22.2101 8.48859 22.1534 8.48841C21.9979 8.48801 21.8424 8.4881 21.687 8.48826C21.5191 8.48836 21.3513 8.48801 21.1835 8.48771C20.8549 8.48722 20.5263 8.48715 20.1976 8.48724C19.9305 8.48731 19.6634 8.48724 19.3962 8.48707C19.3582 8.48705 19.3202 8.48703 19.281 8.487C19.2038 8.48696 19.1265 8.48691 19.0493 8.48686C18.3249 8.48644 17.6006 8.48652 16.8762 8.48676C16.2136 8.48696 15.5511 8.48652 14.8885 8.48578C14.2081 8.48502 13.5276 8.4847 12.8472 8.48485C12.4652 8.48492 12.0832 8.48482 11.7013 8.48427C11.3761 8.48381 11.0509 8.48375 10.7257 8.48422C10.5599 8.48445 10.394 8.4845 10.2281 8.48403C10.0762 8.4836 9.92426 8.48372 9.77231 8.48427C9.71745 8.48438 9.66259 8.48428 9.60773 8.48397C9.08984 8.47236 9.08984 8.47236 8.65969 8.72366Z" fill="#32ADE6"/>
<path d="M19.0872 10.7664C19.2498 10.903 19.4031 11.0487 19.5559 11.1961C19.584 11.2217 19.612 11.2472 19.6409 11.2736C19.8866 11.504 20.0729 11.7766 20.2591 12.0554C20.2837 12.092 20.3083 12.1285 20.3337 12.1661C20.7866 12.8873 21.009 13.7437 21.0208 14.5896C21.0215 14.6256 21.0222 14.6616 21.023 14.6987C21.0209 14.9169 20.9961 15.0508 20.845 15.2195C20.642 15.3896 20.4871 15.3981 20.234 15.3956C20.1964 15.3958 20.1587 15.3961 20.1199 15.3963C19.9937 15.397 19.8676 15.3965 19.7415 15.396C19.651 15.3962 19.5605 15.3965 19.4701 15.3968C19.2244 15.3975 18.9787 15.3972 18.7331 15.3967C18.476 15.3964 18.219 15.3967 17.962 15.397C17.5027 15.3973 17.0435 15.3968 16.5842 15.396C16.1679 15.3953 15.7516 15.3954 15.3354 15.3961C14.8518 15.397 14.3682 15.3973 13.8845 15.3968C13.6286 15.3966 13.3727 15.3965 13.1168 15.3971C12.8762 15.3975 12.6356 15.3972 12.395 15.3963C12.3067 15.3961 12.2183 15.3961 12.13 15.3965C12.0095 15.3969 11.889 15.3964 11.7685 15.3956C11.7334 15.3959 11.6984 15.3963 11.6623 15.3967C11.4487 15.394 11.327 15.3615 11.1575 15.2195C10.9789 15.0201 10.9766 14.8448 10.9817 14.5896C10.9822 14.5519 10.9827 14.5141 10.9832 14.4752C11.017 13.2179 11.5842 12.0907 12.4466 11.1961C12.4721 11.168 12.4977 11.14 12.5241 11.1111C12.7545 10.8654 13.0271 10.6791 13.3059 10.4929C13.3425 10.4683 13.379 10.4437 13.4166 10.4183C15.1235 9.3463 17.5198 9.52279 19.0872 10.7664ZM13.5013 11.9773C13.4672 12.0087 13.4331 12.0402 13.398 12.0725C12.8468 12.6014 12.5144 13.2731 12.3294 14.0086C12.3294 14.0472 12.3294 14.0859 12.3294 14.1258C13.3348 14.1258 14.3403 14.1258 15.3763 14.1258C15.3891 13.6359 15.402 13.1461 15.4153 12.6414C15.6011 12.3627 15.6011 12.3627 15.7669 12.2898C15.9836 12.2574 16.1759 12.2615 16.3748 12.3557C16.47 12.4461 16.47 12.4461 16.5872 12.6414C16.6001 13.1312 16.613 13.6211 16.6263 14.1258C17.6317 14.1258 18.6372 14.1258 19.6731 14.1258C19.4983 13.164 19.0006 12.3034 18.201 11.7185C16.7417 10.7548 14.8226 10.7493 13.5013 11.9773Z" fill="#32ADE6"/>
</svg>
