<svg width="32" height="32" viewBox="0 0 32 32" fill="none" xmlns="http://www.w3.org/2000/svg">
<circle cx="16" cy="16" r="15" stroke="#DDE5F0" stroke-width="2"/>
<g clip-path="url(#clip0_947_9766)">
<path d="M18.8512 8.85135C19.0229 8.9792 19.1715 9.1273 19.3199 9.28104C19.3487 9.30863 19.3775 9.33623 19.4072 9.36466C19.9497 9.9155 20.1191 10.6832 20.121 11.4297C20.1159 11.6843 20.0754 11.9008 19.9987 12.1424C19.949 12.3071 19.9265 12.4095 20.0092 12.5693C20.0956 12.6694 20.1849 12.7611 20.2793 12.8534C20.6768 13.2804 20.9221 13.9331 21.09 14.4812C21.0994 14.512 21.1089 14.5427 21.1187 14.5743C21.2555 15.0445 21.2889 15.5148 21.2877 16.0022C21.2877 16.0303 21.2878 16.0584 21.2878 16.0873C21.2871 16.5999 21.2385 17.088 21.0723 17.5759C20.999 17.8021 21.1082 18.0007 21.1974 18.2082C21.4082 18.7624 21.3009 19.4552 21.0666 19.9793C20.7725 20.5691 20.2797 20.9632 19.6715 21.1951C19.4253 21.2706 19.1984 21.2883 18.9415 21.2879C18.9038 21.2879 18.866 21.2879 18.8271 21.2879C18.5076 21.2828 18.1945 21.2446 17.9177 21.0703C17.7146 20.9925 17.4545 21.1019 17.2496 21.156C17.1968 21.17 17.1439 21.1839 17.0909 21.1975C17.0679 21.2036 17.0449 21.2097 17.0212 21.216C16.3222 21.367 15.3988 21.3517 14.7106 21.156C14.6794 21.1474 14.6483 21.1388 14.6162 21.1299C13.9996 20.9544 13.3984 20.7095 12.9039 20.2942C12.6854 20.1196 12.5136 20.1124 12.2397 20.1096C11.786 20.084 11.4132 19.8298 11.1095 19.5081C10.8268 19.1607 10.7177 18.7968 10.714 18.3606C10.7136 18.3251 10.7133 18.2896 10.713 18.253C10.7145 18.061 10.7255 17.9169 10.8141 17.743C10.9082 17.5296 10.8628 17.3688 10.8141 17.1497C10.5898 16.1215 10.6718 15.0222 11.07 14.05C11.0817 14.0211 11.0933 13.9922 11.1054 13.9624C11.116 13.9371 11.1267 13.9118 11.1377 13.8858C11.1602 13.7949 11.1478 13.7437 11.1168 13.656C11.0524 13.5512 10.983 13.4506 10.9133 13.3492C10.7561 13.0729 10.7042 12.8096 10.7067 12.4939C10.7069 12.4599 10.7071 12.4258 10.7073 12.3907C10.721 11.8913 10.9187 11.5261 11.2567 11.1689C11.6681 10.7805 12.1348 10.7043 12.6737 10.7129C13.0519 10.7296 13.3401 10.8767 13.6315 11.1129C13.6956 11.1649 13.6956 11.1649 13.7926 11.1585C13.8248 11.1448 13.8571 11.1311 13.8903 11.117C13.9151 11.1107 13.9399 11.1043 13.9654 11.0978C14.0529 11.0731 14.125 11.0471 14.2028 10.9998C14.2469 10.889 14.2661 10.8145 14.2809 10.6995C14.3724 10.1955 14.5987 9.73902 14.9449 9.35916C14.9733 9.32719 15.0017 9.29521 15.031 9.26227C16.0159 8.21227 17.6594 8.08182 18.8512 8.85135ZM15.8334 10.1706C15.7518 10.2748 15.6977 10.3824 15.64 10.5014C15.6091 10.5646 15.6091 10.5646 15.5776 10.6291C15.5622 10.6612 15.5468 10.6933 15.5309 10.7264C15.5611 10.7267 15.5913 10.7271 15.6225 10.7275C16.7611 10.7447 17.7231 10.9201 18.7282 11.4794C18.8335 11.5498 18.8335 11.5498 18.8903 11.5467C18.9159 11.0186 18.8474 10.5998 18.4996 10.1795C18.1924 9.85011 17.827 9.61191 17.3691 9.58423C16.7571 9.5695 16.2675 9.71431 15.8334 10.1706ZM11.9811 12.1765C11.9151 12.3452 11.9114 12.5008 11.9371 12.6795C12.0216 12.8516 12.1089 12.9607 12.2887 13.031C12.4857 13.0578 12.6336 13.0535 12.8136 12.9651C12.9448 12.8467 13.0189 12.7677 13.0432 12.5884C13.0536 12.365 13.0296 12.2263 12.8746 12.0545C12.7247 11.9222 12.5764 11.9173 12.3839 11.9236C12.2018 11.9498 12.0992 12.0427 11.9811 12.1765ZM14.6324 12.1326C14.5923 12.1439 14.5522 12.1553 14.5108 12.1669C14.3962 12.2083 14.3256 12.2391 14.2418 12.3279C14.2121 12.4635 14.2101 12.5888 14.2096 12.7275C14.1896 13.1579 13.9578 13.5174 13.6562 13.8095C13.3425 14.0773 12.9926 14.2089 12.5817 14.2102C12.4039 14.2155 12.4039 14.2155 12.2568 14.3019C12.196 14.41 12.1653 14.5128 12.1324 14.6326C12.1239 14.6594 12.1153 14.6862 12.1064 14.7138C11.9454 15.2189 11.7295 16.1315 11.9762 16.6248C12.0008 16.6238 12.0253 16.6227 12.0506 16.6217C12.6649 16.5995 13.1655 16.5994 13.6562 17.0182C14.0108 17.3617 14.2057 17.7485 14.2239 18.2456C14.2276 18.6929 14.1482 19.0297 13.8903 19.3982C13.8903 19.4369 13.8903 19.4756 13.8903 19.5154C14.8115 19.9987 15.7448 20.2089 16.7809 20.0232C16.7938 19.9974 16.8067 19.9717 16.8199 19.9451C16.7911 19.8553 16.7911 19.8553 16.7467 19.7571C16.5351 19.2681 16.5463 18.5986 16.7319 18.1018C17.0384 17.4145 17.4847 16.9753 18.1871 16.7029C18.4333 16.6273 18.6602 16.6098 18.9171 16.6101C18.9548 16.6101 18.9926 16.6101 19.0314 16.6101C19.3348 16.6147 19.585 16.665 19.8668 16.781C19.9055 16.7939 19.9442 16.8068 19.984 16.8201C20.2756 16.0167 20.0483 14.9913 19.7008 14.2395C19.5537 13.939 19.381 13.6769 19.1637 13.4217C19.136 13.3882 19.1084 13.3547 19.0799 13.3202C18.3593 12.4801 17.3512 12.0058 16.256 11.9031C15.7036 11.8789 15.1568 11.9599 14.6324 12.1326ZM11.9811 18.0359C11.9151 18.2046 11.9114 18.3602 11.9371 18.5389C12.0216 18.711 12.1089 18.8201 12.2887 18.8904C12.4857 18.9171 12.6336 18.9128 12.8136 18.8245C12.9448 18.7061 13.0189 18.6271 13.0432 18.4478C13.0536 18.2244 13.0296 18.0856 12.8746 17.9139C12.7247 17.7816 12.5764 17.7766 12.3839 17.7829C12.2018 17.8092 12.0992 17.9021 11.9811 18.0359ZM17.9918 18.2264C17.7931 18.5389 17.7682 18.837 17.7965 19.2029C17.8676 19.4812 18.0362 19.7282 18.2762 19.8868C18.6023 20.0721 18.9356 20.1305 19.3073 20.0356C19.6574 19.8899 19.8659 19.661 20.0231 19.3201C20.1112 19.0558 20.1061 18.7214 19.9987 18.4632C19.8174 18.1228 19.5695 17.9189 19.2028 17.7967C18.6994 17.7572 18.3346 17.8417 17.9918 18.2264Z" fill="#5856D6"/>
<path d="M21.657 7.63499C21.7114 7.6529 21.7114 7.6529 21.7669 7.67117C21.8856 7.71043 22.004 7.75053 22.1224 7.79067C22.2053 7.81836 22.2883 7.84601 22.3713 7.87362C22.5446 7.93145 22.7178 7.98967 22.8909 8.0482C23.1125 8.12309 23.3344 8.19716 23.5563 8.27095C23.7275 8.32791 23.8985 8.38523 24.0695 8.44267C24.1512 8.47011 24.233 8.49745 24.3149 8.52471C24.4292 8.56287 24.5434 8.60149 24.6575 8.64024C24.6911 8.65136 24.7247 8.66249 24.7594 8.67396C25.0069 8.75878 25.2313 8.85284 25.3737 9.08522C25.4374 9.27626 25.4443 9.44145 25.3654 9.62533C25.2912 9.75715 25.2134 9.84151 25.1034 9.94475C25.0665 9.98012 25.0297 10.0155 24.9918 10.0519C24.9336 10.1073 24.8751 10.1624 24.8164 10.2173C24.7594 10.2708 24.7031 10.325 24.6468 10.3793C24.613 10.4112 24.5792 10.443 24.5443 10.4758C24.4641 10.5641 24.4641 10.5641 24.4806 10.6732C24.5216 10.7847 24.5772 10.8714 24.6438 10.97C25.0512 11.6047 25.3444 12.3128 25.5691 13.0305C25.5781 13.0587 25.5872 13.0868 25.5966 13.1158C25.6994 13.4352 25.7824 13.7566 25.8498 14.0852C25.8559 14.1144 25.8619 14.1435 25.8682 14.1735C25.9859 14.778 26.0146 15.3775 26.0134 15.992C26.0134 16.0304 26.0134 16.0689 26.0134 16.1085C26.012 16.7478 25.9727 17.3638 25.8425 17.9915C25.8354 18.0263 25.8283 18.0612 25.821 18.0971C25.4186 20.0034 24.4519 21.6772 23.1081 23.0696C23.073 23.1064 23.0378 23.1431 23.0016 23.181C22.7779 23.4104 22.5397 23.6139 22.2878 23.8118C22.2493 23.8427 22.2108 23.8736 22.1711 23.9055C20.4923 25.2309 18.408 25.9924 16.2673 26.0164C16.2207 26.0172 16.1742 26.0181 16.1262 26.019C15.7123 26.0179 15.7123 26.0179 15.53 25.843C15.3715 25.639 15.3826 25.4269 15.4128 25.179C15.4961 25.003 15.5862 24.9061 15.7644 24.8274C15.9395 24.7962 16.1107 24.784 16.288 24.779C18.6415 24.7072 20.858 23.6558 22.4702 21.954C22.6136 21.7988 22.7451 21.6355 22.8737 21.468C22.8906 21.4461 22.9075 21.4242 22.9248 21.4017C23.1954 21.0481 23.4356 20.6834 23.655 20.2962C23.675 20.2615 23.675 20.2615 23.6954 20.2261C24.1331 19.4626 24.4179 18.6229 24.6023 17.7644C24.6082 17.7369 24.6141 17.7095 24.6201 17.6812C24.7306 17.1351 24.7647 16.6011 24.7634 16.0457C24.7633 15.993 24.7633 15.993 24.7633 15.9392C24.7582 14.3434 24.2943 12.9386 23.5378 11.5462C23.3064 11.7389 23.0965 11.9466 22.8871 12.1628C22.8624 12.1879 22.8377 12.213 22.8122 12.2389C22.7903 12.2616 22.7683 12.2842 22.7456 12.3075C22.5836 12.4497 22.437 12.4616 22.228 12.457C22.0462 12.4337 21.9426 12.3365 21.8209 12.2075C21.7164 12.0579 21.6655 11.9064 21.6084 11.7341C21.5962 11.6982 21.584 11.6624 21.5714 11.6254C21.5313 11.5071 21.4917 11.3886 21.4522 11.2701C21.4244 11.1874 21.3966 11.1048 21.3688 11.0221C21.3106 10.8488 21.2528 10.6754 21.1951 10.5019C21.1214 10.2804 21.0467 10.0593 20.9718 9.83823C20.914 9.66751 20.857 9.49658 20.8001 9.32559C20.7728 9.24402 20.7454 9.16252 20.7176 9.08111C20.4178 8.19791 20.4178 8.19791 20.4909 7.87429C20.7614 7.40772 21.2087 7.48091 21.657 7.63499ZM22.0534 9.08522C22.1436 9.43832 22.2568 9.78266 22.3733 10.1277C22.3915 10.1822 22.4098 10.2367 22.4281 10.2912C22.4724 10.4231 22.5168 10.555 22.5612 10.6868C22.7167 10.6241 22.8219 10.5156 22.9378 10.3987C22.9584 10.3782 22.979 10.3577 23.0002 10.3365C23.0435 10.2933 23.0867 10.2499 23.1298 10.2065C23.196 10.1399 23.2627 10.0737 23.3294 10.0075C23.3714 9.96537 23.4134 9.92326 23.4554 9.88112C23.4854 9.85133 23.4854 9.85133 23.5161 9.82094C23.6232 9.72494 23.6232 9.72494 23.655 9.59303C23.4395 9.52057 23.224 9.44825 23.0084 9.37607C22.935 9.35149 22.8617 9.32686 22.7883 9.30218C22.6831 9.26678 22.5778 9.23153 22.4724 9.19631C22.4395 9.1852 22.4066 9.17409 22.3727 9.16265C22.2165 9.1061 22.2165 9.1061 22.0534 9.08522Z" fill="#5856D6"/>
<path d="M15.7078 5.98311C15.7565 5.98224 15.8052 5.98137 15.8554 5.98047C16.2901 5.98157 16.2901 5.98157 16.4695 6.15645C16.6279 6.36046 16.6169 6.5726 16.5867 6.82051C16.5033 6.99645 16.4133 7.09336 16.2351 7.17208C16.0599 7.20325 15.8888 7.2155 15.7115 7.22048C13.356 7.29213 11.1432 8.34185 9.52926 10.0455C9.38587 10.2007 9.25438 10.364 9.12574 10.5315C9.10045 10.5643 9.10045 10.5643 9.07464 10.5978C8.80398 10.9515 8.56442 11.3163 8.34449 11.7033C8.33137 11.7258 8.31824 11.7483 8.30472 11.7715C7.66426 12.8732 7.25397 14.247 7.24143 15.525C7.24105 15.5574 7.24066 15.5898 7.24027 15.6231C7.22493 17.2513 7.50529 18.7962 8.34449 20.219C8.42769 20.2276 8.42769 20.2276 8.48872 20.1599C8.5276 20.1192 8.5276 20.1192 8.56727 20.0778C8.59592 20.0484 8.62457 20.0189 8.65409 19.9886C8.71409 19.9262 8.77401 19.8638 8.83384 19.8012C9.16204 19.4647 9.16204 19.4647 9.4126 19.4221C9.60572 19.4242 9.74217 19.4437 9.90699 19.5549C10.0689 19.7225 10.1281 19.9058 10.1993 20.1224C10.2182 20.1783 10.2182 20.1783 10.2375 20.2353C10.2789 20.3581 10.3197 20.4812 10.3605 20.6042C10.3891 20.6899 10.4178 20.7756 10.4465 20.8613C10.5065 21.0408 10.5663 21.2203 10.6258 21.4C10.702 21.6299 10.779 21.8596 10.8562 22.0892C10.9156 22.266 10.9745 22.4431 11.0333 22.6201C11.0615 22.7048 11.0899 22.7895 11.1183 22.8741C11.1582 22.9926 11.1974 23.1113 11.2365 23.23C11.2483 23.2647 11.2601 23.2995 11.2722 23.3353C11.347 23.5653 11.4037 23.7887 11.3178 24.0246C11.2072 24.1927 11.1226 24.2992 10.9226 24.3596C10.5925 24.4073 10.3034 24.2969 9.99865 24.1861C9.87893 24.1425 9.75876 24.1003 9.63861 24.058C9.57568 24.0359 9.51278 24.0136 9.44991 23.9913C9.14483 23.8831 8.83805 23.7803 8.53076 23.6785C8.44249 23.6492 8.35427 23.6198 8.26607 23.5903C8.01756 23.5074 7.76895 23.4249 7.51923 23.3457C7.44443 23.322 7.36971 23.298 7.29499 23.2739C7.20497 23.2451 7.1148 23.2167 7.02445 23.1888C6.73613 23.0958 6.5997 23.0119 6.43043 22.758C6.4173 22.6523 6.4173 22.6523 6.41578 22.531C6.41467 22.4912 6.41356 22.4515 6.41242 22.4106C6.44751 22.1741 6.61451 22.0182 6.78275 21.8594C6.83778 21.8064 6.83778 21.8064 6.89391 21.7522C6.95172 21.6969 7.00968 21.6417 7.06804 21.5869C7.12483 21.5334 7.18085 21.4792 7.23685 21.4249C7.27043 21.393 7.30401 21.3611 7.3386 21.3283C7.41785 21.2402 7.41785 21.2402 7.40236 21.133C7.35381 21.0008 7.28373 20.8837 7.21168 20.7634C6.63247 19.7567 6.25362 18.6317 6.07886 17.4846C6.06812 17.4168 6.06812 17.4168 6.05717 17.3476C5.99274 16.8977 5.98677 16.4517 5.98853 15.9978C5.98862 15.9588 5.9887 15.9199 5.98879 15.8798C5.99075 15.3139 6.00221 14.7592 6.11793 14.2033C6.12569 14.1652 6.13345 14.1271 6.14144 14.0878C6.54629 12.1527 7.44314 10.4309 8.81324 9.00801C8.83284 8.98756 8.85244 8.9671 8.87263 8.94602C9.1367 8.67177 9.41107 8.4222 9.71168 8.1877C9.7501 8.15688 9.78852 8.12607 9.8281 8.09432C11.1119 7.07341 12.6319 6.40886 14.2429 6.11739C14.2774 6.11099 14.3119 6.1046 14.3475 6.09801C14.8 6.01688 15.2481 5.98806 15.7078 5.98311ZM9.20386 21.1955C9.05898 21.3385 8.91434 21.4817 8.76994 21.6251C8.72075 21.6739 8.67149 21.7227 8.62216 21.7713C8.55139 21.8411 8.48088 21.9112 8.41041 21.9813C8.38819 22.0032 8.36598 22.025 8.34309 22.0474C8.28997 22.1005 8.23889 22.1557 8.18824 22.2111C8.18824 22.2369 8.18824 22.2627 8.18824 22.2893C8.40365 22.3627 8.61918 22.4357 8.83483 22.5084C8.90822 22.5332 8.98158 22.5581 9.0549 22.5831C9.16011 22.6189 9.26544 22.6544 9.3708 22.6898C9.40372 22.7011 9.43664 22.7124 9.47055 22.7241C9.55022 22.7506 9.63089 22.7742 9.71168 22.7971C9.73746 22.7842 9.76324 22.7713 9.7898 22.758C9.71928 22.5416 9.64839 22.3254 9.57713 22.1093C9.55293 22.0357 9.52883 21.9621 9.50484 21.8884C9.4704 21.7827 9.43559 21.6772 9.4007 21.5716C9.39 21.5385 9.37929 21.5054 9.36826 21.4713C9.34172 21.3916 9.31213 21.313 9.28199 21.2346C9.25621 21.2217 9.23043 21.2088 9.20386 21.1955Z" fill="#5856D6"/>
</g>
<defs>
<clipPath id="clip0_947_9766">
<rect width="20" height="20" fill="white" transform="translate(6 6)"/>
</clipPath>
</defs>
</svg>
