<svg width="32" height="32" viewBox="0 0 32 32" fill="none" xmlns="http://www.w3.org/2000/svg">
<circle cx="16" cy="16" r="15" stroke="#DDE5F0" stroke-width="2"/>
<g clip-path="url(#clip0_947_9794)">
<path d="M13.2322 6.89243C13.2645 6.89224 13.2968 6.89204 13.33 6.89184C13.4371 6.89127 13.5442 6.89101 13.6512 6.89079C13.7259 6.89057 13.8007 6.89034 13.8754 6.89012C14.0324 6.88971 14.1894 6.88948 14.3464 6.88934C14.5462 6.88913 14.7461 6.88819 14.9459 6.88708C15.1005 6.88634 15.2551 6.88615 15.4097 6.88609C15.4833 6.88597 15.5568 6.88566 15.6304 6.88514C16.1712 6.88161 16.6947 6.89779 17.1832 7.15996C17.2223 7.18031 17.2223 7.18031 17.2622 7.20108C17.8961 7.54126 18.3418 8.08912 18.5577 8.77373C18.6409 9.06617 18.6647 9.34116 18.6671 9.64363C18.6674 9.68247 18.6677 9.72132 18.6681 9.76134C18.6686 9.84358 18.669 9.92583 18.6693 10.0081C18.6698 10.091 18.6706 10.1739 18.6717 10.2568C18.685 11.2049 18.5531 11.9653 17.8765 12.68C17.662 12.8893 17.4274 13.0278 17.1601 13.158C17.1313 13.1723 17.1024 13.1865 17.0727 13.2012C17.0022 13.2359 16.9316 13.2705 16.8609 13.305C17.122 13.313 17.3831 13.3184 17.6444 13.3221C17.7329 13.3237 17.8215 13.3258 17.9101 13.3286C18.4188 13.3438 18.8312 13.3422 19.2725 13.0692C19.8125 12.7441 20.5536 12.6981 21.1672 12.778C21.2157 12.7844 21.2641 12.7907 21.314 12.7972C21.3062 12.7758 21.2984 12.7544 21.2903 12.7324C21.2091 12.5107 21.128 12.2889 21.047 12.0671C21.0167 11.9843 20.9864 11.9014 20.9561 11.8186C20.9125 11.6998 20.8691 11.5809 20.8258 11.462C20.8121 11.4248 20.7984 11.3876 20.7843 11.3493C20.7718 11.3149 20.7593 11.2805 20.7464 11.2451C20.7298 11.1995 20.7298 11.1995 20.7128 11.1531C20.689 11.0784 20.689 11.0784 20.689 11.0003C20.6463 10.9922 20.6036 10.9842 20.5596 10.9759C20.1028 10.8594 19.7576 10.578 19.505 10.1873C19.2483 9.7272 19.2051 9.21064 19.3438 8.70292C19.5198 8.20087 19.8747 7.83677 20.3472 7.60216C20.676 7.48169 20.9954 7.47039 21.3433 7.47001C21.3897 7.46906 21.436 7.4681 21.4837 7.46712C22.0586 7.46523 22.5503 7.64247 22.9791 8.02666C23.1161 8.17339 23.2103 8.32654 23.2972 8.50609C23.3172 8.54684 23.3172 8.54684 23.3377 8.58841C23.4962 8.91518 23.637 9.24945 23.7774 9.58427C23.8065 9.65313 23.8355 9.72198 23.8646 9.79083C23.9523 9.99853 24.0395 10.2064 24.1265 10.4144C24.1394 10.445 24.1522 10.4757 24.1654 10.5073C24.2977 10.8235 24.4295 11.1399 24.561 11.4564C24.6981 11.7864 24.836 12.1161 24.9741 12.4457C25.0338 12.5881 25.0933 12.7305 25.1527 12.873C25.2826 13.1845 25.413 13.4957 25.5475 13.8053C25.6032 13.9336 25.6583 14.0621 25.7133 14.1907C25.7391 14.2503 25.7651 14.3099 25.7914 14.3693C26.1015 15.0698 26.1015 15.0698 25.9721 15.4146C25.9347 15.4845 25.9347 15.4845 25.8453 15.6097C25.8166 15.6501 25.7879 15.6906 25.7583 15.7323C24.7973 16.9783 23.5079 17.7664 21.939 17.9925C21.6273 18.0277 21.3146 18.0508 21.0015 18.0706C20.9959 18.1247 20.9959 18.1247 20.9902 18.18C20.9604 18.3869 20.8941 18.5828 20.8313 18.7817C20.8113 18.8457 20.8113 18.8457 20.7909 18.911C20.7622 19.0029 20.7335 19.0947 20.7047 19.1865C20.6591 19.3324 20.6143 19.4785 20.5696 19.6246C20.4359 20.0609 20.3006 20.4948 20.1428 20.9229C19.7968 21.8841 19.7373 22.7826 19.7498 23.7943C19.7506 23.8708 19.7506 23.8708 19.7515 23.9488C19.7529 24.0447 19.755 24.1407 19.7578 24.2367C19.7631 24.5067 19.7596 24.722 19.5758 24.9355C19.3823 25.0817 19.2605 25.1068 19.0211 25.1073C18.981 25.1075 18.981 25.1075 18.9401 25.1077C18.8503 25.108 18.7606 25.1081 18.6708 25.1081C18.6065 25.1083 18.5422 25.1085 18.4779 25.1087C18.3031 25.1092 18.1283 25.1095 17.9535 25.1097C17.8443 25.1098 17.7351 25.1099 17.6259 25.1101C17.2842 25.1107 16.9426 25.111 16.6009 25.1112C16.2065 25.1114 15.8121 25.112 15.4176 25.1132C15.1128 25.114 14.8079 25.1144 14.5031 25.1145C14.321 25.1145 14.1389 25.1147 13.9568 25.1154C13.7855 25.1161 13.6142 25.1162 13.4429 25.1158C13.3801 25.1158 13.3173 25.116 13.2544 25.1163C13.1686 25.1168 13.0827 25.1166 12.9968 25.1162C12.9248 25.1163 12.9248 25.1163 12.8513 25.1164C12.6809 25.0975 12.5501 25.0418 12.4217 24.9274C12.2759 24.7436 12.2438 24.6289 12.2572 24.3986C12.3418 22.6919 12.0194 21.2821 11.4621 19.6772C11.3606 19.3848 11.2649 19.0908 11.1727 18.7953C11.1498 18.7221 11.1268 18.649 11.1037 18.5759C11.0901 18.5321 11.0766 18.4884 11.0627 18.4433C11.0448 18.386 11.0448 18.386 11.0267 18.3275C11.0015 18.2269 11.0015 18.2269 11.0015 18.0706C10.977 18.0691 10.9525 18.0675 10.9273 18.0659C9.27359 17.9569 7.71721 17.4544 6.589 16.1802C5.97619 15.4662 5.97619 15.4662 5.98129 15.0451C6.02765 14.728 6.18096 14.436 6.30916 14.1448C6.34128 14.0703 6.37333 13.9957 6.40529 13.9211C6.47169 13.7662 6.53844 13.6115 6.60545 13.457C6.74423 13.1361 6.87861 12.8134 7.01303 12.4906C7.08561 12.3165 7.15853 12.1426 7.2314 11.9686C7.35072 11.6836 7.46992 11.3986 7.58907 11.1135C7.72125 10.7972 7.85366 10.4811 7.98627 10.165C8.06782 9.97052 8.14907 9.77595 8.23005 9.58125C8.27949 9.46256 8.32917 9.34397 8.37891 9.2254C8.40161 9.17116 8.4242 9.11689 8.44667 9.06256C8.77663 8.26542 8.77663 8.26542 9.08748 7.99248C9.10656 7.97374 9.12565 7.95501 9.14531 7.93571C9.56723 7.53884 10.0881 7.47099 10.6427 7.47246C10.6898 7.47183 10.737 7.4712 10.7856 7.47055C11.362 7.47024 11.8146 7.61389 12.236 8.01002C12.6187 8.41707 12.7471 8.85652 12.7337 9.40742C12.6849 9.94402 12.4405 10.3535 12.0327 10.6972C11.8163 10.8559 11.5852 10.9789 11.314 11.0003C11.3001 11.0497 11.2861 11.0992 11.2718 11.1501C11.1735 11.4776 11.0526 11.7974 10.9356 12.1185C10.9117 12.1844 10.8878 12.2504 10.8638 12.3164C10.8057 12.4767 10.7474 12.6369 10.689 12.7972C10.7376 12.7909 10.7862 12.7846 10.8362 12.7781C11.4774 12.6952 12.2965 12.7501 12.8435 13.1289C13.2673 13.3955 13.7517 13.3304 14.234 13.3196C14.3259 13.3184 14.4179 13.3174 14.5098 13.3164C14.7337 13.3139 14.9574 13.3099 15.1812 13.305C15.15 13.2926 15.1187 13.2802 15.0865 13.2674C14.3717 12.978 13.8903 12.4974 13.5504 11.8084C13.3476 11.328 13.3287 10.8569 13.3338 10.3451C13.3341 10.2802 13.3342 10.2153 13.3343 10.1504C13.3348 9.98148 13.3359 9.8126 13.3372 9.64371C13.3385 9.4706 13.339 9.29749 13.3396 9.12437C13.3408 8.78613 13.3428 8.4479 13.3453 8.10966C13.3158 8.1102 13.2864 8.11074 13.256 8.11129C13.2173 8.11171 13.1787 8.11213 13.1388 8.11256C13.0814 8.11337 13.0814 8.11337 13.0227 8.11419C12.8816 8.10823 12.7962 8.07383 12.6812 7.99248C12.4987 7.79026 12.4723 7.6646 12.4748 7.39738C12.4942 7.20938 12.5851 7.10516 12.7227 6.98417C12.8866 6.88373 13.0466 6.8927 13.2322 6.89243ZM14.5562 8.10966C14.5526 8.46759 14.5498 8.82552 14.5481 9.18347C14.5473 9.34973 14.5462 9.51597 14.5444 9.68222C14.5427 9.84306 14.5418 10.0039 14.5414 10.1647C14.5411 10.2257 14.5406 10.2866 14.5397 10.3476C14.5324 10.8927 14.5948 11.3721 14.9859 11.7815C15.0179 11.8152 15.0179 11.8152 15.0506 11.8496C15.3315 12.1159 15.7107 12.225 16.0908 12.2195C16.5124 12.1867 16.8629 11.9677 17.1511 11.6666C17.3972 11.3441 17.4528 10.9979 17.4548 10.6055C17.455 10.5712 17.4552 10.5369 17.4555 10.5015C17.4558 10.4289 17.4561 10.3563 17.4562 10.2837C17.4566 10.1737 17.4578 10.0637 17.4591 9.95376C17.4623 9.406 17.4191 8.96977 17.0367 8.54912C17.0045 8.52011 16.9722 8.49111 16.939 8.46123C16.91 8.43464 16.881 8.40805 16.8512 8.38066C16.6167 8.21549 16.3527 8.10438 16.064 8.10523C16.0304 8.10523 15.9968 8.10523 15.9621 8.10524C15.9262 8.10544 15.8902 8.10564 15.8532 8.10585C15.8162 8.1059 15.7791 8.10596 15.7409 8.10602C15.6227 8.10623 15.5045 8.10672 15.3863 8.10722C15.3061 8.10742 15.2259 8.1076 15.1457 8.10776C14.9492 8.10819 14.7527 8.10886 14.5562 8.10966ZM9.86064 8.93425C9.75885 9.09836 9.68352 9.27027 9.6075 9.44755C9.58922 9.48963 9.57095 9.53171 9.55212 9.57506C9.31982 10.1135 9.09732 10.6561 8.87355 11.198C8.71398 11.5845 8.55299 11.9704 8.39139 12.356C8.3479 12.4599 8.30448 12.5637 8.26108 12.6676C8.12268 12.9987 7.98359 13.3294 7.84266 13.6594C7.77614 13.8152 7.70993 13.9713 7.64376 14.1273C7.61197 14.202 7.58002 14.2766 7.54791 14.3512C7.5035 14.4543 7.45963 14.5576 7.41588 14.661C7.40253 14.6916 7.38918 14.7222 7.37543 14.7537C7.29464 14.945 7.29464 14.945 7.32967 15.1409C7.43739 15.2795 7.56058 15.4041 7.68123 15.5315C7.70505 15.5583 7.72886 15.5851 7.7534 15.6127C8.62549 16.5557 9.97791 16.8099 11.1978 16.8666C11.2683 16.8704 11.2683 16.8704 11.3401 16.8743C11.3821 16.8762 11.4241 16.8781 11.4674 16.8801C11.6613 16.9102 11.7823 16.9633 11.9015 17.1219C11.977 17.2485 12.0224 17.3605 12.0654 17.5011C12.0729 17.5252 12.0804 17.5492 12.0881 17.574C12.1127 17.6534 12.1367 17.733 12.1608 17.8126C12.1782 17.8692 12.1956 17.9258 12.2131 17.9824C12.2696 18.1654 12.3253 18.3487 12.3809 18.532C12.4002 18.5953 12.4194 18.6586 12.4386 18.7219C12.4482 18.7534 12.4577 18.7849 12.4676 18.8173C12.5063 18.9447 12.545 19.0721 12.5838 19.1995C12.6032 19.2633 12.6226 19.327 12.6419 19.3907C12.7725 19.8205 12.9078 20.2476 13.0613 20.6698C13.4698 21.8188 13.4365 22.5932 13.4625 23.8909C15.1383 23.8909 16.814 23.8909 18.5406 23.8909C18.5535 23.2464 18.5664 22.6019 18.5797 21.9378C18.665 21.5478 18.7514 21.2024 18.8873 20.8343C18.9189 20.7419 18.9503 20.6495 18.9814 20.5569C19.0301 20.4122 19.079 20.2675 19.1291 20.1233C19.2583 19.7509 19.3759 19.3758 19.4891 18.9983C19.4975 18.9704 19.5059 18.9425 19.5145 18.9137C19.5807 18.6937 19.6465 18.4736 19.7122 18.2534C19.765 18.0766 19.8184 17.8999 19.8721 17.7233C19.8919 17.6565 19.8919 17.6565 19.9121 17.5883C20.0589 17.1076 20.0589 17.1076 20.2757 16.9451C20.4921 16.8734 20.709 16.8706 20.9356 16.8597C21.3558 16.834 21.7638 16.8023 22.1734 16.7034C22.2036 16.6962 22.2337 16.6889 22.2648 16.6815C23.2586 16.4337 23.979 15.9186 24.6698 15.1783C24.7299 15.0707 24.7052 15.0255 24.6734 14.9065C24.6336 14.802 24.5925 14.6992 24.5491 14.5962C24.5363 14.5655 24.5235 14.5348 24.5104 14.5032C24.4681 14.4016 24.4255 14.3001 24.3829 14.1985C24.3529 14.1266 24.3228 14.0546 24.2929 13.9827C24.2142 13.7941 24.1353 13.6056 24.0563 13.4171C23.9964 13.2741 23.9366 13.131 23.8768 12.988C23.7316 12.6405 23.5861 12.2931 23.4405 11.9458C23.3332 11.6898 23.2262 11.4337 23.1193 11.1776C22.96 10.7958 22.8001 10.4143 22.6397 10.0329C22.6056 9.95164 22.5716 9.87035 22.5377 9.78903C22.4842 9.66119 22.4303 9.53358 22.3761 9.40605C22.3618 9.3716 22.3475 9.33714 22.3327 9.30164C22.2287 9.05953 22.1285 8.87797 21.8939 8.74061C21.7116 8.67348 21.5256 8.67702 21.3336 8.67851C21.298 8.67773 21.2624 8.67695 21.2257 8.67615C20.9866 8.67632 20.8456 8.71301 20.65 8.85185C20.5346 8.97875 20.497 9.08237 20.484 9.25468C20.4975 9.45395 20.5512 9.57511 20.6947 9.71443C20.8305 9.80562 20.9381 9.82346 21.0992 9.84794C21.3122 9.88032 21.4301 9.91477 21.5875 10.0628C21.6434 10.1648 21.6434 10.1648 21.6869 10.2789C21.7031 10.3205 21.7192 10.362 21.7359 10.4049C21.7514 10.4467 21.7668 10.4885 21.7828 10.5315C21.8039 10.587 21.8039 10.587 21.8253 10.6436C21.8674 10.7556 21.9084 10.868 21.9491 10.9805C21.9642 11.0217 21.9792 11.063 21.9947 11.1056C22.043 11.2381 22.0912 11.3706 22.1392 11.5032C22.2055 11.6858 22.2717 11.8683 22.3381 12.0509C22.3542 12.0954 22.3704 12.1399 22.3871 12.1858C22.4791 12.4386 22.5728 12.6906 22.6692 12.9417C22.6896 12.9954 22.71 13.049 22.7304 13.1027C22.7661 13.1966 22.8025 13.29 22.8396 13.3833C22.9392 13.6461 22.9925 13.8824 22.9547 14.1644C22.8848 14.3149 22.8272 14.3791 22.691 14.472C22.47 14.5485 22.3207 14.5457 22.1099 14.4549C22.0528 14.4235 21.9958 14.3917 21.939 14.3597C21.3283 14.0311 20.7766 13.8661 20.084 14.0398C19.8434 14.1212 19.6209 14.2381 19.3978 14.3586C19.3727 14.3718 19.3477 14.3851 19.3219 14.3987C19.287 14.4186 19.2521 14.4384 19.2161 14.4588C19.0751 14.5214 18.9816 14.5309 18.8281 14.5316C18.7905 14.532 18.7905 14.532 18.7522 14.5324C18.6687 14.5331 18.5852 14.533 18.5018 14.5329C18.4417 14.5333 18.3816 14.5337 18.3215 14.5341C18.1586 14.5352 17.9958 14.5354 17.8329 14.5355C17.7309 14.5356 17.629 14.5358 17.5271 14.5362C17.1709 14.5372 16.8148 14.5377 16.4586 14.5376C16.1275 14.5376 15.7964 14.5388 15.4653 14.5406C15.1804 14.5422 14.8955 14.5428 14.6106 14.5427C14.4407 14.5427 14.2709 14.543 14.101 14.5443C13.941 14.5454 13.781 14.5454 13.621 14.5446C13.5626 14.5444 13.5043 14.5447 13.4459 14.5454C13.0593 14.5498 12.7803 14.4839 12.4469 14.2815C11.908 13.9839 11.3411 13.8747 10.7394 14.0398C10.4325 14.1506 10.147 14.3125 9.85988 14.4662C9.66746 14.5545 9.50963 14.5403 9.31209 14.472C9.1449 14.358 9.06676 14.238 9.01797 14.042C9.00701 13.8498 9.05319 13.7125 9.11815 13.5334C9.13042 13.4982 9.14268 13.4629 9.15532 13.4267C9.19707 13.3077 9.23983 13.1891 9.28279 13.0706C9.29813 13.0279 9.31347 12.9853 9.32928 12.9413C9.43044 12.6605 9.53319 12.3803 9.63673 12.1003C9.69046 11.955 9.74394 11.8096 9.79739 11.6641C9.88253 11.4329 9.9685 11.202 10.0552 10.9714C10.0864 10.8884 10.1175 10.8053 10.1484 10.7222C10.1893 10.6125 10.231 10.5031 10.2729 10.3938C10.2846 10.3621 10.2963 10.3304 10.3083 10.2977C10.3783 10.1188 10.4411 10.0104 10.6109 9.90654C10.7588 9.86924 10.9057 9.84767 11.0565 9.82475C11.2536 9.77503 11.3539 9.69253 11.463 9.52324C11.5342 9.33197 11.5342 9.19205 11.463 9.00078C11.3613 8.84303 11.2577 8.75496 11.0797 8.6956C10.9472 8.68465 10.8146 8.68476 10.6817 8.68339C10.6457 8.68226 10.6098 8.68113 10.5727 8.67996C10.2821 8.67728 10.0737 8.73064 9.86064 8.93425Z" fill="#34C759"/>
<path d="M14.7654 19.1572C14.7948 19.157 14.8241 19.1568 14.8544 19.1566C14.9515 19.156 15.0487 19.1557 15.1458 19.1555C15.2134 19.1553 15.281 19.1551 15.3486 19.1548C15.4903 19.1544 15.6321 19.1542 15.7739 19.1541C15.9553 19.1539 16.1366 19.1529 16.318 19.1518C16.4577 19.1511 16.5973 19.1509 16.737 19.1508C16.8038 19.1507 16.8707 19.1504 16.9375 19.1499C17.0312 19.1492 17.1249 19.1493 17.2186 19.1495C17.246 19.1492 17.2735 19.1488 17.3018 19.1484C17.4821 19.15 17.6041 19.1862 17.7574 19.2806C17.9399 19.4829 17.9663 19.6085 17.9638 19.8757C17.9444 20.0637 17.8535 20.168 17.7159 20.2889C17.5594 20.3849 17.411 20.3804 17.2337 20.3807C17.2044 20.3809 17.175 20.3811 17.1448 20.3813C17.0476 20.3818 16.9505 20.3821 16.8533 20.3823C16.7857 20.3825 16.7181 20.3828 16.6505 20.383C16.5088 20.3834 16.367 20.3836 16.2253 20.3838C16.0439 20.384 15.8625 20.3849 15.6811 20.386C15.5415 20.3868 15.4018 20.387 15.2622 20.387C15.1953 20.3871 15.1285 20.3875 15.0616 20.388C14.9679 20.3886 14.8743 20.3886 14.7806 20.3883C14.7531 20.3887 14.7256 20.389 14.6973 20.3894C14.517 20.3879 14.395 20.3517 14.2418 20.2572C14.0593 20.055 14.0329 19.9293 14.0353 19.6621C14.0547 19.4741 14.1456 19.3699 14.2833 19.2489C14.4397 19.153 14.5882 19.1574 14.7654 19.1572Z" fill="#34C759"/>
<path d="M15.2433 21.5021C15.2801 21.5017 15.3169 21.5014 15.3547 21.501C15.4143 21.5007 15.4143 21.5007 15.475 21.5005C15.5159 21.5003 15.5568 21.5 15.5989 21.4998C15.6855 21.4994 15.7721 21.4992 15.8587 21.499C15.9909 21.4987 16.123 21.4974 16.2552 21.4962C16.3394 21.496 16.4235 21.4958 16.5077 21.4956C16.5471 21.4951 16.5866 21.4946 16.6272 21.4941C16.8379 21.4948 16.99 21.5049 17.171 21.6256C17.3535 21.8278 17.3799 21.9535 17.3774 22.2207C17.358 22.4087 17.2671 22.5129 17.1295 22.6339C17.0035 22.7111 16.8993 22.7245 16.7549 22.7257C16.6997 22.7262 16.6997 22.7262 16.6435 22.7268C16.584 22.727 16.584 22.727 16.5232 22.7273C16.4824 22.7275 16.4415 22.7277 16.3993 22.728C16.3127 22.7283 16.2261 22.7286 16.1396 22.7287C16.0074 22.7291 15.8752 22.7303 15.743 22.7316C15.6588 22.7318 15.5747 22.732 15.4905 22.7322C15.4511 22.7327 15.4117 22.7331 15.371 22.7336C15.1118 22.7328 14.9347 22.7037 14.7393 22.5192C14.6343 22.3466 14.5745 22.1735 14.6061 21.97C14.6706 21.7683 14.7718 21.6662 14.9444 21.5475C15.0561 21.5103 15.1274 21.5031 15.2433 21.5021Z" fill="#34C759"/>
</g>
<defs>
<clipPath id="clip0_947_9794">
<rect width="20" height="20" fill="white" transform="translate(6 6)"/>
</clipPath>
</defs>
</svg>
